STARTFONT 2.3
FONT -FontForge-Righteous-Book-R-Normal--24-240-72-72-P-130-ISO10646-1
SIZE 24 72 72  4
FONTBOUNDINGBOX 31 30 -4 -6
COMMENT "Generated by fontforge, http://fontforge.sourceforge.net"
COMMENT "Copyright (c) 2011 by Brian J. Bonislawsky DBA Astigmatic (AOETI) (astigma@astigmatic.com), with ReservedFont Name "Righteous""
STARTPROPERTIES 40
FOUNDRY "FontForge"
FAMILY_NAME "Righteous"
WEIGHT_NAME "Book"
SLANT "R"
SETWIDTH_NAME "Normal"
ADD_STYLE_NAME ""
PIXEL_SIZE 24
POINT_SIZE 240
RESOLUTION_X 72
RESOLUTION_Y 72
SPACING "P"
AVERAGE_WIDTH 130
CHARSET_REGISTRY "ISO10646"
CHARSET_ENCODING "1"
FONTNAME_REGISTRY ""
CHARSET_COLLECTIONS "ISO8859-2 ISO8859-9 ISO8859-4 ISO10646-1"
BITS_PER_PIXEL 4
FONT_NAME "Righteous-Regular"
FACE_NAME "Righteous"
COPYRIGHT "Copyright (c) 2011 by Brian J. Bonislawsky DBA Astigmatic (AOETI) (astigma@astigmatic.com), with ReservedFont Name "Righteous""
FONT_VERSION "1.000"
FONT_ASCENT 19
FONT_DESCENT 5
UNDERLINE_POSITION -3
UNDERLINE_THICKNESS 1
X_HEIGHT 12
CAP_HEIGHT 16
RAW_ASCENT 799
RAW_DESCENT 200
NORM_SPACE 7
RELATIVE_WEIGHT 40
RELATIVE_SETWIDTH 50
SUPERSCRIPT_X 0
SUPERSCRIPT_Y 11
SUPERSCRIPT_SIZE 15
SUBSCRIPT_X 0
SUBSCRIPT_Y 3
SUBSCRIPT_SIZE 15
AVG_LOWERCASE_WIDTH 129
AVG_UPPERCASE_WIDTH 153
ENDPROPERTIES
CHARS 372
STARTCHAR space
ENCODING 32
SWIDTH 279 0
DWIDTH 7 0
BBX 1 1 0 0
BITMAP
00
ENDCHAR
STARTCHAR exclam
ENCODING 33
SWIDTH 274 0
DWIDTH 7 0
BBX 5 18 1 -1
BITMAP
9CCC40
AFFF40
9FFF30
8FFF20
7FFF10
6FFF00
5FFF00
5FFE00
4FFD00
3FFC00
2FFB00
1FFA00
0DD800
012000
3EFB00
AFFF40
8FFF20
19C500
ENDCHAR
STARTCHAR quotedbl
ENCODING 34
SWIDTH 409 0
DWIDTH 10 0
BBX 8 6 1 11
BITMAP
ACC69CC7
BFF79FF8
9FF58FF6
8FF47FF5
7FF25FF4
37712771
ENDCHAR
STARTCHAR numbersign
ENCODING 35
SWIDTH 561 0
DWIDTH 13 0
BBX 13 12 0 2
BITMAP
00004DD51DD900
00009FF35FF600
0048DFF8CFFA50
00AFFFFFFFFF60
00CEFFDDFFED20
000AFF16FF5000
035EFD5CFF6200
0BFFFFFFFFF400
1FFFFFFFFFE000
01CFE19FF41000
01FFA0DFE00000
01442044300000
ENDCHAR
STARTCHAR dollar
ENCODING 36
SWIDTH 458 0
DWIDTH 11 0
BBX 10 17 1 0
BITMAP
0006C80000
0007FA0000
0007FA0000
027CFD9940
2EFFFFFF70
AFFEEEEE60
DFB0000000
BFFCCCA500
4FFFFFFF70
03ACCCEFE0
222222AFF1
EFFFFFFFC0
EFFFFFFD20
666AFC4100
0007FA0000
0007FA0000
0007FA0000
ENDCHAR
STARTCHAR percent
ENCODING 37
SWIDTH 685 0
DWIDTH 16 0
BBX 16 19 0 -1
BITMAP
0000100000000000
019EFD400007CB00
08FFFFE1002FF700
0EF93EF600AFD000
1FF30AF903FF5000
2FF209F90BFC0000
0FF60DF75FF40000
0BFFDFF3DFA00000
02DFFF86FF200000
0014521EF9023100
0000008FE3CFFE50
000001EF7AFFFFF2
000009FE1FF61EF6
00002FF62FF20AF8
0000BFC02FF20BF8
0004FF401FF72EF6
000CFB000AFFFFF2
005FF30001CFFE50
0000000000023000
ENDCHAR
STARTCHAR ampersand
ENCODING 38
SWIDTH 485 0
DWIDTH 12 0
BBX 10 17 1 0
BITMAP
00007C8000
00008F9000
0039DFDAA2
07FFFFFFF3
3FFFDDDDD3
8FF3000000
8FF1000000
4FFC999200
0CFFFFF400
2FFFFFF400
7FF4000000
8FF1000000
5FFB777771
0CFFFFFFF3
019FFFFFF3
00008FA110
00008F9000
ENDCHAR
STARTCHAR quotesingle
ENCODING 39
SWIDTH 238 0
DWIDTH 6 0
BBX 4 6 1 11
BITMAP
ACC6
BFF7
9FF5
8FF4
7FF2
3771
ENDCHAR
STARTCHAR parenleft
ENCODING 40
SWIDTH 351 0
DWIDTH 8 0
BBX 8 23 0 -3
BITMAP
00002333
0002EFF9
000CFFD0
005FFF50
00CFFC00
03FFF600
08FFF100
0BFFB000
0EFF8000
0FFF6000
1FFF5000
2FFF4000
1FFF5000
0FFF7000
0CFFA000
09FFD000
05FFF300
01FFF800
00AFFE10
003FFF70
000BFFE1
0002FFF9
00004666
ENDCHAR
STARTCHAR parenright
ENCODING 41
SWIDTH 351 0
DWIDTH 8 0
BBX 8 23 0 -3
BITMAP
23330000
3FFF8000
07FFF300
00DFFB00
006FFF30
000EFF90
0009FFE0
0005FFF2
0002FFF5
0000FFF7
0000DFF8
0000DFF8
0000EFF7
0001FFF6
0004FFF3
0007FFF1
000CFFB0
002FFF70
008FFF10
01EFF900
09FFF200
3FFF8000
36661000
ENDCHAR
STARTCHAR asterisk
ENCODING 42
SWIDTH 589 0
DWIDTH 14 0
BBX 13 13 1 7
BITMAP
00009EEB000000
00009FFB000000
05109FFB005100
3FE7AFFB6DF700
BFFFFFFFFFFD00
9FFFFFFFFFFC10
03BFFFFFFC4000
000BFFFFC00000
007FFFFFF90000
05FFFDBFFF8000
0BFFF31DFFE100
01BF6003FD2000
00060000510000
ENDCHAR
STARTCHAR plus
ENCODING 43
SWIDTH 485 0
DWIDTH 12 0
BBX 11 11 0 3
BITMAP
000068830000
0000BFF70000
0000BFF70000
0111CFF71110
1FFFFFFFFFC0
1FFFFFFFFFC0
1FFFFFFFFFC0
0222CFF72210
0000BFF70000
0000BFF70000
000045520000
ENDCHAR
STARTCHAR comma
ENCODING 44
SWIDTH 264 0
DWIDTH 6 0
BBX 5 7 1 -3
BITMAP
012000
5EF900
CFFF10
AFFF10
2BFD00
08F800
07C100
ENDCHAR
STARTCHAR hyphen
ENCODING 45
SWIDTH 528 0
DWIDTH 13 0
BBX 11 5 1 6
BITMAP
111111111100
9FFFFFFFFF40
9FFFFFFFFF40
9FFFFFFFFF40
122222222200
ENDCHAR
STARTCHAR period
ENCODING 46
SWIDTH 263 0
DWIDTH 6 0
BBX 5 5 1 -1
BITMAP
012000
5EF900
CFFF10
AFFE00
2AB400
ENDCHAR
STARTCHAR slash
ENCODING 47
SWIDTH 490 0
DWIDTH 12 0
BBX 11 17 0 0
BITMAP
00000007CCB0
0000000EFF80
0000005FFF20
000000BFFB00
000002FFF500
000009FFD000
00001EFF7000
00006FFF1000
0000CFFA0000
0003FFF30000
000AFFC00000
001FFF600000
007FFE100000
00DFF9000000
04FFF2000000
0BFFB0000000
2FFF50000000
ENDCHAR
STARTCHAR zero
ENCODING 48
SWIDTH 642 0
DWIDTH 15 0
BBX 14 18 1 -1
BITMAP
0004AEFFC71000
009FFFFFFFD200
07FFFFFFFFFC00
1FFFD523AFFF70
7FFF20000BFFD0
AFFA000003FFF1
DFF6000000EFF4
EFF4000000CFF5
FFF3000000CFF6
EFF4000000CFF5
DFF5000000EFF5
BFF9000002FFF2
7FFE100009FFE0
2FFFC2007FFF80
09FFFFEFFFFE10
01BFFFFFFFE400
0007DFFFFA2000
00000233000000
ENDCHAR
STARTCHAR one
ENCODING 49
SWIDTH 317 0
DWIDTH 8 0
BBX 6 17 0 0
BITMAP
1CCCCC
1FFFFE
1FFFFE
18BFFE
006FFE
006FFE
006FFE
006FFE
006FFE
006FFE
006FFE
006FFE
006FFE
006FFE
006FFE
006FFE
006FFE
ENDCHAR
STARTCHAR two
ENCODING 50
SWIDTH 570 0
DWIDTH 14 0
BBX 12 17 1 0
BITMAP
3CCCCCCB7100
4FFFFFFFFD30
4FFFFFFFFFD1
2888889CFFF7
00000000CFFB
00000000AFFB
00000115EFF9
005CFFFFFFF3
08FFFFFFFF80
4FFFFFFFE600
BFFE74430000
EFF800000000
FFF600000000
FFF955555552
FFFFFFFFFFF5
FFFFFFFFFFF5
FFFFFFFFFFF5
ENDCHAR
STARTCHAR three
ENCODING 51
SWIDTH 586 0
DWIDTH 14 0
BBX 12 17 1 0
BITMAP
ACCCCCCB8100
CFFFFFFFFE40
CFFFFFFFFFE2
7888888BFFF9
00000000AFFD
000000007FFE
00111114EFFB
00AFFFFFFFF5
00AFFFFFFFC0
00AFFFFFFFF4
00344447FFFA
000000008FFD
000000009FFD
45555558FFFA
CFFFFFFFFFF3
CFFFFFFFFF60
CFFFFFFEB400
ENDCHAR
STARTCHAR four
ENCODING 52
SWIDTH 630 0
DWIDTH 15 0
BBX 15 17 0 0
BITMAP
006CCB0000000000
009FFB0002221000
00BFF9000EFF7000
00EFF7000EFF7000
01FFF5000EFF7000
03FFF2000EFF7000
05FFF0000EFF7000
07FFD0000EFF7000
09FFB0000EFF7000
0BFF90000EFF7000
0DFFDBBBBFFFDB10
0FFFFFFFFFFFFF20
2FFFFFFFFFFFFF20
3AAAAAAAAFFFCA10
000000000EFF7000
000000000EFF7000
000000000EFF7000
ENDCHAR
STARTCHAR five
ENCODING 53
SWIDTH 585 0
DWIDTH 14 0
BBX 13 17 1 0
BITMAP
0BCCCCCCCCC600
0FFFFFFFFFF800
1FFFFFFFFFF800
3FFFA888888400
4FFF1000000000
6FFF0000000000
7FFE8888500000
9FFFFFFFFD4000
AFFFFFFFFFE300
9CCCCCCEFFFB00
000000009FFF10
000000003FFF30
000000005FFF20
45555557EFFE00
CFFFFFFFFFF700
CFFFFFFFFFA000
CFFFFFFEB50000
ENDCHAR
STARTCHAR six
ENCODING 54
SWIDTH 615 0
DWIDTH 15 0
BBX 14 18 0 -1
BITMAP
00001ACCC70000
0000BFFF700000
0008FFF7000000
003FFF90000000
00BFFD47751000
02FFFEFFFFE600
07FFFFFFFFFF70
0BFFFFC9BFFFF2
0EFFF70006FFF9
1FFFC00000BFFC
1FFF9000007FFE
1FFF9000008FFD
0DFFE10000DFFB
08FFFB201AFFF6
01EFFFFEFFFFD0
003EFFFFFFFE20
0002BFFFFFB200
00000267620000
ENDCHAR
STARTCHAR seven
ENCODING 55
SWIDTH 516 0
DWIDTH 12 0
BBX 13 17 0 0
BITMAP
5CCCCCCCCCCC20
6FFFFFFFFFFD00
6FFFFFFFFFF800
4888888BFFF300
00000009FFD000
0000000EFF8000
0000005FFF3000
000000AFFD0000
000001EFF70000
000006FFF20000
00000BFFC00000
00001FFF700000
00006FFF200000
0000CFFC000000
0002FFF7000000
0007FFF2000000
000CFFB0000000
ENDCHAR
STARTCHAR eight
ENCODING 56
SWIDTH 618 0
DWIDTH 15 0
BBX 14 19 0 -1
BITMAP
00000145300000
00019FFFFE8000
001DFFFFFFFB10
00AFFFFDFFFF80
01FFFB102CFFD0
02FFF30005FFF0
01FFF50007FFD0
00AFFE758FFF80
002DFFFFFFFC10
006FFFFFFFFE40
04FFFE979FFFE2
0CFFD10002EFF9
1FFF5000007FFD
2FFF5000007FFE
0EFFB00001DFFC
07FFFD758EFFF5
00AFFFFFFFFF80
0006DFFFFFC500
00000366520000
ENDCHAR
STARTCHAR nine
ENCODING 57
SWIDTH 616 0
DWIDTH 15 0
BBX 14 18 0 0
BITMAP
00000134200000
0002AFFFFD6000
003EFFFFFFFA00
01EFFFFFFFFF90
08FFFA326EFFF3
0DFFB00005FFF8
1FFF500000DFFC
2FFF400000CFFD
1FFF600000EFFC
0DFFD10008FFFB
07FFFD87BFFFF8
01DFFFFFFFFFF4
002CFFFFFFFFE1
000049BA7EFF90
00000000BFFE20
00000008FFF700
0000008FFFA000
00001AFFFA0000
ENDCHAR
STARTCHAR colon
ENCODING 58
SWIDTH 276 0
DWIDTH 7 0
BBX 5 11 1 -1
BITMAP
1AD700
8FFF30
9FFF40
2DFA00
001000
000000
002000
3EFB00
9FFF40
7FFF20
19C600
ENDCHAR
STARTCHAR semicolon
ENCODING 59
SWIDTH 276 0
DWIDTH 7 0
BBX 5 13 1 -3
BITMAP
1AD700
8FFF30
9FFF40
2DFA00
001000
000000
012000
3EFB00
9FFF40
8FFF40
19FF10
05FB00
05D200
ENDCHAR
STARTCHAR less
ENCODING 60
SWIDTH 478 0
DWIDTH 11 0
BBX 11 15 0 2
BITMAP
000000020000
0000002DA000
000002DFFB00
00001DFFFC10
0001DFFFC100
001CFFFC1000
01CFFFC10000
1BFFFC100000
1BFFFE400000
00AFFFF50000
0009FFFF6000
00008FFFF800
000007FFFD10
0000007FE300
000000064000
ENDCHAR
STARTCHAR equal
ENCODING 61
SWIDTH 539 0
DWIDTH 13 0
BBX 11 9 1 4
BITMAP
377777777730
7FFFFFFFFF60
7FFFFFFFFF60
5BBBBBBBBB40
000000000000
5AAAAAAAAA40
7FFFFFFFFF60
7FFFFFFFFF60
488888888830
ENDCHAR
STARTCHAR greater
ENCODING 62
SWIDTH 478 0
DWIDTH 11 0
BBX 10 15 1 2
BITMAP
0020000000
04E7000000
4FFF700000
6FFFF60000
06FFFF6000
006FFFF500
0006FFFF50
00006FFFF5
0000AFFFE4
001BFFFE30
02CFFFE300
2DFFFD2000
7FFFD20000
09FC100000
0081000000
ENDCHAR
STARTCHAR question
ENCODING 63
SWIDTH 603 0
DWIDTH 14 0
BBX 14 18 0 -1
BITMAP
1CCCCCCCCB6000
1FFFFFFFFFFD20
1FFFFFFFFFFFC0
188888889CFFF5
0000000000DFF9
0000000000BFFA
0000000016FFF7
0000018EFFFFF2
00001CFFFFFF70
00009FFFFFD500
0000EFFC530000
0002FFF4000000
0002DDD2000000
00000200000000
0001DFD1000000
0006FFF7000000
0005FFF5000000
00007C80000000
ENDCHAR
STARTCHAR at
ENCODING 64
SWIDTH 629 0
DWIDTH 15 0
BBX 15 14 0 -1
BITMAP
000039DEDA500000
0009FFFFFFFB1000
009FFD756BFFC100
04FF901358AFF800
0BFD08FFFF88FE00
0EF64FFFFF82FF30
1FF37FB0BF80EF40
0FF46FE7EFA3FF30
0CF91EFFFFFFFF10
07FF329BABBBB700
00CFE60000000000
002DFFECD1000000
00019FFFF5000000
0000015662000000
ENDCHAR
STARTCHAR A
ENCODING 65
SWIDTH 673 0
DWIDTH 16 0
BBX 14 17 1 0
BITMAP
000049BCA50000
001BFFFFFFC300
01DFFFFFFFFE20
0AFFFEA9DFFFC0
2FFFC1001AFFF5
7FFF200001DFFA
9FFC0000009FFC
9FFB0000008FFC
9FFB0000008FFC
9FFB0000008FFC
9FFEBBBBBBDFFC
9FFFFFFFFFFFFC
9FFFFFFFFFFFFC
9FFEAAAAAADFFC
9FFB0000008FFC
9FFB0000008FFC
9FFB0000008FFC
ENDCHAR
STARTCHAR B
ENCODING 66
SWIDTH 666 0
DWIDTH 16 0
BBX 14 17 1 0
BITMAP
5CCCCCCCCB8200
7FFFFFFFFFFE50
7FFFFFFFFFFFF3
7FFF88888BFFFA
7FFE0000009FFE
7FFE0000006FFE
7FFE111113DFFB
7FFFFFFFFFFFF4
7FFFFFFFFFFF80
7FFFFFFFFFFFE3
7FFE444446EFFA
7FFE0000007FFE
7FFE0000008FFE
7FFE555557EFFB
7FFFFFFFFFFFF4
7FFFFFFFFFFF70
7FFFFFFFFEB400
ENDCHAR
STARTCHAR C
ENCODING 67
SWIDTH 640 0
DWIDTH 15 0
BBX 15 18 0 -1
BITMAP
0000028CFFEB6100
00007FFFFFFFFE50
000AFFFFFFFFFFB0
008FFFFA657CFF20
04FFFD3000006700
0AFFE20000000000
1FFF700000000000
4FFF200000000000
5FFF000000000000
5FFF100000000000
2FFF500000000000
0CFFC00000000000
06FFFA0000002400
00CFFFC51027ED00
002EFFFFFFFFFF80
0002CFFFFFFFFF90
000006CFFFFFB400
0000000255410000
ENDCHAR
STARTCHAR D
ENCODING 68
SWIDTH 653 0
DWIDTH 16 0
BBX 14 17 1 0
BITMAP
5CCCCCB9300000
7FFFFFFFFC3000
7FFFFFFFFFF500
7FFF89AEFFFF30
7FFE00018FFFD0
7FFE000007FFF5
7FFE000000CFFB
7FFE0000007FFE
7FFE0000006FFF
7FFE0000007FFE
7FFE000000BFFC
7FFE000004FFF7
7FFE00004EFFE1
7FFF557BFFFF50
7FFFFFFFFFF800
7FFFFFFFFE5000
7FFFFFEC610000
ENDCHAR
STARTCHAR E
ENCODING 69
SWIDTH 578 0
DWIDTH 14 0
BBX 13 17 1 0
BITMAP
5CCCCCCCCCCC10
7FFFFFFFFFFF10
7FFFFFFFFFFF10
7FFF8888888810
7FFE0000000000
7FFE0000000000
7FFE1111100000
7FFFFFFFF70000
7FFFFFFFF70000
7FFFFFFFF70000
7FFE4444420000
7FFE0000000000
7FFE0000000000
7FFE5555555500
7FFFFFFFFFFF10
7FFFFFFFFFFF10
7FFFFFFFFFFF10
ENDCHAR
STARTCHAR F
ENCODING 70
SWIDTH 562 0
DWIDTH 13 0
BBX 13 17 1 0
BITMAP
5CCCCCCCCCCC40
7FFFFFFFFFFF50
7FFFFFFFFFFF50
7FFF8888888830
7FFE0000000000
7FFE0000000000
7FFE1111100000
7FFFFFFFF00000
7FFFFFFFF00000
7FFFFFFFF00000
7FFE4444400000
7FFE0000000000
7FFE0000000000
7FFE0000000000
7FFE0000000000
7FFE0000000000
7FFE0000000000
ENDCHAR
STARTCHAR G
ENCODING 71
SWIDTH 665 0
DWIDTH 16 0
BBX 15 18 0 -1
BITMAP
0000017CEFDA5000
00007FFFFFFFFD40
000AFFFFFFFFFFA0
008FFFFA668DFE20
04FFFD3000007700
0AFFE20000000000
1FFF700000000000
4FFF200000000000
5FFF000000025550
5FFF10000005FFE0
2FFF50000005FFE0
0CFFC0000005FFE0
06FFF9000005FFE0
00CFFFC51029FFE0
002EFFFFFFFFFFE0
0002CFFFFFFFFF90
000006CFFFFFB400
0000000255410000
ENDCHAR
STARTCHAR H
ENCODING 72
SWIDTH 689 0
DWIDTH 17 0
BBX 14 17 1 0
BITMAP
5CCB0000004CCC
7FFE0000005FFF
7FFE0000005FFF
7FFE0000005FFF
7FFE0000005FFF
7FFE0000005FFF
7FFE1111116FFF
7FFFFFFFFFFFFF
7FFFFFFFFFFFFF
7FFFFFFFFFFFFF
7FFE4444448FFF
7FFE0000005FFF
7FFE0000005FFF
7FFE0000005FFF
7FFE0000005FFF
7FFE0000005FFF
7FFE0000005FFF
ENDCHAR
STARTCHAR I
ENCODING 73
SWIDTH 270 0
DWIDTH 6 0
BBX 4 17 1 0
BITMAP
5CCB
7FFE
7FFE
7FFE
7FFE
7FFE
7FFE
7FFE
7FFE
7FFE
7FFE
7FFE
7FFE
7FFE
7FFE
7FFE
7FFE
ENDCHAR
STARTCHAR J
ENCODING 74
SWIDTH 416 0
DWIDTH 10 0
BBX 9 17 0 0
BITMAP
000009CC80
00000BFFA0
00000BFFA0
00000BFFA0
00000BFFA0
00000BFFA0
00000BFFA0
00000BFFA0
00000BFFA0
00000BFFA0
00000BFF90
00001EFF80
00009FFF30
867CFFFC00
CFFFFFE200
CFFFFD3000
AEEC710000
ENDCHAR
STARTCHAR K
ENCODING 75
SWIDTH 625 0
DWIDTH 15 0
BBX 14 17 1 0
BITMAP
5CCB000002CCC8
7FFE00000CFFE2
7FFE00008FFF40
7FFE0004FFF800
7FFE002EFFB000
7FFE00BFFE2000
7FFE08FFF40000
7FFE4FFFD00000
7FFEEFFFF50000
7FFFFFFFFD0000
7FFFFF9FFF7000
7FFFF80CFFE100
7FFFB004FFF800
7FFF2000BFFF20
7FFE00003FFFA0
7FFE000009FFF3
7FFE000002FFFB
ENDCHAR
STARTCHAR L
ENCODING 76
SWIDTH 562 0
DWIDTH 14 0
BBX 13 17 1 0
BITMAP
5CCB0000000000
7FFE0000000000
7FFE0000000000
7FFE0000000000
7FFE0000000000
7FFE0000000000
7FFE0000000000
7FFE0000000000
7FFE0000000000
7FFE0000000000
7FFE0000000000
7FFE0000000000
7FFE0000000000
7FFE5555555520
7FFFFFFFFFFF50
7FFFFFFFFFFF50
7FFFFFFFFFFF50
ENDCHAR
STARTCHAR M
ENCODING 77
SWIDTH 819 0
DWIDTH 20 0
BBX 18 17 1 0
BITMAP
0029EFE913BFFD7000
03EFFFFFEFFFFFFB00
0DFFFFFFFFFFFFFF80
5FFFA6BFFFF86DFFE0
8FFE000EFFA004FFF3
8FFC000DFF8002FFF4
8FFC000DFF8002FFF4
8FFC000DFF8002FFF4
8FFC000DFF8002FFF4
8FFC000DFF8002FFF4
8FFC000DFF8002FFF4
8FFC000DFF8002FFF4
8FFC000DFF8002FFF4
8FFC000DFF8002FFF4
8FFC000DFF8002FFF4
8FFC000DFF8002FFF4
8FFC000DFF8002FFF4
ENDCHAR
STARTCHAR N
ENCODING 78
SWIDTH 689 0
DWIDTH 17 0
BBX 14 17 1 0
BITMAP
5CCC5000004CCC
7FFFD100005FFF
7FFFF800005FFF
7FFFFF20005FFF
7FFFFFA0005FFF
7FFFFFF4005FFF
7FFEBFFC005FFF
7FFE3FFF705FFF
7FFE09FFE15FFF
7FFE01EFF95FFF
7FFE006FFF8FFF
7FFE000CFFFFFF
7FFE0004FFFFFF
7FFE0000AFFFFF
7FFE00002EFFFF
7FFE000007FFFF
7FFE000000DFFF
ENDCHAR
STARTCHAR O
ENCODING 79
SWIDTH 777 0
DWIDTH 19 0
BBX 18 18 0 -1
BITMAP
0000017CEFEB500000
00007FFFFFFFFD4000
000AFFFFFFFFFFF600
008FFFFA657CFFFF40
04FFFD3000006FFFD0
0AFFE200000006FFF5
1FFF7000000000CFFB
4FFF20000000007FFE
5FFF00000000005FFF
5FFF10000000006FFF
2FFF5000000000AFFC
0CFFC000000003FFF7
06FFFA0000002DFFF1
00CFFFC51027EFFF70
002EFFFFFFFFFFFB00
0002CFFFFFFFFF9000
000006CFFFFFA40000
000000025541000000
ENDCHAR
STARTCHAR P
ENCODING 80
SWIDTH 642 0
DWIDTH 15 0
BBX 14 17 1 0
BITMAP
5CCCCCCCA60000
7FFFFFFFFFE400
7FFFFFFFFFFF40
7FFF8889CFFFE1
7FFE000007FFF7
7FFE000000BFFC
7FFE0000006FFE
7FFE0000007FFE
7FFE000000CFFC
7FFE000019FFF7
7FFFBBBBEFFFD1
7FFFFFFFFFFE30
7FFFFFFFFFC200
7FFFAAA9830000
7FFE0000000000
7FFE0000000000
7FFE0000000000
ENDCHAR
STARTCHAR Q
ENCODING 81
SWIDTH 777 0
DWIDTH 19 0
BBX 18 21 0 -4
BITMAP
0000017CEFEB500000
00007FFFFFFFFD4000
000AFFFFFFFFFFF600
008FFFFA657CFFFF40
04FFFD3000006FFFD0
0AFFE200000006FFF5
1FFF7000000000CFFB
4FFF20000000007FFE
5FFF00000000005FFF
5FFF10000000006FFF
2FFF5000000000AFFC
0CFFC000000003FFF8
06FFFA0000002DFFF2
00CFFFC51027EFFF80
002EFFFFFFFFFFFB00
0002CFFFFFFFFFA100
000006CFFFFFF70000
0000000255DFFC0000
00000000004FFF8000
000000000009FFF300
000000000001555400
ENDCHAR
STARTCHAR R
ENCODING 82
SWIDTH 651 0
DWIDTH 16 0
BBX 14 17 1 0
BITMAP
5CCCCCCCA60000
7FFFFFFFFFE400
7FFFFFFFFFFF40
7FFF8889CFFFE1
7FFE000007FFF7
7FFE000000BFFC
7FFE0000006FFE
7FFE0000007FFE
7FFE000000CFFC
7FFE000019FFF6
7FFFBBBBEFFFD1
7FFFFFFFFFFE30
7FFFFFFFFFF200
7FFFA99BFFF400
7FFE0000EFFA00
7FFE00007FFF10
7FFE00001FFF80
ENDCHAR
STARTCHAR S
ENCODING 83
SWIDTH 610 0
DWIDTH 15 0
BBX 14 17 0 0
BITMAP
0005ACCCCCCCC4
00AFFFFFFFFFF5
09FFFFFFFFFFF5
2FFFE988888883
5FFF2000000000
6FFF0000000000
4FFF9211100000
0DFFFFFFFFC600
03EFFFFFFFFF90
003CFFFFFFFFF5
0000244446EFFC
00000000007FFF
00000000007FFE
0355555557EFFB
07FFFFFFFFFFF5
07FFFFFFFFFF80
07FFFFFFFEB400
ENDCHAR
STARTCHAR T
ENCODING 84
SWIDTH 578 0
DWIDTH 14 0
BBX 14 17 0 0
BITMAP
ACCCCCCCCCCCC8
CFFFFFFFFFFFFA
CFFFFFFFFFFFFA
78888DFFC88886
00000BFF900000
00000BFF900000
00000BFF900000
00000BFF900000
00000BFF900000
00000BFF900000
00000BFF900000
00000BFF900000
00000BFF900000
00000BFF900000
00000BFF900000
00000BFF900000
00000BFF900000
ENDCHAR
STARTCHAR U
ENCODING 85
SWIDTH 673 0
DWIDTH 16 0
BBX 14 17 1 0
BITMAP
8CC90000007CCA
9FFB0000008FFC
9FFB0000008FFC
9FFB0000008FFC
9FFB0000008FFC
9FFB0000008FFC
9FFB0000008FFC
9FFB0000008FFC
9FFB0000008FFC
9FFB0000008FFC
9FFB0000009FFC
7FFE100000CFFA
3FFF900007FFF6
0CFFFC76BFFFE1
02EFFFFFFFFF40
003DFFFFFFE500
00017CEEC81000
ENDCHAR
STARTCHAR V
ENCODING 86
SWIDTH 602 0
DWIDTH 14 0
BBX 15 17 0 0
BITMAP
ACCC0000007CCC30
8FFF400000DFFE00
3FFF800002FFFA00
0DFFD00006FFF500
08FFF2000BFFE100
04FFF6001FFFA000
00EFFB005FFF5000
009FFF109FFE1000
004FFF50EFFA0000
000EFF93FFF50000
0009FFE8FFF10000
0004FFFEFFA00000
0000EFFFFF500000
00009FFFFF100000
00005FFFFB000000
00000EFFF6000000
00000AFFF1000000
ENDCHAR
STARTCHAR W
ENCODING 87
SWIDTH 819 0
DWIDTH 20 0
BBX 18 18 1 -1
BITMAP
7CCA000ACC6001CCC3
8FFC000DFF8002FFF4
8FFC000DFF8002FFF4
8FFC000DFF8002FFF4
8FFC000DFF8002FFF4
8FFC000DFF8002FFF4
8FFC000DFF8002FFF4
8FFC000DFF8002FFF4
8FFC000DFF8002FFF4
8FFC000DFF8002FFF4
8FFC000DFF8002FFF4
8FFC000DFF8002FFF4
8FFD000EFF9003FFF3
6FFF738FFFE53BFFF1
1EFFFFFFFFFFFFFFA0
05FFFFFFFFFFFFFD10
004CFFFC36EFFFA100
000023200002310000
ENDCHAR
STARTCHAR X
ENCODING 88
SWIDTH 608 0
DWIDTH 15 0
BBX 15 17 0 0
BITMAP
9CCC4000009CCC40
3FFFC00004FFFC00
09FFF7000CFFF300
01EFFE107FFF9000
005FFF91EFFE1000
000BFFFCFFF50000
0002FFFFFFB00000
00008FFFFF200000
00001EFFF9000000
00006FFFFE100000
0001EFFFFF900000
0009FFFDFFF40000
004FFFB3FFFC0000
00CFFF208FFF7000
07FFF8001EFFE200
2EFFE10005FFFA00
AFFF500000BFFF40
ENDCHAR
STARTCHAR Y
ENCODING 89
SWIDTH 620 0
DWIDTH 15 0
BBX 15 17 0 0
BITMAP
3CCC1000002CCC20
4FFF1000003FFF20
4FFF1000003FFF20
4FFF1000003FFF20
4FFF1000003FFF20
4FFF2000003FFF20
2FFF5000007FFF00
0DFFE20003EFFB00
06FFFE869FFFF400
00AFFFFFFFFF9000
0009FFFFFFF80000
00004AFFFA300000
000004FFF2000000
000004FFF2000000
000004FFF2000000
000004FFF2000000
000004FFF2000000
ENDCHAR
STARTCHAR Z
ENCODING 90
SWIDTH 586 0
DWIDTH 14 0
BBX 14 17 0 0
BITMAP
6CCCCCCCCCCCC4
7FFFFFFFFFFFD0
7FFFFFFFFFFF50
4888888BFFFC00
0000000CFFF400
0000005FFFB000
000000DFFF3000
000006FFFA0000
00000DFFF20000
00007FFF900000
0001EFFF200000
0008FFF8000000
001EFFE1000000
009FFFB5555553
02FFFFFFFFFFF8
0AFFFFFFFFFFF8
3FFFFFFFFFFFF8
ENDCHAR
STARTCHAR bracketleft
ENCODING 91
SWIDTH 380 0
DWIDTH 9 0
BBX 8 23 1 -3
BITMAP
13333331
7FFFFFF4
7FFFFFF4
7FFFFFF4
7FFE2221
7FFE0000
7FFE0000
7FFE0000
7FFE0000
7FFE0000
7FFE0000
7FFE0000
7FFE0000
7FFE0000
7FFE0000
7FFE0000
7FFE0000
7FFE0000
7FFE0000
7FFFFFF4
7FFFFFF4
7FFFFFF4
36666662
ENDCHAR
STARTCHAR backslash
ENCODING 92
SWIDTH 490 0
DWIDTH 12 0
BBX 11 17 0 0
BITMAP
2CCC40000000
0CFFA0000000
06FFF1000000
00EFF7000000
008FFD000000
002FFF500000
000BFFB00000
0005FFF20000
0000DFF90000
00007FFE1000
00001FFF6000
00000AFFC000
000004FFF300
000000CFFA00
0000006FFF10
0000001EFF70
00000009FFD0
ENDCHAR
STARTCHAR bracketright
ENCODING 93
SWIDTH 380 0
DWIDTH 9 0
BBX 8 23 0 -3
BITMAP
03333332
2FFFFFF9
2FFFFFF9
2FFFFFF9
0222CFF9
0000BFF9
0000BFF9
0000BFF9
0000BFF9
0000BFF9
0000BFF9
0000BFF9
0000BFF9
0000BFF9
0000BFF9
0000BFF9
0000BFF9
0000BFF9
0000BFF9
2FFFFFF9
2FFFFFF9
2FFFFFF9
16666664
ENDCHAR
STARTCHAR asciicircum
ENCODING 94
SWIDTH 293 0
DWIDTH 7 0
BBX 7 6 0 11
BITMAP
00191000
01CFC100
2DFFFD20
BFFAFFC0
2E605E40
01000100
ENDCHAR
STARTCHAR underscore
ENCODING 95
SWIDTH 598 0
DWIDTH 14 0
BBX 11 4 2 -6
BITMAP
799999999910
BFFFFFFFFF10
BFFFFFFFFF10
799999999910
ENDCHAR
STARTCHAR grave
ENCODING 96
SWIDTH 225 0
DWIDTH 5 0
BBX 6 5 0 12
BITMAP
044000
2EF500
BFFF60
19FFF3
003CA0
ENDCHAR
STARTCHAR a
ENCODING 97
SWIDTH 607 0
DWIDTH 15 0
BBX 14 14 0 -1
BITMAP
00018DFEB50053
004EFFFFFFB5F6
02EFFFFFFFFFF6
0BFFF944BFFFF6
2FFF70000AFFF6
5FFF000001FFF6
6FFD000000DFF6
6FFE000000EFF6
3FFF500007FFF6
0DFFE5117FFFF6
05FFFFFFFFFFF6
008FFFFFFFD9F6
0004CFFFE810B6
00000132000000
ENDCHAR
STARTCHAR b
ENCODING 98
SWIDTH 597 0
DWIDTH 14 0
BBX 13 19 1 -1
BITMAP
88810000000000
FFF30000000000
FFF30000000000
FFF30000000000
FFF30000000000
FFF49EFEA30000
FFFEFFFFFF7000
FFFFFFFFFFF600
FFFFD637EFFE10
FFFE10003FFF70
FFF600000AFFA0
FFF4000007FFB0
EFF5000009FFB0
BFFC00001EFF80
6FFFA214CFFF30
0CFFFFFFFFF900
02DFFFFFFFB000
0018EFFFD60000
00000232000000
ENDCHAR
STARTCHAR c
ENCODING 99
SWIDTH 521 0
DWIDTH 13 0
BBX 12 14 0 -1
BITMAP
00017CFEC600
002DFFFFFFC2
01EFFFFFFFFC
0AFFFA44AFF9
1FFF80000A90
5FFF10000100
7FFD00000000
6FFE00000000
3FFF40000530
0DFFE6116FE3
04FFFFFFFFFE
006FFFFFFFE5
0003BFFFFA20
000001331000
ENDCHAR
STARTCHAR d
ENCODING 100
SWIDTH 606 0
DWIDTH 15 0
BBX 14 19 0 -1
BITMAP
00000000007883
0000000000DFF5
0000000000DFF5
0000000000DFF5
0000000000DFF5
00018DFFC4DFF5
004EFFFFFFFFF5
02EFFFFFFFFFF5
0BFFF944BFFFF5
2FFF70000AFFF5
5FFE000002FFF5
7FFC000000EFF5
6FFE000001FFF5
3FFF600008FFF5
0DFFE6118FFFF5
04FFFFFFFFFFF5
006FFFFFFFD9F5
0003BFFFE810C5
00000132000000
ENDCHAR
STARTCHAR e
ENCODING 101
SWIDTH 524 0
DWIDTH 13 0
BBX 13 14 0 -1
BITMAP
00018DFEC71000
004EFFFFFFD300
03EFFFFFFFFE10
0BFFF948FFF800
2FFF702EFFB000
5FFF00BFFD1000
6FFC08FFE20000
6FFD4FFF400000
3FFFEFF6053000
0CFFFF916EE300
04FFFFFFFFFE10
006FFFFFFFE500
0003BFFFFA2000
00000133100000
ENDCHAR
STARTCHAR f
ENCODING 102
SWIDTH 395 0
DWIDTH 10 0
BBX 11 19 0 0
BITMAP
0000049BBB10
0001AFFFFF20
000BFFFFFF20
005FFFC87710
00BFFB000000
00DFF5000000
48EFFA888200
7FFFFFFFF300
7FFFFFFFF300
4AFFFBAAA200
00EFF4000000
00EFF4000000
00EFF4000000
00EFF4000000
00EFF4000000
00EFF4000000
00EFF4000000
00EFF4000000
00EFF4000000
ENDCHAR
STARTCHAR g
ENCODING 103
SWIDTH 607 0
DWIDTH 15 0
BBX 14 18 0 -5
BITMAP
00018DFEB50053
003EFFFFFFB5F6
02EFFFFFFFFFF6
0BFFF944BFFFF6
2FFF70000AFFF6
5FFF000001FFF6
6FFD000000DFF6
6FFE000000EFF6
3FFF500007FFF6
0DFFE6117FFFF6
05FFFFFFFFFFF6
007FFFFFFFFFF5
0004BFFFFBFFF4
0000013319FFE0
00000467BFFF80
00000AFFFFFC10
00000AFFFFB100
000008CB940000
ENDCHAR
STARTCHAR h
ENCODING 104
SWIDTH 562 0
DWIDTH 13 0
BBX 12 18 1 0
BITMAP
688300000000
CFF600000000
CFF600000000
CFF600000000
CFF600000000
CFF88BB82000
CFFFFFFFF600
CFFFFFFFFF50
CFFFD79EFFD0
CFFD1003FFF4
CFF70000DFF6
CFF60000CFF7
CFF60000CFF7
CFF60000CFF7
CFF60000CFF7
CFF60000CFF7
CFF60000CFF7
CFF60000CFF7
ENDCHAR
STARTCHAR i
ENCODING 105
SWIDTH 235 0
DWIDTH 6 0
BBX 5 18 0 0
BITMAP
08FE40
3FFFD0
3FFFE0
09FE50
001100
068840
0CFF70
0CFF70
0CFF70
0CFF70
0CFF70
0CFF70
0CFF70
0CFF70
0CFF70
0CFF70
0CFF70
0CFF70
ENDCHAR
STARTCHAR j
ENCODING 106
SWIDTH 237 0
DWIDTH 6 0
BBX 9 23 -4 -5
BITMAP
000007FE50
00002FFFE0
00002FFFE0
000009FF60
0000001100
0000068840
00000BFF80
00000BFF80
00000BFF80
00000BFF80
00000BFF80
00000BFF80
00000BFF80
00000BFF80
00000BFF80
00000BFF80
00000CFF70
00001EFF50
00009FFF10
467CFFF900
8FFFFFD100
8FFFFB1000
6CB9400000
ENDCHAR
STARTCHAR k
ENCODING 107
SWIDTH 539 0
DWIDTH 13 0
BBX 12 18 1 0
BITMAP
688400000000
CFF700000000
CFF700000000
CFF700000000
CFF700000000
CFF700008885
CFF70009FFE2
CFF7006FFF40
CFF703FFF700
CFF71DFFA000
CFF7BFFE1000
CFFDFFFF3000
CFFFFFFFB000
CFFFFCFFF500
CFFFC1BFFD00
CFFE203FFF70
CFF70009FFE1
CFF70002EFF9
ENDCHAR
STARTCHAR l
ENCODING 108
SWIDTH 235 0
DWIDTH 6 0
BBX 4 18 1 0
BITMAP
6884
CFF7
CFF7
CFF7
CFF7
CFF7
CFF7
CFF7
CFF7
CFF7
CFF7
CFF7
CFF7
CFF7
CFF7
CFF7
CFF7
CFF7
ENDCHAR
STARTCHAR m
ENCODING 109
SWIDTH 762 0
DWIDTH 18 0
BBX 17 13 1 0
BITMAP
6217BB8105AB940000
CDEFFFFDAFFFFF9000
CFFFFFFFFFFFFFF700
CFFF88FFFFB7DFFE00
CFF8008FFE002FFF20
CFF6006FFC000FFF30
CFF6006FFC000FFF30
CFF6006FFC000FFF30
CFF6006FFC000FFF30
CFF6006FFC000FFF30
CFF6006FFC000FFF30
CFF6006FFC000FFF30
CFF6006FFC000FFF30
ENDCHAR
STARTCHAR n
ENCODING 110
SWIDTH 562 0
DWIDTH 13 0
BBX 12 13 1 0
BITMAP
62049BB82000
CDAFFFFFF600
CFFFFFFFFF50
CFFFD79EFFD0
CFFD1003FFF4
CFF70000DFF6
CFF60000CFF7
CFF60000CFF7
CFF60000CFF7
CFF60000CFF7
CFF60000CFF7
CFF60000CFF7
CFF60000CFF7
ENDCHAR
STARTCHAR o
ENCODING 111
SWIDTH 579 0
DWIDTH 14 0
BBX 14 14 0 -1
BITMAP
00018DFFC71000
004EFFFFFFD300
02EFFFFFFFFE20
0BFFF945AFFFA0
2FFF700009FFF1
5FFE000001FFF4
7FFC000000EFF5
6FFE000001FFF4
3FFF500007FFF1
0CFFE6117FFFA0
04FFFFFFFFFE20
006FFFFFFFE400
0003BFFFFA2000
00000133100000
ENDCHAR
STARTCHAR p
ENCODING 112
SWIDTH 608 0
DWIDTH 15 0
BBX 14 18 1 -5
BITMAP
62018DFEB50000
CC5EFFFFFFB100
CFFFFFFFFFFB00
CFFFE745CFFF50
CFFF30000CFFB0
CFFA000005FFE0
CFF8000002FFF1
CFF9000004FFF0
CFFE10000BFFC0
CFFFC4129FFF70
CFFFFFFFFFFD10
CFFFFFFFFFE300
CFF9AFFFE92000
CFF70143000000
CFF70000000000
CFF70000000000
CFF70000000000
9CC50000000000
ENDCHAR
STARTCHAR q
ENCODING 113
SWIDTH 607 0
DWIDTH 15 0
BBX 14 18 0 -5
BITMAP
00018CFEB50053
004EFFFFFFB5F6
03EFFFFFFFFFF6
0BFFF944BFFFF6
2FFF70000AFFF6
5FFF000001FFF6
6FFD000000DFF6
6FFE000000EFF6
3FFF500007FFF6
0DFFE5117FFFF6
04FFFFFFFFFFF6
007FFFFFFFFFF6
0004BFFFE8DFF6
0000013300DFF6
0000000000DFF6
0000000000DFF6
0000000000DFF6
0000000000ACC4
ENDCHAR
STARTCHAR r
ENCODING 114
SWIDTH 414 0
DWIDTH 10 0
BBX 9 13 1 0
BITMAP
6201578850
CB6EFFFFA0
CFFFFFFFA0
CFFFEBAA70
CFFE200000
CFF8000000
CFF6000000
CFF6000000
CFF6000000
CFF6000000
CFF6000000
CFF6000000
CFF6000000
ENDCHAR
STARTCHAR s
ENCODING 115
SWIDTH 523 0
DWIDTH 13 0
BBX 13 13 0 0
BITMAP
00048888888200
01BFFFFFFFF400
09FFFFFFFFF400
1FFFCAAAAAA300
3FFF1000000000
1FFFDBBBA71000
09FFFFFFFFD200
01AFFFFFFFFB00
000377779FFF10
133333337FFF10
3FFFFFFFFFFB00
3FFFFFFFFFE300
3FFFFFFFEB2000
ENDCHAR
STARTCHAR t
ENCODING 116
SWIDTH 437 0
DWIDTH 11 0
BBX 10 18 0 0
BITMAP
0188810000
01FFF10000
01FFF10000
01FFF10000
01FFF10000
59FFF98887
AFFFFFFFFE
AFFFFFFFFE
6AFFFAAAA9
01FFF10000
01FFF10000
01FFF10000
01FFF20000
00EFF60000
00AFFE7333
002EFFFFFE
0005EFFFFE
000029DFFE
ENDCHAR
STARTCHAR u
ENCODING 117
SWIDTH 562 0
DWIDTH 13 0
BBX 12 14 1 -1
BITMAP
888200008882
EFF40000EFF4
EFF40000EFF4
EFF40000EFF4
EFF40000EFF4
EFF40000EFF4
EFF40000EFF4
EFF40000EFF4
DFF70003FFF4
9FFE403DFFF4
2FFFFFFFFFF4
06FFFFFFFCF4
004CFFFC41C4
000013200000
ENDCHAR
STARTCHAR v
ENCODING 118
SWIDTH 532 0
DWIDTH 13 0
BBX 13 13 0 0
BITMAP
78860000088860
9FFE10004FFF60
3FFF50009FFE10
0DFFB000EFF900
07FFF104FFF400
01FFF60AFFD000
00AFFB1EFF7000
005FFF7FFF2000
000EFFFFFB0000
0008FFFFF50000
0003FFFFE00000
0000CFFF900000
00006FFF300000
ENDCHAR
STARTCHAR w
ENCODING 119
SWIDTH 756 0
DWIDTH 18 0
BBX 17 14 1 -1
BITMAP
788200488500188800
DFF4008FFA002FFF10
DFF4008FFA002FFF10
DFF4008FFA002FFF10
DFF4008FFA002FFF10
DFF4008FFA002FFF10
DFF4008FFA002FFF10
DFF4008FFA002FFF10
DFF5008FFB002FFF10
BFFB12DFFE309FFE00
6FFFFFFFFFFFFFF900
0BFFFFFFFFFFFFD100
019FFFE65DFFFA1000
000133000023100000
ENDCHAR
STARTCHAR x
ENCODING 120
SWIDTH 528 0
DWIDTH 13 0
BBX 13 13 0 0
BITMAP
89991000399950
4FFF9001DFFD10
08FFF509FFF300
00BFFE6FFF7000
002EFFFFFB0000
0004FFFFD10000
0000AFFF600000
0003FFFFC00000
001DFFFFF90000
009FFF8FFF4000
04FFF70BFFE100
1EFFC002FFFB00
BFFF30007FFF60
ENDCHAR
STARTCHAR y
ENCODING 121
SWIDTH 562 0
DWIDTH 14 0
BBX 12 18 1 -5
BITMAP
888200008882
EFF40000EFF4
EFF40000EFF4
EFF40000EFF4
EFF40000EFF4
EFF40000EFF4
EFF40000EFF4
EFF40000EFF4
DFF70003FFF4
9FFE403DFFF4
2FFFFFFFFFF4
06FFFFFFFFF4
004CFFFDFFF3
0000132BFFE0
000567DFFF70
000BFFFFFB00
000BFFFFA100
0009CB930000
ENDCHAR
STARTCHAR z
ENCODING 122
SWIDTH 481 0
DWIDTH 12 0
BBX 11 13 0 0
BITMAP
488888888870
7FFFFFFFFF60
7FFFFFFFFD00
4AAAABFFF500
00000AFFB000
00003FFF3000
0000CFF90000
0005FFE10000
000DFF700000
007FFE333330
01EFFFFFFFF0
09FFFFFFFFF0
3FFFFFFFFFF0
ENDCHAR
STARTCHAR braceleft
ENCODING 123
SWIDTH 466 0
DWIDTH 11 0
BBX 11 23 0 -3
BITMAP
000000233310
00003CFFFF50
0001DFFFFF50
0005FFFFFF50
0006FFF22210
0006FFF00000
0006FFF00000
0006FFF00000
0007FFE00000
235DFFB00000
8FFFFE300000
8FFFF5000000
8FFFFF400000
123DFFB00000
0007FFE00000
0006FFF00000
0006FFF00000
0006FFF00000
0006FFF00000
0005FFFFFF50
0001EFFFFF50
00004EFFFF50
000001566620
ENDCHAR
STARTCHAR bar
ENCODING 124
SWIDTH 267 0
DWIDTH 6 0
BBX 4 23 1 -3
BITMAP
1333
7FFE
7FFE
7FFE
7FFE
7FFE
7FFE
7FFE
7FFE
7FFE
7FFE
7FFE
7FFE
7FFE
7FFE
7FFE
7FFE
7FFE
7FFE
7FFE
7FFE
7FFE
3666
ENDCHAR
STARTCHAR braceright
ENCODING 125
SWIDTH 466 0
DWIDTH 11 0
BBX 11 23 0 -3
BITMAP
033330000000
2FFFFD400000
2FFFFFF20000
2FFFFFF80000
0222CFF90000
0000BFF90000
0000BFF90000
0000BFF90000
0000BFFA0000
00008FFE6320
00001DFFFFC0
000003FFFFC0
00002EFFFFC0
00008FFE5210
0000BFFA0000
0000BFF90000
0000BFF90000
0000BFF90000
0000BFF90000
2FFFFFF90000
2FFFFFF40000
2FFFFF700000
166652000000
ENDCHAR
STARTCHAR asciitilde
ENCODING 126
SWIDTH 451 0
DWIDTH 11 0
BBX 9 5 1 6
BITMAP
1AED60BE80
9FFFF8EFA0
CFFCFFFF80
AFD07FFD10
3650024100
ENDCHAR
STARTCHAR nonbreakingspace
ENCODING 160
SWIDTH 279 0
DWIDTH 7 0
BBX 1 1 0 0
BITMAP
00
ENDCHAR
STARTCHAR exclamdown
ENCODING 161
SWIDTH 274 0
DWIDTH 7 0
BBX 5 19 1 -4
BITMAP
013000
3EFB00
AFFF40
8FFF20
18B500
044200
1FFA00
2FFB00
2FFB00
3FFC00
4FFD00
5FFE00
6FFF00
7FFF10
8FFF20
8FFF20
9FFF30
AFFF40
466620
ENDCHAR
STARTCHAR cent
ENCODING 162
SWIDTH 462 0
DWIDTH 11 0
BBX 11 17 0 0
BITMAP
00000CC20000
00000FF20000
00000FF20000
0004BFFC5000
006FFFFFF800
03FFFBAEFE10
0AFF4002D300
0EFB00001000
1FF900000000
0EFC00003000
09FF9117F500
01EFFFFFFE10
002DFFFFE400
00005FF71000
00000FF20000
00000FF20000
00000FF20000
ENDCHAR
STARTCHAR sterling
ENCODING 163
SWIDTH 681 0
DWIDTH 16 0
BBX 15 17 1 0
BITMAP
000028BC60000000
0004EFFF80000000
002EFFFF80000000
009FFFB840000000
00DFF90000000000
00EFF60000000000
00EFF60000000000
89FFFB9700000000
DFFFFFFC00000000
DFFFFFFC00000000
89FFFB9700000000
00EFF60000011100
00EFF600000EFF70
00EFF95556BFFF40
00EFFFFFFFFFFC00
00EFFFFFFFFFD200
00EFFFFFFFD81000
ENDCHAR
STARTCHAR currency
ENCODING 164
SWIDTH 454 0
DWIDTH 11 0
BBX 11 10 0 3
BITMAP
05800100A400
2FFBEFECFE10
08FFFEFFF500
02FE304FF100
06F9000BF300
05FA000CF300
02FF516FE000
0BFFFFFFF800
1DF8BDB9FC10
015000006100
ENDCHAR
STARTCHAR yen
ENCODING 165
SWIDTH 653 0
DWIDTH 16 0
BBX 14 17 1 0
BITMAP
BCC6000000ACC7
DFF7000000CFF8
DFF7000000CFF8
DFF7000000CFF8
DFF7000000CFF8
DFF8000000CFF8
BFFC000002FFF6
6FFF70001BFFF2
1EFFFB77DFFFA0
03EFFFFFFFFD10
146EFFFFFFC430
4FFFFFFFFFFFF0
4FFFFFFFFFFFF0
4EEEEFFFFEEEE0
00000CFF800000
00000CFF800000
00000CFF800000
ENDCHAR
STARTCHAR brokenbar
ENCODING 166
SWIDTH 269 0
DWIDTH 6 0
BBX 4 23 1 -3
BITMAP
1333
7FFE
7FFE
7FFE
7FFE
7FFE
7FFE
7FFE
7FFE
7FFE
3666
0000
1333
7FFE
7FFE
7FFE
7FFE
7FFE
7FFE
7FFE
7FFE
7FFE
3666
ENDCHAR
STARTCHAR section
ENCODING 167
SWIDTH 569 0
DWIDTH 14 0
BBX 12 17 1 0
BITMAP
005BCCCCCC80
09FFFFFFFFA0
5FFFFFFFFFA0
AFFC66666640
AFFC66664000
6FFFFFFFFC20
2FFFFFFFFFD1
8FFFCCCCFFF6
AFF90000AFF8
9FFE9999EFF7
3FFFFFFFFFF2
06FFFFFFFFF3
00289999EFF7
23333333CFF8
BFFFFFFFFFF5
BFFFFFFFFFB0
BFFFFFFFE800
ENDCHAR
STARTCHAR dieresis
ENCODING 168
SWIDTH 300 0
DWIDTH 7 0
BBX 8 4 0 12
BITMAP
4A401850
EFE09FF2
BFB07FE1
14100420
ENDCHAR
STARTCHAR copyright
ENCODING 169
SWIDTH 655 0
DWIDTH 16 0
BBX 14 15 1 1
BITMAP
00000132000000
0004BFFFEA2000
009FFA88CFF500
08FB237724DF40
3FC1AFFFF52ED0
9F39F933A107F5
CD1FA0000002F9
EB4F60000000FA
DD2F80000001F9
AF2CE4005006F6
4FA2EFDDF61DE1
0AF818CB72BF60
01BFD7558EF800
0007EFFFFD5000
00000465300000
ENDCHAR
STARTCHAR ordfeminine
ENCODING 170
SWIDTH 451 0
DWIDTH 11 0
BBX 9 13 1 5
BITMAP
0001100000
01AFFC3910
0CFEEFFF10
6FC107FF10
9F6000EF10
9F6001FF10
5FD32AFF10
0AFFFFDF10
007CC81700
0000000000
5888888810
9FFFFFFF10
3555555500
ENDCHAR
STARTCHAR guillemotleft
ENCODING 171
SWIDTH 704 0
DWIDTH 17 0
BBX 16 13 0 0
BITMAP
0000001000000100
000003E500001C80
00002EFF6001CFF9
0002DFFD201CFFF4
002DFFD201BFFF40
02DFFE200BFFF400
1DFFE200BFFF4000
1CFFF500AFFF8000
01CFFF600AFFF900
001BFFF8009FFFA0
0000BFFF7008FFFA
00000AFC10007FE3
0000008200000640
ENDCHAR
STARTCHAR logicalnot
ENCODING 172
SWIDTH 529 0
DWIDTH 13 0
BBX 11 7 1 4
BITMAP
111111111100
9FFFFFFFFF40
9FFFFFFFFF40
9FFFFFFFFF40
1222222EFF40
0000000EFF40
000000077720
ENDCHAR
STARTCHAR uni00AD
ENCODING 173
SWIDTH 418 0
DWIDTH 10 0
BBX 8 5 1 6
BITMAP
11111111
8FFFFFFA
8FFFFFFA
8FFFFFFA
12222221
ENDCHAR
STARTCHAR registered
ENCODING 174
SWIDTH 439 0
DWIDTH 11 0
BBX 10 9 0 8
BITMAP
0008DEB400
01CC657E70
09B9EDC4F3
0E38709798
1F1871B779
0E38FFC0A7
07C972D5F2
00AD759E50
0005BC9200
ENDCHAR
STARTCHAR macron
ENCODING 175
SWIDTH 247 0
DWIDTH 6 0
BBX 6 4 0 12
BITMAP
555554
FFFFFE
FFFFFE
222222
ENDCHAR
STARTCHAR degree
ENCODING 176
SWIDTH 381 0
DWIDTH 9 0
BBX 9 8 0 9
BITMAP
0004640000
01BFFFC200
09FFFFFB00
1FFB29FF30
1FF604FF40
0EFE8DFF10
05FFFFF800
005DFD6000
ENDCHAR
STARTCHAR plusminus
ENCODING 177
SWIDTH 516 0
DWIDTH 12 0
BBX 11 13 1 0
BITMAP
0005CCA00000
0006FFC00000
1117FFC11100
BFFFFFFFFF20
BFFFFFFFFF20
BFFFFFFFFF20
1227FFD22200
0006FFC00000
000399700000
233333333300
BFFFFFFFFF20
BFFFFFFFFF20
AFFFFFFFFF20
ENDCHAR
STARTCHAR twosuperior
ENCODING 178
SWIDTH 355 0
DWIDTH 9 0
BBX 7 9 1 8
BITMAP
5CCCA200
6FFFFD10
3778FF40
06CDFF30
5FFFFA00
AFC64000
BFEDDD20
BFFFFF20
57777710
ENDCHAR
STARTCHAR threesuperior
ENCODING 179
SWIDTH 354 0
DWIDTH 9 0
BBX 7 9 1 8
BITMAP
8CCCA200
9FFFFE10
5888FF50
09DDFF50
0AFFFF20
0577FF60
8DDDFF40
9FFFFB00
47775000
ENDCHAR
STARTCHAR acute
ENCODING 180
SWIDTH 225 0
DWIDTH 5 0
BBX 6 6 0 11
BITMAP
001800
01CF70
2DFFF2
CFFD40
3E7000
010000
ENDCHAR
STARTCHAR mu
ENCODING 181
SWIDTH 571 0
DWIDTH 14 0
BBX 12 19 1 -6
BITMAP
488500004886
8FFA00008FFA
8FFA00008FFA
8FFA00008FFA
8FFA00008FFA
8FFA00008FFA
8FFA00008FFA
8FFA00008FFA
8FFD0000CFFA
8FFF9119FFFA
8FFFFFFFFFFA
8FFFFFFFFCFA
8FFCEFFE807A
8FF413300000
8FF300000000
8FF200000000
8FF100000000
8FF000000000
244000000000
ENDCHAR
STARTCHAR paragraph
ENCODING 182
SWIDTH 808 0
DWIDTH 19 0
BBX 17 17 1 0
BITMAP
00016ACCCCCCCCCC80
004EFFFFFFFFFFFFA0
05FFFFFFFFFFFFFFA0
2EFFFC9EFFC88DFFA0
9FFF600DFF700AFFA0
DFFA000DFF700AFFA0
FFF5000DFF700AFFA0
FFF5000DFF700AFFA0
DFFB000DFF700AFFA0
8FFF900DFF700AFFA0
1EFFFEBFFF700AFFA0
04FFFFFFFF700AFFA0
003CFFFFFF700AFFA0
0000489EFF700AFFA0
0000000DFF700AFFA0
0000000DFF700AFFA0
0000000DFF700AFFA0
ENDCHAR
STARTCHAR periodcentered
ENCODING 183
SWIDTH 261 0
DWIDTH 6 0
BBX 5 5 1 6
BITMAP
035000
7FFB00
CFFF10
9FFD00
178200
ENDCHAR
STARTCHAR cedilla
ENCODING 184
SWIDTH 208 0
DWIDTH 5 0
BBX 5 7 0 -6
BITMAP
008700
02F600
07FE50
138FE0
ACDFD0
BFFF60
046300
ENDCHAR
STARTCHAR onesuperior
ENCODING 185
SWIDTH 231 0
DWIDTH 6 0
BBX 4 9 1 8
BITMAP
BCC1
EFF2
8FF2
3FF2
3FF2
3FF2
3FF2
3FF2
1771
ENDCHAR
STARTCHAR ordmasculine
ENCODING 186
SWIDTH 432 0
DWIDTH 10 0
BBX 9 13 1 5
BITMAP
0001100000
01AFFD4000
0CFEEFF400
6FC107FC00
9F5000EF00
9F6001FE00
4FE42AFA00
0AFFFFE200
006CC91000
0000000000
6888888800
AFFFFFFF10
3555555500
ENDCHAR
STARTCHAR guillemotright
ENCODING 187
SWIDTH 703 0
DWIDTH 17 0
BBX 16 13 1 0
BITMAP
0010000001000000
0AB100007D200000
AFFB0007FFD10000
5FFFA003EFFC1000
05FFFA003EFFC100
005FFF9003EFFC10
0006FFF9003EFFB1
0009FFF9006FFFB1
00AFFF8008FFFA00
1BFFF7009FFFA000
BFFF6008FFF90000
4FF50002DF800000
0550000037000000
ENDCHAR
STARTCHAR onequarter
ENCODING 188
SWIDTH 648 0
DWIDTH 16 0
BBX 14 17 1 0
BITMAP
3CCA00002CC500
4FFC00009FD000
2CFC0003FF6000
08FC000BFC0000
08FC004FF40000
08FC00CFB00000
08FC05FF300000
08FC0DF9000000
04757FE3440000
0001EF85FF3870
0008FE17FD5FE0
002FF609FB5FE0
00AFD00BF85FE0
03FF500DFEDFF9
0BFC000FFFFFFA
5FF3001888AFF5
DFA00000005FE0
ENDCHAR
STARTCHAR onehalf
ENCODING 189
SWIDTH 637 0
DWIDTH 15 0
BBX 14 17 1 0
BITMAP
3CCA00002CC500
4FFC00009FD000
2CFC0003FF6000
08FC000BFC0000
08FC004FF40000
08FC00CFB00000
08FC05FF300000
08FC0DF9000000
04757FE3444200
0001EF85FFFF80
0008FE15FFFFF3
002FF600146FF5
00AFD001CFFFF2
03FF5007FFFD50
0BFC0009FC5551
5FF3000AFFFFF3
DFA0000AFFFFF3
ENDCHAR
STARTCHAR threequarters
ENCODING 190
SWIDTH 708 0
DWIDTH 17 0
BBX 16 17 1 0
BITMAP
BCCC8100008CB000
EFFFFA0003FF6000
788AFF100BFC0000
0DDEFE004FF40000
0FFFFC00CFB00000
0779FF15FF300000
CDDEFE1DFA000000
EFFFF67FF2000000
677631EF83420000
000008FE1DF77830
00002FF70FF5DF60
0000AFD02FF2DF60
0003FF504FF0DF60
000BFC006FFCFFD2
005FF4008FFFFFF2
00DFA0005888EFB1
06FF20000000DF60
ENDCHAR
STARTCHAR questiondown
ENCODING 191
SWIDTH 602 0
DWIDTH 14 0
BBX 14 19 0 -4
BITMAP
00000000220000
00000007FF6000
0000000EFFE000
0000000DFFC000
00000003AA2000
00000003443000
0000000BFFA000
0000001DFF8000
00027ADFFF5000
006FFFFFFC0000
04FFFFFFC20000
0CFFFB95000000
2FFF7000000000
3FFF3000000000
1FFFA100000000
0AFFFFFFFFFFF8
02EFFFFFFFFFF8
002CFFFFFFFFF8
00003566666663
ENDCHAR
STARTCHAR Agrave
ENCODING 192
SWIDTH 673 0
DWIDTH 16 0
BBX 14 23 1 0
BITMAP
00006300000000
0004FE30000000
000DFFE4000000
0002AFFE100000
000005D7000000
00000010000000
000049BCA50000
001BFFFFFFC300
01DFFFFFFFFE20
0AFFFEA9DFFFC0
2FFFC1001AFFF5
7FFF200001DFFA
9FFC0000009FFC
9FFB0000008FFC
9FFB0000008FFC
9FFB0000008FFC
9FFEBBBBBBDFFC
9FFFFFFFFFFFFC
9FFFFFFFFFFFFC
9FFEAAAAAADFFC
9FFB0000008FFC
9FFB0000008FFC
9FFB0000008FFC
ENDCHAR
STARTCHAR Aacute
ENCODING 193
SWIDTH 673 0
DWIDTH 16 0
BBX 14 23 1 0
BITMAP
00000000260000
00000003EF4000
0000003EFFE100
000001EFFB2000
0000006E500000
00000001000000
000049BCA50000
001BFFFFFFC300
01DFFFFFFFFE20
0AFFFEA9DFFFC0
2FFFC1001AFFF5
7FFF200001DFFA
9FFC0000009FFC
9FFB0000008FFC
9FFB0000008FFC
9FFB0000008FFC
9FFEBBBBBBDFFC
9FFFFFFFFFFFFC
9FFFFFFFFFFFFC
9FFEAAAAAADFFC
9FFB0000008FFC
9FFB0000008FFC
9FFB0000008FFC
ENDCHAR
STARTCHAR Acircumflex
ENCODING 194
SWIDTH 673 0
DWIDTH 16 0
BBX 14 23 1 0
BITMAP
00000034000000
000004EF500000
00005FFFF70000
0000DFB9FE1000
00002910850000
00000000000000
000049BCA50000
001BFFFFFFC300
01DFFFFFFFFE20
0AFFFEA9DFFFC0
2FFFC1001AFFF5
7FFF200001DFFA
9FFC0000009FFC
9FFB0000008FFC
9FFB0000008FFC
9FFB0000008FFC
9FFEBBBBBBDFFC
9FFFFFFFFFFFFC
9FFFFFFFFFFFFC
9FFEAAAAAADFFC
9FFB0000008FFC
9FFB0000008FFC
9FFB0000008FFC
ENDCHAR
STARTCHAR Atilde
ENCODING 195
SWIDTH 673 0
DWIDTH 16 0
BBX 14 22 1 0
BITMAP
00004750277000
0007FFF97FE000
000BFFFFFFD000
000AF93DFF6000
00047501530000
000049BCA50000
001BFFFFFFC300
01DFFFFFFFFE20
0AFFFEA9DFFFC0
2FFFC1001AFFF5
7FFF200001DFFA
9FFC0000009FFC
9FFB0000008FFC
9FFB0000008FFC
9FFB0000008FFC
9FFEBBBBBBDFFC
9FFFFFFFFFFFFC
9FFFFFFFFFFFFC
9FFEAAAAAADFFC
9FFB0000008FFC
9FFB0000008FFC
9FFB0000008FFC
ENDCHAR
STARTCHAR Adieresis
ENCODING 196
SWIDTH 673 0
DWIDTH 16 0
BBX 14 21 1 0
BITMAP
00018800581000
0007FF62FF9000
0004FF41EF7000
00003300240000
000049BCA50000
001BFFFFFFC300
01DFFFFFFFFE20
0AFFFEA9DFFFC0
2FFFC1001AFFF5
7FFF200001DFFA
9FFC0000009FFC
9FFB0000008FFC
9FFB0000008FFC
9FFB0000008FFC
9FFEBBBBBBDFFC
9FFFFFFFFFFFFC
9FFFFFFFFFFFFC
9FFEAAAAAADFFC
9FFB0000008FFC
9FFB0000008FFC
9FFB0000008FFC
ENDCHAR
STARTCHAR Aring
ENCODING 197
SWIDTH 673 0
DWIDTH 16 0
BBX 14 21 1 0
BITMAP
00000188200000
00000DFFE10000
00003F74F50000
00001EDCF30000
00004CFFD50000
001BFFFFFFC200
01DFFFFFFFFE30
0AFFFEA9DFFFC0
2FFFC1001AFFF5
7FFF200001DFFA
9FFC0000009FFC
9FFB0000008FFC
9FFB0000008FFC
9FFB0000008FFC
9FFEBBBBBBDFFC
9FFFFFFFFFFFFC
9FFFFFFFFFFFFC
9FFEAAAAAADFFC
9FFB0000008FFC
9FFB0000008FFC
9FFB0000008FFC
ENDCHAR
STARTCHAR AE
ENCODING 198
SWIDTH 988 0
DWIDTH 24 0
BBX 22 17 1 0
BITMAP
000049BCCCCCCCCCCCCCCC
001BFFFFFFFFFFFFFFFFFE
01DFFFFFFFFFFFFFFFFFFE
0AFFFEA888CFFE88888888
2FFFC100009FFC00000000
7FFF2000009FFC00000000
9FFC0000009FFC11111000
9FFB0000009FFFFFFFF500
9FFB0000009FFFFFFFF500
9FFB0000009FFFFFFFF500
9FFEBBBBBBDFFD44444100
9FFFFFFFFFFFFC00000000
9FFFFFFFFFFFFC00000000
9FFEAAAAAADFFD55555555
9FFB0000009FFFFFFFFFFE
9FFB0000009FFFFFFFFFFE
9FFB0000009FFFFFFFFFFE
ENDCHAR
STARTCHAR Ccedilla
ENCODING 199
SWIDTH 640 0
DWIDTH 15 0
BBX 15 23 0 -6
BITMAP
0000028CFFEB6100
00007FFFFFFFFE50
000AFFFFFFFFFFB0
008FFFFA657CFF20
04FFFD3000006700
0AFFE20000000000
1FFF700000000000
4FFF200000000000
5FFF000000000000
4FFF100000000000
2FFF500000000000
0DFFC00000000000
07FFFA0000002400
00DFFFC51027ED00
002EFFFFFFFFFF80
0002CFFFFFFFFF90
000006DFFFFFB400
0000000CB5410000
0000002FF9000000
00000034FF300000
000005EBFF300000
000007FFFB000000
0000002640000000
ENDCHAR
STARTCHAR Egrave
ENCODING 200
SWIDTH 578 0
DWIDTH 14 0
BBX 13 23 1 0
BITMAP
00008000000000
0009FB10000000
004FFFB1000000
0005DFF9000000
000018E2000000
00000010000000
5CCCCCCCCCCC10
7FFFFFFFFFFF10
7FFFFFFFFFFF10
7FFF8888888810
7FFE0000000000
7FFE0000000000
7FFE1111100000
7FFFFFFFF70000
7FFFFFFFF70000
7FFFFFFFF70000
7FFE4444420000
7FFE0000000000
7FFE0000000000
7FFE5555555500
7FFFFFFFFFFF10
7FFFFFFFFFFF10
7FFFFFFFFFFF10
ENDCHAR
STARTCHAR Eacute
ENCODING 201
SWIDTH 578 0
DWIDTH 14 0
BBX 13 23 1 0
BITMAP
00000000800000
0000001BF90000
000001CFFF4000
00000AFFD50000
000002E8100000
00000010000000
5CCCCCCCCCCC10
7FFFFFFFFFFF10
7FFFFFFFFFFF10
7FFF8888888810
7FFE0000000000
7FFE0000000000
7FFE1111100000
7FFFFFFFF70000
7FFFFFFFF70000
7FFFFFFFF70000
7FFE4444420000
7FFE0000000000
7FFE0000000000
7FFE5555555500
7FFFFFFFFFFF10
7FFFFFFFFFFF10
7FFFFFFFFFFF10
ENDCHAR
STARTCHAR Ecircumflex
ENCODING 202
SWIDTH 578 0
DWIDTH 14 0
BBX 13 23 1 0
BITMAP
00000260000000
00002DF9000000
0002DFFFA00000
0009FD7FF40000
0001A205800000
00000000000000
5CCCCCCCCCCC10
7FFFFFFFFFFF10
7FFFFFFFFFFF10
7FFF8888888810
7FFE0000000000
7FFE0000000000
7FFE1111100000
7FFFFFFFF70000
7FFFFFFFF70000
7FFFFFFFF70000
7FFE4444420000
7FFE0000000000
7FFE0000000000
7FFE5555555500
7FFFFFFFFFFF10
7FFFFFFFFFFF10
7FFFFFFFFFFF10
ENDCHAR
STARTCHAR Edieresis
ENCODING 203
SWIDTH 578 0
DWIDTH 14 0
BBX 13 21 1 0
BITMAP
00079204930000
003FF90EFC0000
002EF70CFA0000
00023001400000
5CCCCCCCCCCC10
7FFFFFFFFFFF10
7FFFFFFFFFFF10
7FFF8888888810
7FFE0000000000
7FFE0000000000
7FFE1111100000
7FFFFFFFF70000
7FFFFFFFF70000
7FFFFFFFF70000
7FFE4444420000
7FFE0000000000
7FFE0000000000
7FFE5555555500
7FFFFFFFFFFF10
7FFFFFFFFFFF10
7FFFFFFFFFFF10
ENDCHAR
STARTCHAR Igrave
ENCODING 204
SWIDTH 270 0
DWIDTH 6 0
BBX 6 23 -1 0
BITMAP
036000
1DF700
9FFF70
18FFF5
002BB0
000010
005CCB
007FFE
007FFE
007FFE
007FFE
007FFE
007FFE
007FFE
007FFE
007FFE
007FFE
007FFE
007FFE
007FFE
007FFE
007FFE
007FFE
ENDCHAR
STARTCHAR Iacute
ENCODING 205
SWIDTH 270 0
DWIDTH 6 0
BBX 7 23 1 0
BITMAP
00017000
002DF600
02DFFE20
0DFFC300
04E60000
00100000
5CCB0000
7FFE0000
7FFE0000
7FFE0000
7FFE0000
7FFE0000
7FFE0000
7FFE0000
7FFE0000
7FFE0000
7FFE0000
7FFE0000
7FFE0000
7FFE0000
7FFE0000
7FFE0000
7FFE0000
ENDCHAR
STARTCHAR Icircumflex
ENCODING 206
SWIDTH 270 0
DWIDTH 6 0
BBX 7 23 0 0
BITMAP
00260000
02DF8000
3EFFF900
AFD8FF30
1A106700
00000000
05CCB000
07FFE000
07FFE000
07FFE000
07FFE000
07FFE000
07FFE000
07FFE000
07FFE000
07FFE000
07FFE000
07FFE000
07FFE000
07FFE000
07FFE000
07FFE000
07FFE000
ENDCHAR
STARTCHAR Idieresis
ENCODING 207
SWIDTH 270 0
DWIDTH 6 0
BBX 8 21 -1 0
BITMAP
07910493
4FF80EFC
2FF60DFA
02300140
005CCB00
007FFE00
007FFE00
007FFE00
007FFE00
007FFE00
007FFE00
007FFE00
007FFE00
007FFE00
007FFE00
007FFE00
007FFE00
007FFE00
007FFE00
007FFE00
007FFE00
ENDCHAR
STARTCHAR Eth
ENCODING 208
SWIDTH 672 0
DWIDTH 16 0
BBX 16 17 0 0
BITMAP
00CCCCCCA6100000
00FFFFFFFFE70000
00FFFFFFFFFFB100
00FFFB89CFFFFA00
00FFF60003DFFF60
00FFF600001DFFD0
11FFF7100006FFF3
EFFFFFF50001FFF6
EFFFFFF50000EFF7
EFFFFFF50000FFF6
12FFF7210004FFF4
00FFF600000CFFE0
00FFF60001BFFF70
00FFF9569EFFFC00
00FFFFFFFFFFD200
00FFFFFFFFFA1000
00FFFFFFD9300000
ENDCHAR
STARTCHAR Ntilde
ENCODING 209
SWIDTH 689 0
DWIDTH 17 0
BBX 14 22 1 0
BITMAP
00003760168000
0004FFFB4FF200
0008FFFFFFF100
0007FC1CFF9000
00027600540000
5CCC5000004CCC
7FFFD100005FFF
7FFFF800005FFF
7FFFFF20005FFF
7FFFFFA0005FFF
7FFFFFF4005FFF
7FFEBFFC005FFF
7FFE3FFF705FFF
7FFE09FFE15FFF
7FFE01EFF95FFF
7FFE006FFF8FFF
7FFE000CFFFFFF
7FFE0004FFFFFF
7FFE0000AFFFFF
7FFE00002EFFFF
7FFE000007FFFF
7FFE000000DFFF
ENDCHAR
STARTCHAR Ograve
ENCODING 210
SWIDTH 777 0
DWIDTH 19 0
BBX 18 24 0 -1
BITMAP
000000260000000000
000001DF7000000000
000009FFF800000000
0000008FFF50000000
00000002BC00000000
000000000100000000
0000017CEFEB500000
00007FFFFFFFFD4000
000AFFFFFFFFFFF600
008FFFFA657CFFFF40
04FFFD3000006FFFD0
0AFFE200000006FFF5
1FFF7000000000CFFB
4FFF20000000007FFE
5FFF00000000005FFF
5FFF10000000006FFF
2FFF5000000000AFFC
0CFFC000000003FFF7
06FFFA0000002DFFF1
00CFFFC51027EFFF70
002EFFFFFFFFFFFB00
0002CFFFFFFFFF9000
000006CFFFFFA40000
000000025541000000
ENDCHAR
STARTCHAR Oacute
ENCODING 211
SWIDTH 777 0
DWIDTH 19 0
BBX 18 24 0 -1
BITMAP
000000000008100000
0000000000BFA00000
000000001BFFF40000
000000009FFD500000
000000002E91000000
000000000100000000
0000017CEFEB500000
00007FFFFFFFFD4000
000AFFFFFFFFFFF600
008FFFFA657CFFFF40
04FFFD3000006FFFD0
0AFFE200000006FFF5
1FFF7000000000CFFB
4FFF20000000007FFE
5FFF00000000005FFF
5FFF10000000006FFF
2FFF5000000000AFFC
0CFFC000000003FFF7
06FFFA0000002DFFF1
00CFFFC51027EFFF70
002EFFFFFFFFFFFB00
0002CFFFFFFFFF9000
000006CFFFFFA40000
000000025541000000
ENDCHAR
STARTCHAR Ocircumflex
ENCODING 212
SWIDTH 777 0
DWIDTH 19 0
BBX 18 24 0 -1
BITMAP
000000001600000000
00000002DF90000000
0000002DFFFA000000
0000009FD7FF400000
0000000A2058000000
000000000000000000
0000017CEFEB500000
00007FFFFFFFFD4000
000AFFFFFFFFFFF600
008FFFFA657CFFFF40
04FFFD3000006FFFD0
0AFFE200000006FFF5
1FFF7000000000CFFB
4FFF20000000007FFE
5FFF00000000005FFF
5FFF10000000006FFF
2FFF5000000000AFFC
0CFFC000000003FFF7
06FFFA0000002DFFF1
00CFFFC51027EFFF70
002EFFFFFFFFFFFB00
0002CFFFFFFFFF9000
000006CFFFFFA40000
000000025541000000
ENDCHAR
STARTCHAR Otilde
ENCODING 213
SWIDTH 777 0
DWIDTH 19 0
BBX 18 23 0 -1
BITMAP
000000376116800000
000003FFFC4FF20000
000007FFFFFFF10000
000007FD1BFFA00000
000002760044000000
0000017CEFEB500000
00007FFFFFFFFD4000
000AFFFFFFFFFFF600
008FFFFA657CFFFF40
04FFFD3000006FFFD0
0AFFE200000006FFF5
1FFF7000000000CFFB
4FFF20000000007FFE
5FFF00000000005FFF
5FFF10000000006FFF
2FFF5000000000AFFC
0CFFC000000003FFF7
06FFFA0000002DFFF1
00CFFFC51027EFFF70
002EFFFFFFFFFFFB00
0002CFFFFFFFFF9000
000006CFFFFFA40000
000000025541000000
ENDCHAR
STARTCHAR Odieresis
ENCODING 214
SWIDTH 777 0
DWIDTH 19 0
BBX 18 22 0 -1
BITMAP
000000792039300000
000003FF90EFD00000
000002EF70CFB00000
000000240014100000
0000017CEFEB500000
00007FFFFFFFFD4000
000AFFFFFFFFFFF600
008FFFFA657CFFFF40
04FFFD3000006FFFD0
0AFFE200000006FFF5
1FFF7000000000CFFB
4FFF20000000007FFE
5FFF00000000005FFF
5FFF10000000006FFF
2FFF5000000000AFFC
0CFFC000000003FFF7
06FFFA0000002DFFF1
00CFFFC51027EFFF70
002EFFFFFFFFFFFB00
0002CFFFFFFFFF9000
000006CFFFFFA40000
000000025541000000
ENDCHAR
STARTCHAR multiply
ENCODING 215
SWIDTH 479 0
DWIDTH 12 0
BBX 10 10 1 4
BITMAP
0000000100
04C2008C10
4FFD28FFC1
8FFFEFFFD2
08FFFFFD20
00CFFFF300
08FFFFFD20
7FFFEFFFD1
2EFD28FFA0
02B2008A00
ENDCHAR
STARTCHAR Oslash
ENCODING 216
SWIDTH 777 0
DWIDTH 19 0
BBX 18 18 0 -1
BITMAP
0000017CEFEB56CC90
00007FFFFFFFFFFE20
000AFFFFFFFFFFF900
008FFFFA657EFFFF40
04FFFD30004FFFFFD0
0AFFE20001EFF8FFF6
1FFF70000BFF70CFFB
4FFF20007FFB007FFE
5FFF0003FFE1005FFF
4FFF101DFF40006FFF
2FFF50AFF80000AFFC
0DFFD6FFC00003FFF7
06FFFFFE20002DFFF1
00CFFFFA1027EFFF70
002EFFFFFFFFFFFB00
005FFFFFFFFFFF9000
02EFF8DFFFFFA40000
000000024541000000
ENDCHAR
STARTCHAR Ugrave
ENCODING 217
SWIDTH 673 0
DWIDTH 16 0
BBX 14 23 1 0
BITMAP
00003500000000
0001DF60000000
000AFFF7000000
00018FFF400000
000003CB000000
00000001000000
8CC90000007CCA
9FFB0000008FFC
9FFB0000008FFC
9FFB0000008FFC
9FFB0000008FFC
9FFB0000008FFC
9FFB0000008FFC
9FFB0000008FFC
9FFB0000008FFC
9FFB0000008FFC
9FFB0000009FFC
7FFE100000CFFA
3FFF900007FFF6
0CFFFC76BFFFE1
02EFFFFFFFFF40
003DFFFFFFE500
00017CEEC81000
ENDCHAR
STARTCHAR Uacute
ENCODING 218
SWIDTH 673 0
DWIDTH 16 0
BBX 14 23 1 0
BITMAP
00000000170000
00000002DF6000
0000002DFFF200
000000DFFC3000
0000004E700000
00000001000000
8CC90000007CCA
9FFB0000008FFC
9FFB0000008FFC
9FFB0000008FFC
9FFB0000008FFC
9FFB0000008FFC
9FFB0000008FFC
9FFB0000008FFC
9FFB0000008FFC
9FFB0000008FFC
9FFB0000009FFC
7FFE100000CFFA
3FFF900007FFF6
0CFFFC76BFFFE1
02EFFFFFFFFF40
003DFFFFFFE500
00017CEEC81000
ENDCHAR
STARTCHAR Ucircumflex
ENCODING 219
SWIDTH 673 0
DWIDTH 16 0
BBX 14 22 1 0
BITMAP
00000034000000
000004EF500000
00005FFFF70000
0000DFB9FE1000
00002910850000
8CC90000007CCA
9FFB0000008FFC
9FFB0000008FFC
9FFB0000008FFC
9FFB0000008FFC
9FFB0000008FFC
9FFB0000008FFC
9FFB0000008FFC
9FFB0000008FFC
9FFB0000008FFC
9FFB0000009FFC
7FFE100000CFFA
3FFF900007FFF6
0CFFFC76BFFFE1
02EFFFFFFFFF40
003DFFFFFFE500
00017CEEC81000
ENDCHAR
STARTCHAR Udieresis
ENCODING 220
SWIDTH 673 0
DWIDTH 16 0
BBX 14 21 1 0
BITMAP
00018800581000
0007FF62FF9000
0004FF41EF7000
00003300240000
8CC90000007CCA
9FFB0000008FFC
9FFB0000008FFC
9FFB0000008FFC
9FFB0000008FFC
9FFB0000008FFC
9FFB0000008FFC
9FFB0000008FFC
9FFB0000008FFC
9FFB0000008FFC
9FFB0000009FFC
7FFE100000CFFA
3FFF900007FFF6
0CFFFC76BFFFE1
02EFFFFFFFFF40
003DFFFFFFE500
00017CEEC81000
ENDCHAR
STARTCHAR Yacute
ENCODING 221
SWIDTH 620 0
DWIDTH 15 0
BBX 15 23 0 0
BITMAP
0000000008100000
00000000AFA00000
0000001BFFF50000
0000009FFE500000
0000002E91000000
0000000100000000
3CCC1000002CCC20
4FFF1000003FFF20
4FFF1000003FFF20
4FFF1000003FFF20
4FFF1000003FFF20
4FFF2000003FFF20
2FFF5000007FFF00
0DFFE20003EFFB00
06FFFE869FFFF400
00AFFFFFFFFF9000
0009FFFFFFF80000
00004AFFFA300000
000004FFF2000000
000004FFF2000000
000004FFF2000000
000004FFF2000000
000004FFF2000000
ENDCHAR
STARTCHAR Thorn
ENCODING 222
SWIDTH 637 0
DWIDTH 15 0
BBX 14 19 1 -1
BITMAP
38870000000000
7FFE0000000000
7FFE2221000000
7FFFFFFFFB4000
7FFFFFFFFFF900
7FFFFFFFFFFF80
7FFE44448FFFF3
7FFE000003FFF9
7FFE0000009FFD
7FFE0000006FFF
7FFE0000008FFE
7FFE000001EFFA
7FFE11115DFFF5
7FFFFFFFFFFFB0
7FFFFFFFFFFC10
7FFFFFFFFE7000
7FFE5555300000
7FFE0000000000
5BBA0000000000
ENDCHAR
STARTCHAR germandbls
ENCODING 223
SWIDTH 813 0
DWIDTH 20 0
BBX 20 19 0 0
BITMAP
0000049BBBBA60000000
0001AFFFFFFFFD200000
000BFFFFFFFFFFC00000
005FFFC8777AFFF40000
00BFFB000000CFF70000
00DFF5000000CFF70000
48EFF400047BFFF40000
7FFFF401AFFFFFC00000
7FFFF409FFFFFC200000
4AFFF41FFFC950000000
00EFF42FFF2000000000
00EFF40EFFDBBBBB8200
00EFF408FFFFFFFFFE40
00EFF4009FFFFFFFFFE1
00EFF40003777778FFF4
00EFF40133333334FFF4
00EFF403FFFFFFFFFFE1
00EFF403FFFFFFFFFF60
00EFF403FFFFFFFFC400
ENDCHAR
STARTCHAR agrave
ENCODING 224
SWIDTH 607 0
DWIDTH 15 0
BBX 14 20 0 -1
BITMAP
00006300000000
0004FE30000000
000DFFE4000000
0002AFFE100000
000005D7000000
00000010000000
00018DFEB50053
004EFFFFFFB5F6
02EFFFFFFFFFF6
0BFFF944BFFFF6
2FFF70000AFFF6
5FFF000001FFF6
6FFD000000DFF6
6FFE000000EFF6
3FFF500007FFF6
0DFFE5117FFFF6
05FFFFFFFFFFF6
008FFFFFFFD9F6
0004CFFFE810B6
00000132000000
ENDCHAR
STARTCHAR aacute
ENCODING 225
SWIDTH 607 0
DWIDTH 15 0
BBX 14 20 0 -1
BITMAP
00000000440000
00000005FE2000
0000006FFFB000
000003FFF91000
0000009C300000
00000010000000
00018DFEB50053
004EFFFFFFB5F6
02EFFFFFFFFFF6
0BFFF944BFFFF6
2FFF70000AFFF6
5FFF000001FFF6
6FFD000000DFF6
6FFE000000EFF6
3FFF500007FFF6
0DFFE5117FFFF6
05FFFFFFFFFFF6
008FFFFFFFD9F6
0004CFFFE810B6
00000132000000
ENDCHAR
STARTCHAR acircumflex
ENCODING 226
SWIDTH 607 0
DWIDTH 15 0
BBX 14 20 0 -1
BITMAP
00000053000000
000006FE400000
00007FFFF50000
0001EFABFD0000
00003900930000
00000000000000
00018DFEB50053
004EFFFFFFB5F6
02EFFFFFFFFFF6
0BFFF944BFFFF6
2FFF70000AFFF6
5FFF000001FFF6
6FFD000000DFF6
6FFE000000EFF6
3FFF500007FFF6
0DFFE5117FFFF6
05FFFFFFFFFFF6
008FFFFFFFD9F6
0004CFFFE810B6
00000132000000
ENDCHAR
STARTCHAR atilde
ENCODING 227
SWIDTH 607 0
DWIDTH 15 0
BBX 14 19 0 -1
BITMAP
00005740376000
0008FFF78FC000
000DFFFFFFB000
000CF84EFF5000
00047401520000
00018DFEB50053
004EFFFFFFB5F6
02EFFFFFFFFFF6
0BFFF944BFFFF6
2FFF70000AFFF6
5FFF000001FFF6
6FFD000000DFF6
6FFE000000EFF6
3FFF500007FFF6
0DFFE5117FFFF6
05FFFFFFFFFFF6
008FFFFFFFD9F6
0004CFFFE810B6
00000132000000
ENDCHAR
STARTCHAR adieresis
ENCODING 228
SWIDTH 607 0
DWIDTH 15 0
BBX 14 18 0 -1
BITMAP
00019700781000
0009FF44FF7000
0006FF22FF5000
00003200230000
00018DFEB50053
004EFFFFFFB5F6
02EFFFFFFFFFF6
0BFFF944BFFFF6
2FFF70000AFFF6
5FFF000001FFF6
6FFD000000DFF6
6FFE000000EFF6
3FFF500007FFF6
0DFFE5117FFFF6
05FFFFFFFFFFF6
008FFFFFFFD9F6
0004CFFFE810B6
00000132000000
ENDCHAR
STARTCHAR aring
ENCODING 229
SWIDTH 607 0
DWIDTH 15 0
BBX 14 20 0 -1
BITMAP
000006DD500000
00003FCDE10000
00005F56F30000
00001EFFD00000
00000298200000
00000000000000
00018DFEB50053
004EFFFFFFB5F6
02EFFFFFFFFFF6
0BFFF944BFFFF6
2FFF70000AFFF6
5FFF000001FFF6
6FFD000000DFF6
6FFE000000EFF6
3FFF500007FFF6
0DFFE5117FFFF6
05FFFFFFFFFFF6
008FFFFFFFD9F6
0004CFFFE810B6
00000132000000
ENDCHAR
STARTCHAR ae
ENCODING 230
SWIDTH 976 0
DWIDTH 23 0
BBX 23 14 0 -1
BITMAP
00018DFEB5005329DFEB6000
004EFFFFFFB5FBFFFFFFFC10
02EFFFFFFFFFFFFFFFFFFFC0
0BFFF944BFFFFFFF84AFFF60
2FFF70000AFFFFF503FFF800
5FFF000001FFFFC01DFFB000
6FFD000000DFFFA0BFFD1000
6FFE000000EFFFB7FFE20000
3FFF500007FFFFFFFF407200
0DFFE5117FFFFFFFF618FD20
05FFFFFFFFFFFFFFFFFFFFC0
008FFFFFFFD9FDFFFFFFFE30
0004CFFFE810B65CFFFE9100
000001320000000013200000
ENDCHAR
STARTCHAR ccedilla
ENCODING 231
SWIDTH 521 0
DWIDTH 13 0
BBX 12 19 0 -6
BITMAP
00017CFEC600
002DFFFFFFC2
01EFFFFFFFFC
0AFFFA44AFF9
1FFF80000A90
5FFF10000100
7FFD00000000
6FFE00000000
3FFF40000530
0DFFE6116FE3
05FFFFFFFFFE
007FFFFFFFE5
0003BFFFFA20
000004F50000
000009FE4000
000013AFC000
0000CCDFB000
0000DFFF4000
000004520000
ENDCHAR
STARTCHAR egrave
ENCODING 232
SWIDTH 524 0
DWIDTH 13 0
BBX 13 20 0 -1
BITMAP
00007100000000
0007FC10000000
002FFFD2000000
0004CFFC000000
000007E4000000
00000010000000
00018DFEC71000
004EFFFFFFD300
03EFFFFFFFFE10
0BFFF948FFF800
2FFF702EFFB000
5FFF00BFFD1000
6FFC08FFE20000
6FFD4FFF400000
3FFFEFF6053000
0CFFFF916EE300
04FFFFFFFFFE10
006FFFFFFFE500
0003BFFFFA2000
00000133100000
ENDCHAR
STARTCHAR eacute
ENCODING 233
SWIDTH 524 0
DWIDTH 13 0
BBX 13 20 0 -1
BITMAP
00000000540000
00000005FE2000
0000006FFFA000
000003FFF91000
000000AC300000
00000010000000
00018DFEC71000
004EFFFFFFD300
03EFFFFFFFFE10
0BFFF948FFF800
2FFF702EFFB000
5FFF00BFFD1000
6FFC08FFE20000
6FFD4FFF400000
3FFFEFF6053000
0CFFFF916EE300
04FFFFFFFFFE10
006FFFFFFFE500
0003BFFFFA2000
00000133100000
ENDCHAR
STARTCHAR ecircumflex
ENCODING 234
SWIDTH 524 0
DWIDTH 13 0
BBX 13 20 0 -1
BITMAP
00000170000000
00002DF9000000
0002DFFFA00000
0008FE7FF50000
00009204900000
00000000000000
00018DFEC71000
004EFFFFFFD300
03EFFFFFFFFE10
0BFFF948FFF800
2FFF702EFFB000
5FFF00BFFD1000
6FFC08FFE20000
6FFD4FFF400000
3FFFEFF6053000
0CFFFF916EE300
04FFFFFFFFFE10
006FFFFFFFE500
0003BFFFFA2000
00000133100000
ENDCHAR
STARTCHAR edieresis
ENCODING 235
SWIDTH 524 0
DWIDTH 13 0
BBX 13 18 0 -1
BITMAP
00069203930000
002FFA0DFD0000
001EF80BFB0000
00024001410000
00018DFEC71000
004EFFFFFFD300
03EFFFFFFFFE10
0BFFF948FFF800
2FFF702EFFB000
5FFF00BFFD1000
6FFC08FFE20000
6FFD4FFF400000
3FFFEFF6053000
0CFFFF916EE300
04FFFFFFFFFE10
006FFFFFFFE500
0003BFFFFA2000
00000133100000
ENDCHAR
STARTCHAR igrave
ENCODING 236
SWIDTH 235 0
DWIDTH 6 0
BBX 7 19 -2 0
BITMAP
00720000
05FD2000
1EFFE300
02BFFD00
0006E600
00001000
00068840
000CFF70
000CFF70
000CFF70
000CFF70
000CFF70
000CFF70
000CFF70
000CFF70
000CFF70
000CFF70
000CFF70
000CFF70
ENDCHAR
STARTCHAR iacute
ENCODING 237
SWIDTH 235 0
DWIDTH 6 0
BBX 6 19 1 0
BITMAP
000540
006FE1
07FFFA
4FFF81
0AC300
010000
688400
CFF700
CFF700
CFF700
CFF700
CFF700
CFF700
CFF700
CFF700
CFF700
CFF700
CFF700
CFF700
ENDCHAR
STARTCHAR icircumflex
ENCODING 238
SWIDTH 235 0
DWIDTH 6 0
BBX 7 18 -1 0
BITMAP
00062000
007FE300
08FFFE40
2EF9CFC0
04801A20
00688400
00CFF700
00CFF700
00CFF700
00CFF700
00CFF700
00CFF700
00CFF700
00CFF700
00CFF700
00CFF700
00CFF700
00CFF700
ENDCHAR
STARTCHAR idieresis
ENCODING 239
SWIDTH 235 0
DWIDTH 6 0
BBX 8 17 -1 0
BITMAP
29600770
AFF26FF5
8FE14FF4
04200330
00688400
00CFF700
00CFF700
00CFF700
00CFF700
00CFF700
00CFF700
00CFF700
00CFF700
00CFF700
00CFF700
00CFF700
00CFF700
ENDCHAR
STARTCHAR eth
ENCODING 240
SWIDTH 581 0
DWIDTH 14 0
BBX 14 20 0 -1
BITMAP
00000444400000
00000AFFF40000
000BCDFFFECCC0
000DFFFFFFFFF0
000CDDDEFFFED0
00000003FFF500
00006BDDEFFC00
003DFFFFFFFF20
02EFFFFFFFFF80
0BFFF945AFFFC0
2FFF700009FFF1
5FFE000001FFF4
7FFC000000EFF5
6FFE000001FFF4
3FFF500007FFF1
0CFFE6117FFFA0
04FFFFFFFFFE20
006FFFFFFFE400
0003BFFFFA2000
00000133100000
ENDCHAR
STARTCHAR ntilde
ENCODING 241
SWIDTH 562 0
DWIDTH 13 0
BBX 12 18 1 0
BITMAP
000673047400
00BFFF5AFA00
00FFFFFFF900
00EF55FFE300
005730252000
62049BB82000
CDAFFFFFF600
CFFFFFFFFF50
CFFFD79EFFD0
CFFD1003FFF4
CFF70000DFF6
CFF60000CFF7
CFF60000CFF7
CFF60000CFF7
CFF60000CFF7
CFF60000CFF7
CFF60000CFF7
CFF60000CFF7
ENDCHAR
STARTCHAR ograve
ENCODING 242
SWIDTH 579 0
DWIDTH 14 0
BBX 14 20 0 -1
BITMAP
00006200000000
0004FE30000000
001EFFE3000000
0002BFFE100000
000005E6000000
00000010000000
00018DFFC71000
004EFFFFFFD300
02EFFFFFFFFE20
0BFFF945AFFFA0
2FFF700009FFF1
5FFE000001FFF4
7FFC000000EFF5
6FFE000001FFF4
3FFF500007FFF1
0CFFE6117FFFA0
04FFFFFFFFFE20
006FFFFFFFE400
0003BFFFFA2000
00000133100000
ENDCHAR
STARTCHAR oacute
ENCODING 243
SWIDTH 579 0
DWIDTH 14 0
BBX 14 20 0 -1
BITMAP
00000000440000
00000005FE2000
0000006FFFB000
000003FFF91000
000000AC300000
00000010000000
00018DFFC71000
004EFFFFFFD300
02EFFFFFFFFE20
0BFFF945AFFFA0
2FFF700009FFF1
5FFE000001FFF4
7FFC000000EFF5
6FFE000001FFF4
3FFF500007FFF1
0CFFE6117FFFA0
04FFFFFFFFFE20
006FFFFFFFE400
0003BFFFFA2000
00000133100000
ENDCHAR
STARTCHAR ocircumflex
ENCODING 244
SWIDTH 579 0
DWIDTH 14 0
BBX 14 20 0 -1
BITMAP
00000053000000
000006FE400000
00007FFFF50000
0001EFABFD0000
00004800930000
00000000000000
00018DFFC71000
004EFFFFFFD300
02EFFFFFFFFE20
0BFFF945AFFFA0
2FFF700009FFF1
5FFE000001FFF4
7FFC000000EFF5
6FFE000001FFF4
3FFF500007FFF1
0CFFE6117FFFA0
04FFFFFFFFFE20
006FFFFFFFE400
0003BFFFFA2000
00000133100000
ENDCHAR
STARTCHAR otilde
ENCODING 245
SWIDTH 579 0
DWIDTH 14 0
BBX 14 19 0 -1
BITMAP
00005740375000
0009FFF79FB000
000DFFFFFFA000
000CF74EFF4000
00057401520000
00018DFFC71000
004EFFFFFFD300
02EFFFFFFFFE20
0BFFF945AFFFA0
2FFF700009FFF1
5FFE000001FFF4
7FFC000000EFF5
6FFE000001FFF4
3FFF500007FFF1
0CFFE6117FFFA0
04FFFFFFFFFE20
006FFFFFFFE400
0003BFFFFA2000
00000133100000
ENDCHAR
STARTCHAR odieresis
ENCODING 246
SWIDTH 579 0
DWIDTH 14 0
BBX 14 18 0 -1
BITMAP
00019700781000
0009FF35FF7000
0007FE23FF5000
00003200230000
00018DFFC71000
004EFFFFFFD300
02EFFFFFFFFE20
0BFFF945AFFFA0
2FFF700009FFF1
5FFE000001FFF4
7FFC000000EFF5
6FFE000001FFF4
3FFF500007FFF1
0CFFE6117FFFA0
04FFFFFFFFFE20
006FFFFFFFE400
0003BFFFFA2000
00000133100000
ENDCHAR
STARTCHAR divide
ENCODING 247
SWIDTH 494 0
DWIDTH 12 0
BBX 10 13 1 2
BITMAP
0000430000
0007FF5000
000BFF9000
0004EE3000
1111111111
FFFFFFFFFD
FFFFFFFFFD
FFFFFFFFFD
2222332221
0005FF4000
000BFF9000
0006FF4000
0000210000
ENDCHAR
STARTCHAR oslash
ENCODING 248
SWIDTH 579 0
DWIDTH 14 0
BBX 14 14 0 -1
BITMAP
00018DFEC7BBB1
004EFFFFFFFF70
02EFFFFFFFFF20
0BFFF948FFFF90
2FFF701EFFFFF1
5FFE00BFF8FFF4
7FFC07FFB0EFF5
6FFE4FFD11FFF4
3FFFEFF407FFF1
0CFFFF817FFFA0
04FFFFFFFFFE20
04FFFFFFFFE400
1EFFBFFFFA2000
00000133100000
ENDCHAR
STARTCHAR ugrave
ENCODING 249
SWIDTH 562 0
DWIDTH 13 0
BBX 12 19 1 -1
BITMAP
000810000000
008FC1000000
03FFFC100000
004DFFA00000
00008E300000
888201008882
EFF40000EFF4
EFF40000EFF4
EFF40000EFF4
EFF40000EFF4
EFF40000EFF4
EFF40000EFF4
EFF40000EFF4
DFF70003FFF4
9FFE403DFFF4
2FFFFFFFFFF4
06FFFFFFFCF4
004CFFFC41C4
000013200000
ENDCHAR
STARTCHAR uacute
ENCODING 250
SWIDTH 562 0
DWIDTH 13 0
BBX 12 19 1 -1
BITMAP
000000062000
0000007FD100
000008FFF800
00006FFF7000
00000CB20000
888201008882
EFF40000EFF4
EFF40000EFF4
EFF40000EFF4
EFF40000EFF4
EFF40000EFF4
EFF40000EFF4
EFF40000EFF4
DFF70003FFF4
9FFE403DFFF4
2FFFFFFFFFF4
06FFFFFFFCF4
004CFFFC41C4
000013200000
ENDCHAR
STARTCHAR ucircumflex
ENCODING 251
SWIDTH 562 0
DWIDTH 13 0
BBX 12 19 1 -1
BITMAP
000007100000
0000AFC10000
000AFFFD2000
004FF7DF9000
0007502A1000
888200008882
EFF40000EFF4
EFF40000EFF4
EFF40000EFF4
EFF40000EFF4
EFF40000EFF4
EFF40000EFF4
EFF40000EFF4
DFF70003FFF4
9FFE403DFFF4
2FFFFFFFFFF4
06FFFFFFFCF4
004CFFFC41C4
000013200000
ENDCHAR
STARTCHAR udieresis
ENCODING 252
SWIDTH 562 0
DWIDTH 13 0
BBX 12 18 1 -1
BITMAP
003940186000
00DFE09FF300
00BFC06FE100
001410032000
888200008882
EFF40000EFF4
EFF40000EFF4
EFF40000EFF4
EFF40000EFF4
EFF40000EFF4
EFF40000EFF4
EFF40000EFF4
DFF70003FFF4
9FFE403DFFF4
2FFFFFFFFFF4
06FFFFFFFCF4
004CFFFC41C4
000013200000
ENDCHAR
STARTCHAR yacute
ENCODING 253
SWIDTH 562 0
DWIDTH 14 0
BBX 12 23 1 -5
BITMAP
000000072000
0000008FC100
000009FFF800
00006FFE7000
00001CA20000
888201008882
EFF40000EFF4
EFF40000EFF4
EFF40000EFF4
EFF40000EFF4
EFF40000EFF4
EFF40000EFF4
EFF40000EFF4
DFF70003FFF4
9FFE403DFFF4
2FFFFFFFFFF4
06FFFFFFFFF4
004CFFFDFFF3
0000132BFFE0
000567DFFF70
000BFFFFFB00
000BFFFFA100
0009CB930000
ENDCHAR
STARTCHAR thorn
ENCODING 254
SWIDTH 608 0
DWIDTH 15 0
BBX 14 23 1 -5
BITMAP
9CC70000000000
CFF90000000000
CFF90000000000
CFF90000000000
CFF90000000000
CFFA7DFEB50000
CFFFFFFFFFB100
CFFFFFFFFFFB00
CFFFE735CFFF50
CFFF30000CFFB0
CFFA000005FFE0
CFF8000003FFF1
CFF9000005FFF0
CFFE10000BFFC0
CFFFC302AFFF70
CFFFFFFFFFFD10
CFFFFFFFFFE300
CFF9BFFFEA2000
CFF70143100000
CFF70000000000
CFF70000000000
CFF70000000000
9CC50000000000
ENDCHAR
STARTCHAR ydieresis
ENCODING 255
SWIDTH 562 0
DWIDTH 14 0
BBX 12 22 1 -5
BITMAP
003940186000
00DFE09FF300
00BFC06FE100
001410032000
888200008882
EFF40000EFF4
EFF40000EFF4
EFF40000EFF4
EFF40000EFF4
EFF40000EFF4
EFF40000EFF4
EFF40000EFF4
DFF70003FFF4
9FFE403DFFF4
2FFFFFFFFFF4
06FFFFFFFFF4
004CFFFDFFF3
0000132BFFE0
000567DFFF70
000BFFFFFB00
000BFFFFA100
0009CB930000
ENDCHAR
STARTCHAR Amacron
ENCODING 256
SWIDTH 673 0
DWIDTH 16 0
BBX 14 21 1 0
BITMAP
00004555550000
0000DFFFFF1000
0000DFFFFF1000
00002222220000
000049BCA50000
001BFFFFFFC300
01DFFFFFFFFE20
0AFFFEA9DFFFC0
2FFFC1001AFFF5
7FFF200001DFFA
9FFC0000009FFC
9FFB0000008FFC
9FFB0000008FFC
9FFB0000008FFC
9FFEBBBBBBDFFC
9FFFFFFFFFFFFC
9FFFFFFFFFFFFC
9FFEAAAAAADFFC
9FFB0000008FFC
9FFB0000008FFC
9FFB0000008FFC
ENDCHAR
STARTCHAR amacron
ENCODING 257
SWIDTH 607 0
DWIDTH 15 0
BBX 14 18 0 -1
BITMAP
00015555540000
0002FFFFFC0000
0002FFFFFC0000
00002222220000
00018DFEB50053
004EFFFFFFB5F6
02EFFFFFFFFFF6
0BFFF944BFFFF6
2FFF70000AFFF6
5FFF000001FFF6
6FFD000000DFF6
6FFE000000EFF6
3FFF500007FFF6
0DFFE5117FFFF6
05FFFFFFFFFFF6
008FFFFFFFD9F6
0004CFFFE810B6
00000132000000
ENDCHAR
STARTCHAR Abreve
ENCODING 258
SWIDTH 673 0
DWIDTH 16 0
BBX 14 22 1 0
BITMAP
00002422420000
0000AF78F80000
00007FFFF60000
00001AFFA00000
00000000000000
000049BCA50000
001BFFFFFFC300
01DFFFFFFFFE20
0AFFFEA9DFFFC0
2FFFC1001AFFF5
7FFF200001DFFA
9FFC0000009FFC
9FFB0000008FFC
9FFB0000008FFC
9FFB0000008FFC
9FFEBBBBBBDFFC
9FFFFFFFFFFFFC
9FFFFFFFFFFFFC
9FFEAAAAAADFFC
9FFB0000008FFC
9FFB0000008FFC
9FFB0000008FFC
ENDCHAR
STARTCHAR abreve
ENCODING 259
SWIDTH 607 0
DWIDTH 15 0
BBX 14 19 0 -1
BITMAP
00003413410000
0000EF3CF40000
0000BFFFF20000
00002CFE700000
00000010000000
00018DFEB50053
004EFFFFFFB5F6
02EFFFFFFFFFF6
0BFFF944BFFFF6
2FFF70000AFFF6
5FFF000001FFF6
6FFD000000DFF6
6FFE000000EFF6
3FFF500007FFF6
0DFFE5117FFFF6
05FFFFFFFFFFF6
008FFFFFFFD9F6
0004CFFFE810B6
00000132000000
ENDCHAR
STARTCHAR Aogonek
ENCODING 260
SWIDTH 673 0
DWIDTH 16 0
BBX 15 22 1 -5
BITMAP
000049BCA5000000
001BFFFFFFC30000
01DFFFFFFFFE2000
0AFFFEA9DFFFC000
2FFFC1001AFFF500
7FFF200001DFFA00
9FFC0000009FFC00
9FFB0000008FFC00
9FFB0000008FFC00
9FFB0000008FFC00
9FFEBBBBBBDFFC00
9FFFFFFFFFFFFC00
9FFFFFFFFFFFFC00
9FFEAAAAAADFFC00
9FFB0000008FFC00
9FFB0000008FFC00
9FFB0000008FFC00
00000000008F6000
0000000003FE1300
0000000004FFFE40
0000000000AFFD40
0000000000033000
ENDCHAR
STARTCHAR aogonek
ENCODING 261
SWIDTH 607 0
DWIDTH 15 0
BBX 16 18 0 -5
BITMAP
00018DFEB5005300
004EFFFFFFB5F600
02EFFFFFFFFFF600
0BFFF944BFFFF600
2FFF70000AFFF600
5FFF000001FFF600
6FFD000000DFF600
6FFE000000EFF600
3FFF500007FFF600
0DFFE5117FFFF600
05FFFFFFFFFFF600
008FFFFFFFD9F600
0004CFFFE812F600
00000132002DE100
0000000000AF8300
0000000000AFFFB1
00000000003EFF91
0000000000014200
ENDCHAR
STARTCHAR Cacute
ENCODING 262
SWIDTH 640 0
DWIDTH 15 0
BBX 15 24 0 -1
BITMAP
0000000000440000
0000000005FE2000
000000006FFFB000
00000003FFF91000
00000000AC300000
0000000011000000
0000028CFFEB6100
00007FFFFFFFFE50
000AFFFFFFFFFFB0
008FFFFA657CFF20
04FFFD3000006700
0AFFE20000000000
1FFF700000000000
4FFF200000000000
5FFF000000000000
5FFF100000000000
2FFF500000000000
0CFFC00000000000
06FFFA0000002400
00CFFFC51027ED00
002EFFFFFFFFFF80
0002CFFFFFFFFF90
000006CFFFFFB400
0000000255410000
ENDCHAR
STARTCHAR cacute
ENCODING 263
SWIDTH 521 0
DWIDTH 13 0
BBX 12 20 0 -1
BITMAP
000000007200
00000008FC00
0000009FFF70
000007FFE700
000001DA2000
000000100000
00017CFEC600
002DFFFFFFC2
01EFFFFFFFFC
0AFFFA44AFF9
1FFF80000A90
5FFF10000100
7FFD00000000
6FFE00000000
3FFF40000530
0DFFE6116FE3
04FFFFFFFFFE
006FFFFFFFE5
0003BFFFFA20
000001331000
ENDCHAR
STARTCHAR Ccircumflex
ENCODING 264
SWIDTH 640 0
DWIDTH 15 0
BBX 15 24 0 -1
BITMAP
0000000062000000
00000007FE300000
0000008FFFE40000
000002EF9CFC0000
0000004801A20000
0000000000000000
0000028CFFEB6100
00007FFFFFFFFE50
000AFFFFFFFFFFB0
008FFFFA657CFF20
04FFFD3000006700
0AFFE20000000000
1FFF700000000000
4FFF200000000000
5FFF000000000000
5FFF100000000000
2FFF500000000000
0CFFC00000000000
06FFFA0000002400
00CFFFC51027ED00
002EFFFFFFFFFF80
0002CFFFFFFFFF90
000006CFFFFFB400
0000000255410000
ENDCHAR
STARTCHAR ccircumflex
ENCODING 265
SWIDTH 521 0
DWIDTH 13 0
BBX 12 20 0 -1
BITMAP
000000620000
000007FE3000
00008FFFE400
0002EF9CFC00
00004801A200
000000000000
00017CFEC600
002DFFFFFFC2
01EFFFFFFFFC
0AFFFA44AFF9
1FFF80000A90
5FFF10000100
7FFD00000000
6FFE00000000
3FFF40000530
0DFFE6116FE3
04FFFFFFFFFE
006FFFFFFFE5
0003BFFFFA20
000001331000
ENDCHAR
STARTCHAR Cdotaccent
ENCODING 266
SWIDTH 640 0
DWIDTH 15 0
BBX 15 22 0 -1
BITMAP
00000000AC300000
00000004FF900000
00000001DF500000
0000000001000000
0000028CFFEB6100
00007FFFFFFFFE50
000AFFFFFFFFFFB0
008FFFFA657CFF20
04FFFD3000006700
0AFFE20000000000
1FFF700000000000
4FFF200000000000
5FFF000000000000
5FFF100000000000
2FFF500000000000
0CFFC00000000000
06FFFA0000002400
00CFFFC51027ED00
002EFFFFFFFFFF80
0002CFFFFFFFFF90
000006CFFFFFB400
0000000255410000
ENDCHAR
STARTCHAR cdotaccent
ENCODING 267
SWIDTH 521 0
DWIDTH 13 0
BBX 12 18 0 -1
BITMAP
000002BB1000
000007FF6000
000003EE2000
000000110000
00017CFEC600
002DFFFFFFC2
01EFFFFFFFFC
0AFFFA44AFF9
1FFF80000A90
5FFF10000100
7FFD00000000
6FFE00000000
3FFF40000530
0DFFE6116FE3
04FFFFFFFFFE
006FFFFFFFE5
0003BFFFFA20
000001331000
ENDCHAR
STARTCHAR Ccaron
ENCODING 268
SWIDTH 640 0
DWIDTH 15 0
BBX 15 24 0 -1
BITMAP
0000002A10750000
000000CFC8FF2000
0000004EFFF80000
00000003DF800000
0000000026000000
0000000000000000
0000028CFFEB6100
00007FFFFFFFFE50
000AFFFFFFFFFFB0
008FFFFA657CFF20
04FFFD3000006700
0AFFE20000000000
1FFF700000000000
4FFF200000000000
5FFF000000000000
5FFF100000000000
2FFF500000000000
0CFFC00000000000
06FFFA0000002400
00CFFFC51027ED00
002EFFFFFFFFFF80
0002CFFFFFFFFF90
000006CFFFFFB400
0000000255410000
ENDCHAR
STARTCHAR ccaron
ENCODING 269
SWIDTH 521 0
DWIDTH 13 0
BBX 12 20 0 -1
BITMAP
000058009200
0001EFABFD00
00006FFFF500
000005FF5000
000000440000
000000000000
00017CFEC600
002DFFFFFFC2
01EFFFFFFFFC
0AFFFA44AFF9
1FFF80000A90
5FFF10000100
7FFD00000000
6FFE00000000
3FFF40000530
0DFFE6116FE3
04FFFFFFFFFE
006FFFFFFFE5
0003BFFFFA20
000001331000
ENDCHAR
STARTCHAR Dcaron
ENCODING 270
SWIDTH 653 0
DWIDTH 16 0
BBX 14 22 1 0
BITMAP
00006701910000
0002FF9CFB0000
00008FFFE40000
000006FE300000
00000053000000
5CCCCCB9300000
7FFFFFFFFC3000
7FFFFFFFFFF500
7FFF89AEFFFF30
7FFE00018FFFD0
7FFE000007FFF5
7FFE000000CFFB
7FFE0000007FFE
7FFE0000006FFF
7FFE0000007FFE
7FFE000000BFFC
7FFE000004FFF7
7FFE00004EFFE1
7FFF557BFFFF50
7FFFFFFFFFF800
7FFFFFFFFE5000
7FFFFFEC610000
ENDCHAR
STARTCHAR dcaron
ENCODING 271
SWIDTH 740 0
DWIDTH 18 0
BBX 18 19 0 -1
BITMAP
000000000078830000
0000000000DFF509B2
0000000000DFF55FFA
0000000000DFF53FFA
0000000000DFF505F6
00018DFFC4DFF507D1
004EFFFFFFFFF50010
02EFFFFFFFFFF50000
0BFFF944BFFFF50000
2FFF70000AFFF50000
5FFE000002FFF50000
7FFC000000EFF50000
6FFE000001FFF50000
3FFF600008FFF50000
0DFFE6118FFFF50000
04FFFFFFFFFFF50000
006FFFFFFFD9F50000
0003BFFFE810C50000
000001320000000000
ENDCHAR
STARTCHAR Dcroat
ENCODING 272
SWIDTH 672 0
DWIDTH 16 0
BBX 16 17 0 0
BITMAP
00CCCCCCA6100000
00FFFFFFFFE70000
00FFFFFFFFFFB100
00FFFB89CFFFFA00
00FFF60003DFFF60
00FFF600001DFFD0
11FFF7100006FFF3
EFFFFFF50001FFF6
EFFFFFF50000EFF7
EFFFFFF50000FFF6
12FFF7210004FFF4
00FFF600000CFFE0
00FFF60001BFFF70
00FFF9569EFFFC00
00FFFFFFFFFFD200
00FFFFFFFFFA1000
00FFFFFFD9300000
ENDCHAR
STARTCHAR dcroat
ENCODING 273
SWIDTH 606 0
DWIDTH 15 0
BBX 15 19 0 -1
BITMAP
0000000000788300
000000002DFFFE70
000000002FFFFF80
000000002FFFFF80
0000000015EFF930
00018DFFC4DFF500
004EFFFFFFFFF500
02EFFFFFFFFFF500
0BFFF944BFFFF500
2FFF70000AFFF500
5FFE000002FFF500
7FFC000000EFF500
6FFE000001FFF500
3FFF600008FFF500
0DFFE6118FFFF500
04FFFFFFFFFFF500
006FFFFFFFD9F500
0003BFFFE810C500
0000013200000000
ENDCHAR
STARTCHAR Emacron
ENCODING 274
SWIDTH 578 0
DWIDTH 14 0
BBX 13 21 1 0
BITMAP
00025555530000
0005FFFFF90000
0005FFFFF90000
00012222210000
5CCCCCCCCCCC10
7FFFFFFFFFFF10
7FFFFFFFFFFF10
7FFF8888888810
7FFE0000000000
7FFE0000000000
7FFE1111100000
7FFFFFFFF70000
7FFFFFFFF70000
7FFFFFFFF70000
7FFE4444420000
7FFE0000000000
7FFE0000000000
7FFE5555555500
7FFFFFFFFFFF10
7FFFFFFFFFFF10
7FFFFFFFFFFF10
ENDCHAR
STARTCHAR emacron
ENCODING 275
SWIDTH 524 0
DWIDTH 13 0
BBX 13 18 0 -1
BITMAP
00015555540000
0003FFFFFC0000
0003FFFFFC0000
00002222220000
00018DFEC71000
004EFFFFFFD300
03EFFFFFFFFE10
0BFFF948FFF800
2FFF702EFFB000
5FFF00BFFD1000
6FFC08FFE20000
6FFD4FFF400000
3FFFEFF6053000
0CFFFF916EE300
04FFFFFFFFFE10
006FFFFFFFE500
0003BFFFFA2000
00000133100000
ENDCHAR
STARTCHAR Ebreve
ENCODING 276
SWIDTH 578 0
DWIDTH 14 0
BBX 13 22 1 0
BITMAP
00014314300000
0005FC3FD00000
0002FFFFB00000
00006EFC300000
00000010000000
5CCCCCCCCCCC10
7FFFFFFFFFFF10
7FFFFFFFFFFF10
7FFF8888888810
7FFE0000000000
7FFE0000000000
7FFE1111100000
7FFFFFFFF70000
7FFFFFFFF70000
7FFFFFFFF70000
7FFE4444420000
7FFE0000000000
7FFE0000000000
7FFE5555555500
7FFFFFFFFFFF10
7FFFFFFFFFFF10
7FFFFFFFFFFF10
ENDCHAR
STARTCHAR ebreve
ENCODING 277
SWIDTH 524 0
DWIDTH 13 0
BBX 13 19 0 -1
BITMAP
00004414400000
0000FF2DF30000
0000DFFFF10000
00003DFE600000
00000010000000
00018DFEC71000
004EFFFFFFD300
03EFFFFFFFFE10
0BFFF948FFF800
2FFF702EFFB000
5FFF00BFFD1000
6FFC08FFE20000
6FFD4FFF400000
3FFFEFF6053000
0CFFFF916EE300
04FFFFFFFFFE10
006FFFFFFFE500
0003BFFFFA2000
00000133100000
ENDCHAR
STARTCHAR Edotaccent
ENCODING 278
SWIDTH 578 0
DWIDTH 14 0
BBX 13 21 1 0
BITMAP
000007D5000000
00001FFD000000
00000BF8000000
00000010000000
5CCCCCCCCCCC10
7FFFFFFFFFFF10
7FFFFFFFFFFF10
7FFF8888888810
7FFE0000000000
7FFE0000000000
7FFE1111100000
7FFFFFFFF70000
7FFFFFFFF70000
7FFFFFFFF70000
7FFE4444420000
7FFE0000000000
7FFE0000000000
7FFE5555555500
7FFFFFFFFFFF10
7FFFFFFFFFFF10
7FFFFFFFFFFF10
ENDCHAR
STARTCHAR edotaccent
ENCODING 279
SWIDTH 524 0
DWIDTH 13 0
BBX 13 18 0 -1
BITMAP
000003C9000000
00000AFF300000
000005FD100000
00000010000000
00018DFEC71000
004EFFFFFFD300
03EFFFFFFFFE10
0BFFF948FFF800
2FFF702EFFB000
5FFF00BFFD1000
6FFC08FFE20000
6FFD4FFF400000
3FFFEFF6053000
0CFFFF916EE300
04FFFFFFFFFE10
006FFFFFFFE500
0003BFFFFA2000
00000133100000
ENDCHAR
STARTCHAR Eogonek
ENCODING 280
SWIDTH 578 0
DWIDTH 14 0
BBX 13 22 1 -5
BITMAP
5CCCCCCCCCCC10
7FFFFFFFFFFF10
7FFFFFFFFFFF10
7FFF8888888810
7FFE0000000000
7FFE0000000000
7FFE1111100000
7FFFFFFFF70000
7FFFFFFFF70000
7FFFFFFFF70000
7FFE4444420000
7FFE0000000000
7FFE0000000000
7FFE5555555500
7FFFFFFFFFFF10
7FFFFFFFFFFF10
7FFFFFFFFFFF10
00000004FA0000
0000000DF44000
0000000EFFF800
00000006FFF700
00000000241000
ENDCHAR
STARTCHAR eogonek
ENCODING 281
SWIDTH 524 0
DWIDTH 13 0
BBX 13 18 0 -5
BITMAP
00018DFEC71000
004EFFFFFFD300
03EFFFFFFFFE10
0BFFF948FFF800
2FFF702EFFB000
5FFF00BFFD1000
6FFC08FFE20000
6FFD4FFF400000
3FFFEFF6053000
0CFFFF916EE300
04FFFFFFFFFE10
006FFFFFFFF500
0003BFFFFD2000
0000013EE20000
0000007FA31000
0000008FFFC100
0000002DFFB200
00000000320000
ENDCHAR
STARTCHAR Ecaron
ENCODING 282
SWIDTH 578 0
DWIDTH 14 0
BBX 13 22 1 0
BITMAP
0000A204700000
0008FE7FF50000
0002DFFFB10000
00001CFB000000
00000170000000
5CCCCCCCCCCC10
7FFFFFFFFFFF10
7FFFFFFFFFFF10
7FFF8888888810
7FFE0000000000
7FFE0000000000
7FFE1111100000
7FFFFFFFF70000
7FFFFFFFF70000
7FFFFFFFF70000
7FFE4444420000
7FFE0000000000
7FFE0000000000
7FFE5555555500
7FFFFFFFFFFF10
7FFFFFFFFFFF10
7FFFFFFFFFFF10
ENDCHAR
STARTCHAR ecaron
ENCODING 283
SWIDTH 524 0
DWIDTH 13 0
BBX 13 20 0 -1
BITMAP
00007601910000
0003FF8CFB0000
00009FFFE30000
000007FE300000
00000053000000
00000000000000
00018DFEC71000
004EFFFFFFD300
03EFFFFFFFFE10
0BFFF948FFF800
2FFF702EFFB000
5FFF00BFFD1000
6FFC08FFE20000
6FFD4FFF400000
3FFFEFF6053000
0CFFFF916EE300
04FFFFFFFFFE10
006FFFFFFFE500
0003BFFFFA2000
00000133100000
ENDCHAR
STARTCHAR Gcircumflex
ENCODING 284
SWIDTH 665 0
DWIDTH 16 0
BBX 15 24 0 -1
BITMAP
0000000053000000
00000006FE400000
0000007FFFF50000
000001EFABFD0000
0000003900930000
0000000000000000
0000017CEFDA5000
00007FFFFFFFFD40
000AFFFFFFFFFFA0
008FFFFA668DFE20
04FFFD3000007700
0AFFE20000000000
1FFF700000000000
4FFF200000000000
5FFF000000025550
5FFF10000005FFE0
2FFF50000005FFE0
0CFFC0000005FFE0
06FFF9000005FFE0
00CFFFC51029FFE0
002EFFFFFFFFFFE0
0002CFFFFFFFFF90
000006CFFFFFB400
0000000255410000
ENDCHAR
STARTCHAR gcircumflex
ENCODING 285
SWIDTH 607 0
DWIDTH 15 0
BBX 14 24 0 -5
BITMAP
00000053000000
000007FE300000
00007FFFE40000
0002EF9BFC0000
00004801A20000
00000000000000
00018DFEB50053
003EFFFFFFB5F6
02EFFFFFFFFFF6
0BFFF944BFFFF6
2FFF70000AFFF6
5FFF000001FFF6
6FFD000000DFF6
6FFE000000EFF6
3FFF500007FFF6
0DFFE6117FFFF6
05FFFFFFFFFFF6
007FFFFFFFFFF5
0004BFFFFBFFF4
0000013319FFE0
00000467BFFF80
00000AFFFFFC10
00000AFFFFB100
000008CB940000
ENDCHAR
STARTCHAR Gbreve
ENCODING 286
SWIDTH 665 0
DWIDTH 16 0
BBX 15 23 0 -1
BITMAP
0000002422420000
0000009F97F90000
0000006FFFF80000
00000009FFB10000
0000000000000000
0000017CEFDA5000
00007FFFFFFFFD40
000AFFFFFFFFFFA0
008FFFFA668DFE20
04FFFD3000007700
0AFFE20000000000
1FFF700000000000
4FFF200000000000
5FFF000000025550
5FFF10000005FFE0
2FFF50000005FFE0
0CFFC0000005FFE0
06FFF9000005FFE0
00CFFFC51029FFE0
002EFFFFFFFFFFE0
0002CFFFFFFFFF90
000006CFFFFFB400
0000000255410000
ENDCHAR
STARTCHAR gbreve
ENCODING 287
SWIDTH 607 0
DWIDTH 15 0
BBX 14 23 0 -5
BITMAP
00003423410000
0000BF69F70000
00009FFFF50000
00001BFF900000
00000000000000
00018DFEB50053
003EFFFFFFB5F6
02EFFFFFFFFFF6
0BFFF944BFFFF6
2FFF70000AFFF6
5FFF000001FFF6
6FFD000000DFF6
6FFE000000EFF6
3FFF500007FFF6
0DFFE6117FFFF6
05FFFFFFFFFFF6
007FFFFFFFFFF5
0004BFFFFBFFF4
0000013319FFE0
00000467BFFF80
00000AFFFFFC10
00000AFFFFB100
000008CB940000
ENDCHAR
STARTCHAR Gdotaccent
ENCODING 288
SWIDTH 665 0
DWIDTH 16 0
BBX 15 22 0 -1
BITMAP
00000002BB100000
00000008FF600000
00000003EE200000
0000000010000000
0000017CEFDA5000
00007FFFFFFFFD40
000AFFFFFFFFFFA0
008FFFFA668DFE20
04FFFD3000007700
0AFFE20000000000
1FFF700000000000
4FFF200000000000
5FFF000000025550
5FFF10000005FFE0
2FFF50000005FFE0
0CFFC0000005FFE0
06FFF9000005FFE0
00CFFFC51029FFE0
002EFFFFFFFFFFE0
0002CFFFFFFFFF90
000006CFFFFFB400
0000000255410000
ENDCHAR
STARTCHAR gdotaccent
ENCODING 289
SWIDTH 607 0
DWIDTH 15 0
BBX 14 22 0 -5
BITMAP
000003CA000000
000009FF400000
000005FD100000
00000010000000
00018DFEB50053
003EFFFFFFB5F6
02EFFFFFFFFFF6
0BFFF944BFFFF6
2FFF70000AFFF6
5FFF000001FFF6
6FFD000000DFF6
6FFE000000EFF6
3FFF500007FFF6
0DFFE6117FFFF6
05FFFFFFFFFFF6
007FFFFFFFFFF5
0004BFFFFBFFF4
0000013319FFE0
00000467BFFF80
00000AFFFFFC10
00000AFFFFB100
000008CB940000
ENDCHAR
STARTCHAR Gcommaaccent
ENCODING 290
SWIDTH 665 0
DWIDTH 16 0
BBX 15 23 0 -6
BITMAP
0000017CEFDA5000
00007FFFFFFFFD40
000AFFFFFFFFFFA0
008FFFFA668DFE20
04FFFD3000007700
0AFFE20000000000
1FFF700000000000
4FFF200000000000
5FFF000000025550
5FFF10000005FFE0
2FFF50000005FFE0
0CFFC0000005FFE0
06FFF9000005FFE0
00CFFFC51029FFE0
002EFFFFFFFFFFE0
0002CFFFFFFFFF90
000006CFFFFFB400
0000000255410000
00000002BA100000
00000009FF700000
00000007FF700000
000000009F300000
00000000AA000000
ENDCHAR
STARTCHAR gcommaaccent
ENCODING 291
SWIDTH 607 0
DWIDTH 15 0
BBX 14 24 0 -5
BITMAP
00000083000000
000005F5000000
00000AFC100000
00000CFF500000
000007FE200000
00000021000000
00018DFEB50053
003EFFFFFFB5F6
02EFFFFFFFFFF6
0BFFF944BFFFF6
2FFF70000AFFF6
5FFF000001FFF6
6FFD000000DFF6
6FFE000000EFF6
3FFF500007FFF6
0DFFE6117FFFF6
05FFFFFFFFFFF6
007FFFFFFFFFF5
0004BFFFFBFFF4
0000013319FFE0
00000467BFFF80
00000AFFFFFC10
00000AFFFFB100
000008CB940000
ENDCHAR
STARTCHAR Hcircumflex
ENCODING 292
SWIDTH 689 0
DWIDTH 17 0
BBX 14 22 1 0
BITMAP
00000026000000
000002DF800000
00003EFFF90000
0000AFD8FF3000
00001A20570000
5CCB0000004CCC
7FFE0000005FFF
7FFE0000005FFF
7FFE0000005FFF
7FFE0000005FFF
7FFE0000005FFF
7FFE1111116FFF
7FFFFFFFFFFFFF
7FFFFFFFFFFFFF
7FFFFFFFFFFFFF
7FFE4444448FFF
7FFE0000005FFF
7FFE0000005FFF
7FFE0000005FFF
7FFE0000005FFF
7FFE0000005FFF
7FFE0000005FFF
ENDCHAR
STARTCHAR hcircumflex
ENCODING 293
SWIDTH 562 0
DWIDTH 13 0
BBX 12 18 1 0
BITMAP
688300350000
CFF603EF7000
CFF64EFFF800
CFF6BFC8FF20
CFF61A107600
CFF88BB82000
CFFFFFFFF600
CFFFFFFFFF50
CFFFD79EFFD0
CFFD1003FFF4
CFF70000DFF6
CFF60000CFF7
CFF60000CFF7
CFF60000CFF7
CFF60000CFF7
CFF60000CFF7
CFF60000CFF7
CFF60000CFF7
ENDCHAR
STARTCHAR Hbar
ENCODING 294
SWIDTH 689 0
DWIDTH 17 0
BBX 17 17 0 0
BITMAP
05CCB0000004CCC000
07FFE0000005FFF000
7DFFFBBBBBBCFFFB20
AFFFFFFFFFFFFFFF30
AFFFFFFFFFFFFFFF30
4AFFE777777AFFF710
07FFE1111116FFF000
07FFFFFFFFFFFFF000
07FFFFFFFFFFFFF000
07FFFFFFFFFFFFF000
07FFE4444448FFF000
07FFE0000005FFF000
07FFE0000005FFF000
07FFE0000005FFF000
07FFE0000005FFF000
07FFE0000005FFF000
07FFE0000005FFF000
ENDCHAR
STARTCHAR hbar
ENCODING 295
SWIDTH 562 0
DWIDTH 13 0
BBX 13 18 0 0
BITMAP
06883000000000
CEFFD700000000
FFFFF800000000
FFFFF800000000
2CFF8100000000
0CFF88BB820000
0CFFFFFFFF6000
0CFFFFFFFFF500
0CFFFD79EFFD00
0CFFD1003FFF40
0CFF70000DFF60
0CFF60000CFF70
0CFF60000CFF70
0CFF60000CFF70
0CFF60000CFF70
0CFF60000CFF70
0CFF60000CFF70
0CFF60000CFF70
ENDCHAR
STARTCHAR Itilde
ENCODING 296
SWIDTH 270 0
DWIDTH 6 0
BBX 9 22 -1 0
BITMAP
0376016800
4FFFB5FF10
9FFFFFFF00
8FC2CFF900
2760054000
005CCB0000
007FFE0000
007FFE0000
007FFE0000
007FFE0000
007FFE0000
007FFE0000
007FFE0000
007FFE0000
007FFE0000
007FFE0000
007FFE0000
007FFE0000
007FFE0000
007FFE0000
007FFE0000
007FFE0000
ENDCHAR
STARTCHAR itilde
ENCODING 297
SWIDTH 235 0
DWIDTH 6 0
BBX 8 18 -1 0
BITMAP
06730475
AFFF6AFA
FFFFFFF9
EF65EFF3
57302520
00688400
00CFF700
00CFF700
00CFF700
00CFF700
00CFF700
00CFF700
00CFF700
00CFF700
00CFF700
00CFF700
00CFF700
00CFF700
ENDCHAR
STARTCHAR Imacron
ENCODING 298
SWIDTH 270 0
DWIDTH 6 0
BBX 7 21 0 0
BITMAP
35555510
BFFFFF30
BFFFFF30
22222200
05CCB000
07FFE000
07FFE000
07FFE000
07FFE000
07FFE000
07FFE000
07FFE000
07FFE000
07FFE000
07FFE000
07FFE000
07FFE000
07FFE000
07FFE000
07FFE000
07FFE000
ENDCHAR
STARTCHAR imacron
ENCODING 299
SWIDTH 235 0
DWIDTH 6 0
BBX 7 17 -1 0
BITMAP
05555540
2FFFFFC0
2FFFFFC0
02222220
00688400
00CFF700
00CFF700
00CFF700
00CFF700
00CFF700
00CFF700
00CFF700
00CFF700
00CFF700
00CFF700
00CFF700
00CFF700
ENDCHAR
STARTCHAR Ibreve
ENCODING 300
SWIDTH 270 0
DWIDTH 6 0
BBX 6 22 0 0
BITMAP
144143
5FC3FD
2FFFFB
06EFD3
000100
05CCB0
07FFE0
07FFE0
07FFE0
07FFE0
07FFE0
07FFE0
07FFE0
07FFE0
07FFE0
07FFE0
07FFE0
07FFE0
07FFE0
07FFE0
07FFE0
07FFE0
ENDCHAR
STARTCHAR ibreve
ENCODING 301
SWIDTH 235 0
DWIDTH 6 0
BBX 6 18 0 0
BITMAP
342341
CF6AF6
9FFFF5
1BFF90
000000
068840
0CFF70
0CFF70
0CFF70
0CFF70
0CFF70
0CFF70
0CFF70
0CFF70
0CFF70
0CFF70
0CFF70
0CFF70
ENDCHAR
STARTCHAR Iogonek
ENCODING 302
SWIDTH 270 0
DWIDTH 6 0
BBX 6 22 0 -5
BITMAP
05CCB0
07FFE0
07FFE0
07FFE0
07FFE0
07FFE0
07FFE0
07FFE0
07FFE0
07FFE0
07FFE0
07FFE0
07FFE0
07FFE0
07FFE0
07FFE0
07FFE0
07F700
1FF230
2FFFF5
09FFE5
002300
ENDCHAR
STARTCHAR iogonek
ENCODING 303
SWIDTH 235 0
DWIDTH 6 0
BBX 6 23 0 -5
BITMAP
08FE40
3FFFD0
3FFFE0
09FE50
001100
068840
0CFF70
0CFF70
0CFF70
0CFF70
0CFF70
0CFF70
0CFF70
0CFF70
0CFF70
0CFF70
0CFF70
0CFF70
0AF300
5FC220
6FFFD2
1CFFC2
003300
ENDCHAR
STARTCHAR Idotaccent
ENCODING 304
SWIDTH 270 0
DWIDTH 6 0
BBX 4 21 1 0
BITMAP
09C3
3FFA
1DF5
0010
5CCB
7FFE
7FFE
7FFE
7FFE
7FFE
7FFE
7FFE
7FFE
7FFE
7FFE
7FFE
7FFE
7FFE
7FFE
7FFE
7FFE
ENDCHAR
STARTCHAR dotlessi
ENCODING 305
SWIDTH 235 0
DWIDTH 6 0
BBX 4 13 1 0
BITMAP
6884
CFF7
CFF7
CFF7
CFF7
CFF7
CFF7
CFF7
CFF7
CFF7
CFF7
CFF7
CFF7
ENDCHAR
STARTCHAR IJ
ENCODING 306
SWIDTH 687 0
DWIDTH 16 0
BBX 15 17 1 0
BITMAP
5CCB0000003CCC20
7FFE0000004FFF20
7FFE0000004FFF20
7FFE0000004FFF20
7FFE0000004FFF20
7FFE0000004FFF20
7FFE0000004FFF20
7FFE0000004FFF20
7FFE0000004FFF20
7FFE0000004FFF20
7FFE0000004FFF10
7FFE0000008FFF00
7FFE000003EFFB00
7FFE03869FFFF400
7FFE04FFFFFF9000
7FFE04FFFFF90000
7FFE03DFDA300000
ENDCHAR
STARTCHAR ij
ENCODING 307
SWIDTH 474 0
DWIDTH 11 0
BBX 11 24 0 -5
BITMAP
000000001000
08FE401BFC20
3FFFD07FFF90
3FFFE08FFF90
09FE501CFD20
001100002000
068840188810
0CFF701FFF30
0CFF701FFF30
0CFF701FFF30
0CFF701FFF30
0CFF701FFF30
0CFF701FFF30
0CFF701FFF30
0CFF701FFF30
0CFF701FFF30
0CFF701FFF30
0CFF702FFF20
0CFF705FFF00
000001DFFB00
00668EFFF400
00DFFFFF8000
00DFFFF70000
00ACA8200000
ENDCHAR
STARTCHAR Jcircumflex
ENCODING 308
SWIDTH 416 0
DWIDTH 10 0
BBX 10 23 0 0
BITMAP
0000005300
000006FE30
00007FFFE4
0002EF9BFD
00004800A3
0000000000
000009CC80
00000BFFA0
00000BFFA0
00000BFFA0
00000BFFA0
00000BFFA0
00000BFFA0
00000BFFA0
00000BFFA0
00000BFFA0
00000BFF90
00001EFF80
00009FFF30
867CFFFC00
CFFFFFE200
CFFFFD3000
AEEC710000
ENDCHAR
STARTCHAR jcircumflex
ENCODING 309
SWIDTH 237 0
DWIDTH 6 0
BBX 10 23 -4 -5
BITMAP
0000005300
000007FE30
00007FFFE4
0002EF9BFC
00004801A2
0000068840
00000BFF80
00000BFF80
00000BFF80
00000BFF80
00000BFF80
00000BFF80
00000BFF80
00000BFF80
00000BFF80
00000BFF80
00000CFF70
00001EFF50
00009FFF10
467CFFF900
8FFFFFD100
8FFFFB1000
6CB9400000
ENDCHAR
STARTCHAR Kcommaaccent
ENCODING 310
SWIDTH 625 0
DWIDTH 15 0
BBX 14 23 1 -6
BITMAP
5CCB000002CCC8
7FFE00000CFFE2
7FFE00008FFF40
7FFE0004FFF800
7FFE002EFFB000
7FFE00BFFE2000
7FFE08FFF40000
7FFE4FFFD00000
7FFEEFFFF50000
7FFFFFFFFD0000
7FFFFF9FFF7000
7FFFF80CFFE100
7FFFB004FFF800
7FFF2000BFFF20
7FFE00003FFFA0
7FFE000009FFF3
7FFE000002FFFB
00000000000000
000006C6000000
00001FFF100000
00000DFF000000
000001EB000000
000002E4000000
ENDCHAR
STARTCHAR kcommaaccent
ENCODING 311
SWIDTH 539 0
DWIDTH 13 0
BBX 12 24 1 -6
BITMAP
688400000000
CFF700000000
CFF700000000
CFF700000000
CFF700000000
CFF700008885
CFF70009FFE2
CFF7006FFF40
CFF703FFF700
CFF71DFFA000
CFF7BFFE1000
CFFDFFFF3000
CFFFFFFFB000
CFFFFCFFF500
CFFFC1BFFD00
CFFE203FFF70
CFF70009FFE1
CFF70002EFF9
000000000000
00007C600000
0001FFF00000
0000DFF00000
00001EB00000
00003E300000
ENDCHAR
STARTCHAR kgreenlandic
ENCODING 312
SWIDTH 539 0
DWIDTH 13 0
BBX 12 13 1 0
BITMAP
799400008885
CFF70009FFE2
CFF7006FFF40
CFF703FFF700
CFF71DFFA000
CFF7BFFE1000
CFFDFFFF3000
CFFFFFFFB000
CFFFFCFFF500
CFFFC1BFFD00
CFFE203FFF70
CFF70009FFE1
CFF70002EFF9
ENDCHAR
STARTCHAR Lacute
ENCODING 313
SWIDTH 562 0
DWIDTH 14 0
BBX 13 22 1 0
BITMAP
00000018000000
000001CF800000
00002DFFF30000
0000BFFD400000
00003E70000000
5CCB0100000000
7FFE0000000000
7FFE0000000000
7FFE0000000000
7FFE0000000000
7FFE0000000000
7FFE0000000000
7FFE0000000000
7FFE0000000000
7FFE0000000000
7FFE0000000000
7FFE0000000000
7FFE0000000000
7FFE5555555520
7FFFFFFFFFFF50
7FFFFFFFFFFF50
7FFFFFFFFFFF50
ENDCHAR
STARTCHAR lacute
ENCODING 314
SWIDTH 235 0
DWIDTH 6 0
BBX 7 24 1 0
BITMAP
00007100
0009FB00
00AFFF60
07FFE600
01DA1000
00100000
68840000
CFF70000
CFF70000
CFF70000
CFF70000
CFF70000
CFF70000
CFF70000
CFF70000
CFF70000
CFF70000
CFF70000
CFF70000
CFF70000
CFF70000
CFF70000
CFF70000
CFF70000
ENDCHAR
STARTCHAR Lcommaaccent
ENCODING 315
SWIDTH 562 0
DWIDTH 14 0
BBX 13 23 1 -6
BITMAP
5CCB0000000000
7FFE0000000000
7FFE0000000000
7FFE0000000000
7FFE0000000000
7FFE0000000000
7FFE0000000000
7FFE0000000000
7FFE0000000000
7FFE0000000000
7FFE0000000000
7FFE0000000000
7FFE0000000000
7FFE5555555520
7FFFFFFFFFFF50
7FFFFFFFFFFF50
7FFFFFFFFFFF50
00000000000000
00004C90000000
0000CFF4000000
00009FF4000000
00000BE1000000
00000C70000000
ENDCHAR
STARTCHAR lcommaaccent
ENCODING 316
SWIDTH 235 0
DWIDTH 6 0
BBX 4 24 1 -6
BITMAP
6884
CFF7
CFF7
CFF7
CFF7
CFF7
CFF7
CFF7
CFF7
CFF7
CFF7
CFF7
CFF7
CFF7
CFF7
CFF7
CFF7
CFF7
0000
3BA1
BFF6
8FF5
0AF2
0B80
ENDCHAR
STARTCHAR Lcaron
ENCODING 317
SWIDTH 562 0
DWIDTH 14 0
BBX 13 17 1 0
BITMAP
5CCB02BA100000
7FFE09FF700000
7FFE06FF700000
7FFE008F300000
7FFE00AA000000
7FFE0000000000
7FFE0000000000
7FFE0000000000
7FFE0000000000
7FFE0000000000
7FFE0000000000
7FFE0000000000
7FFE0000000000
7FFE5555555520
7FFFFFFFFFFF50
7FFFFFFFFFFF50
7FFFFFFFFFFF50
ENDCHAR
STARTCHAR lcaron
ENCODING 318
SWIDTH 369 0
DWIDTH 9 0
BBX 8 18 1 0
BITMAP
68840000
CFF709B3
CFF74FFC
CFF72FFC
CFF704F8
CFF705D1
CFF70010
CFF70000
CFF70000
CFF70000
CFF70000
CFF70000
CFF70000
CFF70000
CFF70000
CFF70000
CFF70000
CFF70000
ENDCHAR
STARTCHAR Ldot
ENCODING 319
SWIDTH 745 0
DWIDTH 18 0
BBX 16 17 1 0
BITMAP
5CCB000000000000
7FFE000000000000
7FFE000000000000
7FFE000000000000
7FFE000000000000
7FFE000000000000
7FFE000000001530
7FFE00000000CFF5
7FFE00000003FFFA
7FFE00000001EFF7
7FFE000000003860
7FFE000000000000
7FFE000000000000
7FFE555555552000
7FFFFFFFFFFF5000
7FFFFFFFFFFF5000
7FFFFFFFFFFF5000
ENDCHAR
STARTCHAR ldotaccent
ENCODING 320
SWIDTH 463 0
DWIDTH 11 0
BBX 9 18 1 0
BITMAP
6884000000
CFF7000000
CFF7000000
CFF7000000
CFF7000000
CFF7000000
CFF7000000
CFF7004400
CFF709FF90
CFF70EFFE0
CFF70BFFB0
CFF7017810
CFF7000000
CFF7000000
CFF7000000
CFF7000000
CFF7000000
CFF7000000
ENDCHAR
STARTCHAR Lslash
ENCODING 321
SWIDTH 585 0
DWIDTH 14 0
BBX 14 17 0 0
BITMAP
00BCC600000000
00DFF700000000
00DFF700000000
00DFF700000000
00DFF700000000
00DFF885000000
00DFFFF6000000
00EFFFF6000000
5DFFFFA2000000
CFFFF800000000
CFFFF700000000
A5DFF700000000
00DFF700000000
00DFFA55555555
00DFFFFFFFFFFD
00DFFFFFFFFFFD
00DFFFFFFFFFFD
ENDCHAR
STARTCHAR lslash
ENCODING 322
SWIDTH 319 0
DWIDTH 8 0
BBX 8 18 0 0
BITMAP
00788300
00DFF600
00DFF600
00DFF600
00DFF600
00DFF600
00DFF686
00DFFFF7
00DFFFF7
4CFFFFA2
CFFFF700
CFFFF600
A5DFF600
00DFF600
00DFF600
00DFF600
00DFF600
00DFF600
ENDCHAR
STARTCHAR Nacute
ENCODING 323
SWIDTH 689 0
DWIDTH 17 0
BBX 14 22 1 0
BITMAP
00000000170000
00000002DF6000
0000003EFFE100
000000DFFC3000
0000005E600000
5CCC5001004CCC
7FFFD100005FFF
7FFFF800005FFF
7FFFFF20005FFF
7FFFFFA0005FFF
7FFFFFF4005FFF
7FFEBFFC005FFF
7FFE3FFF705FFF
7FFE09FFE15FFF
7FFE01EFF95FFF
7FFE006FFF8FFF
7FFE000CFFFFFF
7FFE0004FFFFFF
7FFE0000AFFFFF
7FFE00002EFFFF
7FFE000007FFFF
7FFE000000DFFF
ENDCHAR
STARTCHAR nacute
ENCODING 324
SWIDTH 562 0
DWIDTH 13 0
BBX 12 19 1 0
BITMAP
000000017000
0000002DF700
000002DFFF20
00000CFFC300
000004E70000
000000100000
62049BB82000
CDAFFFFFF600
CFFFFFFFFF50
CFFFD79EFFD0
CFFD1003FFF4
CFF70000DFF6
CFF60000CFF7
CFF60000CFF7
CFF60000CFF7
CFF60000CFF7
CFF60000CFF7
CFF60000CFF7
CFF60000CFF7
ENDCHAR
STARTCHAR Ncommaaccent
ENCODING 325
SWIDTH 689 0
DWIDTH 17 0
BBX 14 23 1 -6
BITMAP
5CCC5000004CCC
7FFFD100005FFF
7FFFF800005FFF
7FFFFF20005FFF
7FFFFFA0005FFF
7FFFFFF4005FFF
7FFEBFFC005FFF
7FFE3FFF705FFF
7FFE09FFE15FFF
7FFE01EFF95FFF
7FFE006FFF8FFF
7FFE000CFFFFFF
7FFE0004FFFFFF
7FFE0000AFFFFF
7FFE00002EFFFF
7FFE000007FFFF
7FFE000000DFFF
00000000000000
0000009C400000
000004FFC00000
000002EFC00000
0000003F800000
0000005E200000
ENDCHAR
STARTCHAR ncommaaccent
ENCODING 326
SWIDTH 562 0
DWIDTH 13 0
BBX 12 19 1 -6
BITMAP
62049BB82000
CDAFFFFFF600
CFFFFFFFFF50
CFFFD79EFFD0
CFFD1003FFF4
CFF70000DFF6
CFF60000CFF7
CFF60000CFF7
CFF60000CFF7
CFF60000CFF7
CFF60000CFF7
CFF60000CFF7
CFF60000CFF7
000000000000
00004C900000
0000CFF40000
00009FF40000
00000BE10000
00000C700000
ENDCHAR
STARTCHAR Ncaron
ENCODING 327
SWIDTH 689 0
DWIDTH 17 0
BBX 14 22 1 0
BITMAP
00001A10660000
0000AFD8FF3000
00003EFFF90000
000002DF900000
00000017000000
5CCC5000004CCC
7FFFD100005FFF
7FFFF800005FFF
7FFFFF20005FFF
7FFFFFA0005FFF
7FFFFFF4005FFF
7FFEBFFC005FFF
7FFE3FFF705FFF
7FFE09FFE15FFF
7FFE01EFF95FFF
7FFE006FFF8FFF
7FFE000CFFFFFF
7FFE0004FFFFFF
7FFE0000AFFFFF
7FFE00002EFFFF
7FFE000007FFFF
7FFE000000DFFF
ENDCHAR
STARTCHAR ncaron
ENCODING 328
SWIDTH 562 0
DWIDTH 13 0
BBX 12 18 1 0
BITMAP
000760191000
003FF8DFA000
0009FFFE3000
00008FE30000
000006200000
62049BB82000
CDAFFFFFF600
CFFFFFFFFF50
CFFFD79EFFD0
CFFD1003FFF4
CFF70000DFF6
CFF60000CFF7
CFF60000CFF7
CFF60000CFF7
CFF60000CFF7
CFF60000CFF7
CFF60000CFF7
CFF60000CFF7
ENDCHAR
STARTCHAR napostrophe
ENCODING 329
SWIDTH 694 0
DWIDTH 17 0
BBX 16 17 0 0
BITMAP
5C70000000000000
EFF2000000000000
CFF2000000000000
1DD0000000000000
1E5053038BB93000
01009E9FFFFFF800
00009FFFFFFFFF80
00009FFFE88EFFF2
00009FFE2002EFF7
00009FFA0000AFF9
00009FF900009FF9
00009FF900009FF9
00009FF900009FF9
00009FF900009FF9
00009FF900009FF9
00009FF900009FF9
00009FF900009FF9
ENDCHAR
STARTCHAR Eng
ENCODING 330
SWIDTH 689 0
DWIDTH 17 0
BBX 14 22 1 -5
BITMAP
5CCC5000004CCC
7FFFD100005FFF
7FFFF800005FFF
7FFFFF20005FFF
7FFFFFA0005FFF
7FFFFFF4005FFF
7FFEBFFC005FFF
7FFE3FFF705FFF
7FFE09FFE15FFF
7FFE01EFF95FFF
7FFE006FFF8FFF
7FFE000CFFFFFF
7FFE0004FFFFFF
7FFE0000AFFFFF
7FFE00002EFFFF
7FFE000008FFFE
7FFE000001EFFC
0000000007FFF8
000006A9CFFFE1
000006FFFFFF50
000006FFFFE400
000004BCA61000
ENDCHAR
STARTCHAR eng
ENCODING 331
SWIDTH 562 0
DWIDTH 13 0
BBX 12 18 1 -5
BITMAP
62049BB82000
CDAFFFFFF600
CFFFFFFFFF50
CFFFD79EFFD0
CFFD1003FFF4
CFF70000DFF6
CFF60000CFF7
CFF60000CFF7
CFF60000CFF7
CFF60000CFF7
CFF60000CFF7
CFF60000CFF6
CFF60001FFF5
00000009FFF1
000467CFFF90
0009FFFFFD10
0009FFFFB100
0007CB940000
ENDCHAR
STARTCHAR Omacron
ENCODING 332
SWIDTH 777 0
DWIDTH 19 0
BBX 18 22 0 -1
BITMAP
000000355555100000
000000AFFFFF400000
000000AFFFFF400000
000000122222100000
0000017CEFEB500000
00007FFFFFFFFD4000
000AFFFFFFFFFFF600
008FFFFA657CFFFF40
04FFFD3000006FFFD0
0AFFE200000006FFF5
1FFF7000000000CFFB
4FFF20000000007FFE
5FFF00000000005FFF
5FFF10000000006FFF
2FFF5000000000AFFC
0CFFC000000003FFF7
06FFFA0000002DFFF1
00CFFFC51027EFFF70
002EFFFFFFFFFFFB00
0002CFFFFFFFFF9000
000006CFFFFFA40000
000000025541000000
ENDCHAR
STARTCHAR omacron
ENCODING 333
SWIDTH 579 0
DWIDTH 14 0
BBX 14 18 0 -1
BITMAP
00005555540000
0000FFFFFE0000
0000FFFFFE0000
00002222220000
00018DFFC71000
004EFFFFFFD300
02EFFFFFFFFE20
0BFFF945AFFFA0
2FFF700009FFF1
5FFE000001FFF4
7FFC000000EFF5
6FFE000001FFF4
3FFF500007FFF1
0CFFE6117FFFA0
04FFFFFFFFFE20
006FFFFFFFE400
0003BFFFFA2000
00000133100000
ENDCHAR
STARTCHAR Obreve
ENCODING 334
SWIDTH 777 0
DWIDTH 19 0
BBX 18 23 0 -1
BITMAP
000000044043000000
0000003FE2FF000000
0000001FFFFD000000
00000005EFD4000000
000000000100000000
0000017CEFEB500000
00007FFFFFFFFD4000
000AFFFFFFFFFFF600
008FFFFA657CFFFF40
04FFFD3000006FFFD0
0AFFE200000006FFF5
1FFF7000000000CFFB
4FFF20000000007FFE
5FFF00000000005FFF
5FFF10000000006FFF
2FFF5000000000AFFC
0CFFC000000003FFF7
06FFFA0000002DFFF1
00CFFFC51027EFFF70
002EFFFFFFFFFFFB00
0002CFFFFFFFFF9000
000006CFFFFFA40000
000000025541000000
ENDCHAR
STARTCHAR obreve
ENCODING 335
SWIDTH 579 0
DWIDTH 14 0
BBX 14 19 0 -1
BITMAP
00002422420000
00009F87F90000
00006FFFF70000
000009FFA10000
00000000000000
00018DFFC71000
004EFFFFFFD300
02EFFFFFFFFE20
0BFFF945AFFFA0
2FFF700009FFF1
5FFE000001FFF4
7FFC000000EFF5
6FFE000001FFF4
3FFF500007FFF1
0CFFE6117FFFA0
04FFFFFFFFFE20
006FFFFFFFE400
0003BFFFFA2000
00000133100000
ENDCHAR
STARTCHAR Ohungarumlaut
ENCODING 336
SWIDTH 777 0
DWIDTH 19 0
BBX 18 25 0 -1
BITMAP
000000009500200000
00000006FF61DB1000
0000003FFF9BFFB000
000000DFF77FFE3000
0000007F50DFD20000
000000020019100000
000000000000000000
0000017CEFEB500000
00007FFFFFFFFD4000
000AFFFFFFFFFFF600
008FFFFA657CFFFF40
04FFFD3000006FFFD0
0AFFE200000006FFF5
1FFF7000000000CFFB
4FFF20000000007FFE
5FFF00000000005FFF
5FFF10000000006FFF
2FFF5000000000AFFC
0CFFC000000003FFF7
06FFFA0000002DFFF1
00CFFFC51027EFFF70
002EFFFFFFFFFFFB00
0002CFFFFFFFFF9000
000006CFFFFFA40000
000000025541000000
ENDCHAR
STARTCHAR ohungarumlaut
ENCODING 337
SWIDTH 579 0
DWIDTH 14 0
BBX 14 20 0 -1
BITMAP
000001B2003000
00000BFE34F700
00007FFE6EFF70
0003FFE4CFFB10
0001BD23FFA000
00000100470000
00018DFFC71000
004EFFFFFFD300
02EFFFFFFFFE20
0BFFF945AFFFA0
2FFF700009FFF1
5FFE000001FFF4
7FFC000000EFF5
6FFE000001FFF4
3FFF500007FFF1
0CFFE6117FFFA0
04FFFFFFFFFE20
006FFFFFFFE400
0003BFFFFA2000
00000133100000
ENDCHAR
STARTCHAR OE
ENCODING 338
SWIDTH 1125 0
DWIDTH 27 0
BBX 27 18 0 -1
BITMAP
0000017CEFEB604CCCCCCCCCCC30
00007FFFFFFFFD8FFFFFFFFFFF40
000AFFFFFFFFFFFFFFFFFFFFFF40
008FFFFA657CFFFFFF9888888820
04FFFD3000006FFFFF1000000000
0AFFE200000006FFFF1000000000
1FFF7000000000CFFF2111110000
4FFF20000000007FFFFFFFF90000
5FFF00000000005FFFFFFFF90000
5FFF10000000006FFFFFFFF90000
2FFF5000000000AFFF5444420000
0CFFC000000003FFFF1000000000
06FFFA0000002DFFFF1000000000
00CFFFC51027EFFFFF6555555510
002EFFFFFFFFFFFFFFFFFFFFFF40
0002CFFFFFFFFFCFFFFFFFFFFF40
000006CFFFFFB44FFFFFFFFFFF40
0000000255410000000000000000
ENDCHAR
STARTCHAR oe
ENCODING 339
SWIDTH 924 0
DWIDTH 22 0
BBX 22 14 0 -1
BITMAP
00018DFFC71004AEFEA400
004EFFFFFFE39FFFFFFF90
02EFFFFFFFFFFFFFFFFFF8
0BFFF945AFFFFFE74DFFE3
2FFF700009FFFE206FFF50
5FFE000001FFF903FFF800
7FFC000000EFF61DFFA000
6FFE000001FFF7AFFC1000
3FFF500007FFFEFFE20810
0CFFE6117FFFFFFF32AFB1
04FFFFFFFFFFFFFFFFFFF8
006FFFFFFFF5BFFFFFFFC1
0003BFFFFA2007DFFFD700
0000013310000002320000
ENDCHAR
STARTCHAR Racute
ENCODING 340
SWIDTH 651 0
DWIDTH 16 0
BBX 14 23 1 0
BITMAP
00000000720000
00000009FC0000
000000AFFF7000
000007FFE60000
000001DA200000
00000010000000
5CCCCCCCA60000
7FFFFFFFFFE400
7FFFFFFFFFFF40
7FFF8889CFFFE1
7FFE000007FFF7
7FFE000000BFFC
7FFE0000006FFE
7FFE0000007FFE
7FFE000000CFFC
7FFE000019FFF6
7FFFBBBBEFFFD1
7FFFFFFFFFFE30
7FFFFFFFFFF200
7FFFA99BFFF400
7FFE0000EFFA00
7FFE00007FFF10
7FFE00001FFF80
ENDCHAR
STARTCHAR racute
ENCODING 341
SWIDTH 414 0
DWIDTH 10 0
BBX 9 19 1 0
BITMAP
0000017000
00002DF600
0002DFFF20
000DFFC300
0004E70000
0000100000
6201578850
CB6EFFFFA0
CFFFFFFFA0
CFFFEBAA70
CFFE200000
CFF8000000
CFF6000000
CFF6000000
CFF6000000
CFF6000000
CFF6000000
CFF6000000
CFF6000000
ENDCHAR
STARTCHAR Rcommaaccent
ENCODING 342
SWIDTH 651 0
DWIDTH 16 0
BBX 14 23 1 -6
BITMAP
5CCCCCCCA60000
7FFFFFFFFFE400
7FFFFFFFFFFF40
7FFF8889CFFFE1
7FFE000007FFF7
7FFE000000BFFC
7FFE0000006FFE
7FFE0000007FFE
7FFE000000CFFC
7FFE000019FFF6
7FFFBBBBEFFFD1
7FFFFFFFFFFE30
7FFFFFFFFFF200
7FFFA99BFFF400
7FFE0000EFFA00
7FFE00007FFF10
7FFE00001FFF80
00000000000000
000003BA100000
00000BFF600000
000008FF500000
000000AF200000
000000B8000000
ENDCHAR
STARTCHAR rcommaaccent
ENCODING 343
SWIDTH 414 0
DWIDTH 10 0
BBX 9 19 1 -6
BITMAP
6201578850
CB6EFFFFA0
CFFFFFFFA0
CFFFEBAA70
CFFE200000
CFF8000000
CFF6000000
CFF6000000
CFF6000000
CFF6000000
CFF6000000
CFF6000000
CFF6000000
0000000000
4C90000000
CFF5000000
9FF4000000
0BF1000000
0C70000000
ENDCHAR
STARTCHAR Rcaron
ENCODING 344
SWIDTH 651 0
DWIDTH 16 0
BBX 14 22 1 0
BITMAP
00006701910000
0002FF8CFB0000
00008FFFE40000
000007FE300000
00000053000000
5CCCCCCCA60000
7FFFFFFFFFE400
7FFFFFFFFFFF40
7FFF8889CFFFE1
7FFE000007FFF7
7FFE000000BFFC
7FFE0000006FFE
7FFE0000007FFE
7FFE000000CFFC
7FFE000019FFF6
7FFFBBBBEFFFD1
7FFFFFFFFFFE30
7FFFFFFFFFF200
7FFFA99BFFF400
7FFE0000EFFA00
7FFE00007FFF10
7FFE00001FFF80
ENDCHAR
STARTCHAR rcaron
ENCODING 345
SWIDTH 414 0
DWIDTH 10 0
BBX 9 18 1 0
BITMAP
0490092000
1EFAAFD000
06FFFF5000
005FF50000
0003400000
6201578850
CB6EFFFFA0
CFFFFFFFA0
CFFFEBAA70
CFFE200000
CFF8000000
CFF6000000
CFF6000000
CFF6000000
CFF6000000
CFF6000000
CFF6000000
CFF6000000
ENDCHAR
STARTCHAR Sacute
ENCODING 346
SWIDTH 610 0
DWIDTH 15 0
BBX 14 23 0 0
BITMAP
00000000072000
000000009FC000
0000000AFFF700
0000007FFE6000
0000001DA20000
00000001000000
0005ACCCCCCCC4
00AFFFFFFFFFF5
09FFFFFFFFFFF5
2FFFE988888883
5FFF2000000000
6FFF0000000000
4FFF9211100000
0DFFFFFFFFC600
03EFFFFFFFFF90
003CFFFFFFFFF5
0000244446EFFC
00000000007FFF
00000000007FFE
0355555557EFFB
07FFFFFFFFFFF5
07FFFFFFFFFF80
07FFFFFFFEB400
ENDCHAR
STARTCHAR sacute
ENCODING 347
SWIDTH 523 0
DWIDTH 13 0
BBX 13 19 0 0
BITMAP
00000000620000
00000007FD1000
0000008FFF8000
000006FFF70000
000000CB200000
00000010000000
00048888888200
01BFFFFFFFF400
09FFFFFFFFF400
1FFFCAAAAAA300
3FFF1000000000
1FFFDBBBA71000
09FFFFFFFFD200
01AFFFFFFFFB00
000377779FFF10
133333337FFF10
3FFFFFFFFFFB00
3FFFFFFFFFE300
3FFFFFFFEB2000
ENDCHAR
STARTCHAR Scircumflex
ENCODING 348
SWIDTH 610 0
DWIDTH 15 0
BBX 14 23 0 0
BITMAP
00000016000000
000002DF900000
00002DFFFA0000
00009FD7FF4000
00000A20580000
00000000000000
0005ACCCCCCCC4
00AFFFFFFFFFF5
09FFFFFFFFFFF5
2FFFE988888883
5FFF2000000000
6FFF0000000000
4FFF9211100000
0DFFFFFFFFC600
03EFFFFFFFFF90
003CFFFFFFFFF5
0000244446EFFC
00000000007FFF
00000000007FFE
0355555557EFFB
07FFFFFFFFFFF5
07FFFFFFFFFF80
07FFFFFFFEB400
ENDCHAR
STARTCHAR scircumflex
ENCODING 349
SWIDTH 523 0
DWIDTH 13 0
BBX 13 18 0 0
BITMAP
00000260000000
00002DF8000000
0003EFFF900000
000AFD8FF40000
0001A205800000
00048888888200
01BFFFFFFFF400
09FFFFFFFFF400
1FFFCAAAAAA300
3FFF1000000000
1FFFDBBBA71000
09FFFFFFFFD200
01AFFFFFFFFB00
000377779FFF10
133333337FFF10
3FFFFFFFFFFB00
3FFFFFFFFFE300
3FFFFFFFEB2000
ENDCHAR
STARTCHAR Scedilla
ENCODING 350
SWIDTH 610 0
DWIDTH 15 0
BBX 14 23 0 -6
BITMAP
0005ACCCCCCCC4
00AFFFFFFFFFF5
09FFFFFFFFFFF5
2FFFE988888883
5FFF2000000000
6FFF0000000000
4FFF9211100000
0DFFFFFFFFC600
03EFFFFFFFFF90
003CFFFFFFFFF5
0000244446EFFC
00000000007FFF
00000000007FFE
0355555557EFFB
07FFFFFFFFFFF5
07FFFFFFFFFF80
07FFFFFFFEB400
0000004F300000
0000009FE30000
0000013AFB0000
00000CCDFB0000
00001DFFF40000
00000045200000
ENDCHAR
STARTCHAR scedilla
ENCODING 351
SWIDTH 523 0
DWIDTH 13 0
BBX 13 19 0 -6
BITMAP
00048888888200
01BFFFFFFFF400
09FFFFFFFFF400
1FFFCAAAAAA300
3FFF1000000000
1FFFDBBBA71000
09FFFFFFFFD200
01AFFFFFFFFB00
000377779FFF10
133333337FFF10
3FFFFFFFFFFB00
3FFFFFFFFFE300
3FFFFFFFEB2000
000004F3000000
00000AFD300000
000013BFB00000
0000DBEFA00000
0001DFFE400000
00000552000000
ENDCHAR
STARTCHAR Scaron
ENCODING 352
SWIDTH 610 0
DWIDTH 15 0
BBX 14 23 0 0
BITMAP
00001A10560000
0000AFD8FF3000
00003DFFFA0000
000002DF900000
00000017000000
00000000000000
0005ACCCCCCCC4
00AFFFFFFFFFF5
09FFFFFFFFFFF5
2FFFE988888883
5FFF2000000000
6FFF0000000000
4FFF9211100000
0DFFFFFFFFC600
03EFFFFFFFFF90
003CFFFFFFFFF5
0000244446EFFC
00000000007FFF
00000000007FFE
0355555557EFFB
07FFFFFFFFFFF5
07FFFFFFFFFF80
07FFFFFFFEB400
ENDCHAR
STARTCHAR scaron
ENCODING 353
SWIDTH 523 0
DWIDTH 13 0
BBX 13 18 0 0
BITMAP
00009403900000
0006FF7EF70000
0001BFFFD10000
00000AFC100000
00000071000000
00048888888200
01BFFFFFFFF400
09FFFFFFFFF400
1FFFCAAAAAA300
3FFF1000000000
1FFFDBBBA71000
09FFFFFFFFD200
01AFFFFFFFFB00
000377779FFF10
133333337FFF10
3FFFFFFFFFFB00
3FFFFFFFFFE300
3FFFFFFFEB2000
ENDCHAR
STARTCHAR Tcommaaccent
ENCODING 354
SWIDTH 578 0
DWIDTH 14 0
BBX 14 23 0 -6
BITMAP
ACCCCCCCCCCCC8
CFFFFFFFFFFFFA
CFFFFFFFFFFFFA
78888DFFC88886
00000BFF900000
00000BFF900000
00000BFF900000
00000BFF900000
00000BFF900000
00000BFF900000
00000BFF900000
00000BFF900000
00000BFF900000
00000BFF900000
00000BFF900000
00000BFF900000
00000BFF900000
00000000000000
000002BA100000
000009FF700000
000007FF700000
0000008F300000
000000AA000000
ENDCHAR
STARTCHAR tcommaaccent
ENCODING 355
SWIDTH 437 0
DWIDTH 11 0
BBX 10 24 0 -6
BITMAP
0188810000
01FFF10000
01FFF10000
01FFF10000
01FFF10000
59FFF98887
AFFFFFFFFE
AFFFFFFFFE
6AFFFAAAA9
01FFF10000
01FFF10000
01FFF10000
01FFF20000
00EFF60000
00AFFE7333
002EFFFFFE
0005EFFFFE
000029DFFE
0000000000
00009C4000
0004FFC000
0002FFC000
00003F8000
00005D1000
ENDCHAR
STARTCHAR Tcaron
ENCODING 356
SWIDTH 578 0
DWIDTH 14 0
BBX 14 22 0 0
BITMAP
00005800920000
0001EF9BFD0000
00007FFFF50000
000005FF400000
00000044000000
ACCCCCCCCCCCC8
CFFFFFFFFFFFFA
CFFFFFFFFFFFFA
78888DFFC88886
00000BFF900000
00000BFF900000
00000BFF900000
00000BFF900000
00000BFF900000
00000BFF900000
00000BFF900000
00000BFF900000
00000BFF900000
00000BFF900000
00000BFF900000
00000BFF900000
00000BFF900000
ENDCHAR
STARTCHAR tcaron
ENCODING 357
SWIDTH 570 0
DWIDTH 14 0
BBX 14 18 0 0
BITMAP
01888100000000
01FFF100001AB2
01FFF100006FF9
01FFF100004FF9
01FFF1000006F6
59FFF9888707C0
AFFFFFFFFE0010
AFFFFFFFFE0000
6AFFFAAAA90000
01FFF100000000
01FFF100000000
01FFF100000000
01FFF200000000
00EFF600000000
00AFFE73330000
002EFFFFFE0000
0005EFFFFE0000
000029DFFE0000
ENDCHAR
STARTCHAR Tbar
ENCODING 358
SWIDTH 578 0
DWIDTH 14 0
BBX 14 17 0 0
BITMAP
ACCCCCCCCCCCC8
CFFFFFFFFFFFFA
CFFFFFFFFFFFFA
78888DFFC88886
00000BFF900000
00000BFF900000
00000BFF900000
00000BFF900000
0007BEFFDB6000
000AFFFFFF8000
000AFFFFFF8000
00047DFFC74000
00000BFF900000
00000BFF900000
00000BFF900000
00000BFF900000
00000BFF900000
ENDCHAR
STARTCHAR tbar
ENCODING 359
SWIDTH 437 0
DWIDTH 11 0
BBX 10 18 0 0
BITMAP
0188810000
01FFF10000
01FFF10000
01FFF10000
01FFF10000
59FFF98887
AFFFFFFFFE
AFFFFFFFFE
6AFFFAAAA9
02FFF20000
AFFFFFF900
AFFFFFF900
9EFFFEE900
00EFF60000
00AFFE7333
002FFFFFFE
0004EFFFFE
000029DFFE
ENDCHAR
STARTCHAR Utilde
ENCODING 360
SWIDTH 673 0
DWIDTH 16 0
BBX 14 22 1 0
BITMAP
00004750277000
0007FFF97FE000
000BFFFFFFD000
000AF93DFF6000
00047501530000
8CC90000007CCA
9FFB0000008FFC
9FFB0000008FFC
9FFB0000008FFC
9FFB0000008FFC
9FFB0000008FFC
9FFB0000008FFC
9FFB0000008FFC
9FFB0000008FFC
9FFB0000008FFC
9FFB0000009FFC
7FFE100000CFFA
3FFF900007FFF6
0CFFFC76BFFFE1
02EFFFFFFFFF40
003DFFFFFFE500
00017CEEC81000
ENDCHAR
STARTCHAR utilde
ENCODING 361
SWIDTH 562 0
DWIDTH 13 0
BBX 12 19 1 -1
BITMAP
001673047400
00BFFF5BF900
01FFFFFFF800
00FF56FFE200
006730252000
888200008882
EFF40000EFF4
EFF40000EFF4
EFF40000EFF4
EFF40000EFF4
EFF40000EFF4
EFF40000EFF4
EFF40000EFF4
DFF70003FFF4
9FFE403DFFF4
2FFFFFFFFFF4
06FFFFFFFCF4
004CFFFC41C4
000013200000
ENDCHAR
STARTCHAR Umacron
ENCODING 362
SWIDTH 673 0
DWIDTH 16 0
BBX 14 21 1 0
BITMAP
00004555550000
0000DFFFFF1000
0000DFFFFF1000
00002222220000
8CC90000007CCA
9FFB0000008FFC
9FFB0000008FFC
9FFB0000008FFC
9FFB0000008FFC
9FFB0000008FFC
9FFB0000008FFC
9FFB0000008FFC
9FFB0000008FFC
9FFB0000008FFC
9FFB0000009FFC
7FFE100000CFFA
3FFF900007FFF6
0CFFFC76BFFFE1
02EFFFFFFFFF40
003DFFFFFFE500
00017CEEC81000
ENDCHAR
STARTCHAR umacron
ENCODING 363
SWIDTH 562 0
DWIDTH 13 0
BBX 12 18 1 -1
BITMAP
001555553000
003FFFFFB000
003FFFFFB000
000222222000
888200008882
EFF40000EFF4
EFF40000EFF4
EFF40000EFF4
EFF40000EFF4
EFF40000EFF4
EFF40000EFF4
EFF40000EFF4
DFF70003FFF4
9FFE403DFFF4
2FFFFFFFFFF4
06FFFFFFFCF4
004CFFFC41C4
000013200000
ENDCHAR
STARTCHAR Ubreve
ENCODING 364
SWIDTH 673 0
DWIDTH 16 0
BBX 14 22 1 0
BITMAP
00001431420000
00007FA5FB0000
00004FFFF90000
000008EFC20000
00000000000000
8CC90000007CCA
9FFB0000008FFC
9FFB0000008FFC
9FFB0000008FFC
9FFB0000008FFC
9FFB0000008FFC
9FFB0000008FFC
9FFB0000008FFC
9FFB0000008FFC
9FFB0000008FFC
9FFB0000009FFC
7FFE100000CFFA
3FFF900007FFF6
0CFFFC76BFFFE1
02EFFFFFFFFF40
003DFFFFFFE500
00017CEEC81000
ENDCHAR
STARTCHAR ubreve
ENCODING 365
SWIDTH 562 0
DWIDTH 13 0
BBX 12 18 1 -1
BITMAP
000341341000
000EF3CF4000
000BFFFF2000
0002CFE70000
888201008882
EFF40000EFF4
EFF40000EFF4
EFF40000EFF4
EFF40000EFF4
EFF40000EFF4
EFF40000EFF4
EFF40000EFF4
DFF70003FFF4
9FFE403DFFF4
2FFFFFFFFFF4
06FFFFFFFCF4
004CFFFC41C4
000013200000
ENDCHAR
STARTCHAR Uring
ENCODING 366
SWIDTH 673 0
DWIDTH 16 0
BBX 14 22 1 0
BITMAP
000004DD600000
00001EDCF30000
00003F74F50000
00000DFFE10000
00000189200000
8CC90000007CCA
9FFB0000008FFC
9FFB0000008FFC
9FFB0000008FFC
9FFB0000008FFC
9FFB0000008FFC
9FFB0000008FFC
9FFB0000008FFC
9FFB0000008FFC
9FFB0000008FFC
9FFB0000009FFC
7FFE100000CFFA
3FFF900007FFF6
0CFFFC76BFFFE1
02EFFFFFFFFF40
003DFFFFFFE500
00017CEEC81000
ENDCHAR
STARTCHAR uring
ENCODING 367
SWIDTH 562 0
DWIDTH 13 0
BBX 12 19 1 -1
BITMAP
00008EC30000
0005FBEC0000
0008F19F0000
0003FFFA0000
000049710000
888200008882
EFF40000EFF4
EFF40000EFF4
EFF40000EFF4
EFF40000EFF4
EFF40000EFF4
EFF40000EFF4
EFF40000EFF4
DFF70003FFF4
9FFE403DFFF4
2FFFFFFFFFF4
06FFFFFFFCF4
004CFFFC41C4
000013200000
ENDCHAR
STARTCHAR Uhungarumlaut
ENCODING 368
SWIDTH 673 0
DWIDTH 16 0
BBX 14 23 1 0
BITMAP
000000B3003000
000009FE43E900
00005FFF7DFF90
0002EFE5AFFC20
00009E32EFB100
00000100380000
8CC90000007CCA
9FFB0000008FFC
9FFB0000008FFC
9FFB0000008FFC
9FFB0000008FFC
9FFB0000008FFC
9FFB0000008FFC
9FFB0000008FFC
9FFB0000008FFC
9FFB0000008FFC
9FFB0000009FFC
7FFE100000CFFA
3FFF900007FFF6
0CFFFC76BFFFE1
02EFFFFFFFFF40
003DFFFFFFE500
00017CEEC81000
ENDCHAR
STARTCHAR uhungarumlaut
ENCODING 369
SWIDTH 562 0
DWIDTH 13 0
BBX 12 20 1 -1
BITMAP
00003B100300
0001DFC17F50
000AFFD6FFF4
006FFC3EFF90
002DB16FF700
000100075000
888200008882
EFF40000EFF4
EFF40000EFF4
EFF40000EFF4
EFF40000EFF4
EFF40000EFF4
EFF40000EFF4
EFF40000EFF4
DFF70003FFF4
9FFE403DFFF4
2FFFFFFFFFF4
06FFFFFFFCF4
004CFFFC41C4
000013200000
ENDCHAR
STARTCHAR Uogonek
ENCODING 370
SWIDTH 673 0
DWIDTH 16 0
BBX 14 22 1 -5
BITMAP
8CC90000007CCA
9FFB0000008FFC
9FFB0000008FFC
9FFB0000008FFC
9FFB0000008FFC
9FFB0000008FFC
9FFB0000008FFC
9FFB0000008FFC
9FFB0000008FFC
9FFB0000008FFC
9FFB0000009FFC
7FFE100000CFFA
4FFF900007FFF6
0CFFFC76BFFFE1
03EFFFFFFFFF40
003DFFFFFFE500
00017CFFC81000
00001CF3000000
00007FB3100000
00007FFFD20000
00001DFFB20000
00000033000000
ENDCHAR
STARTCHAR uogonek
ENCODING 371
SWIDTH 562 0
DWIDTH 13 0
BBX 14 18 1 -5
BITMAP
88820000888200
EFF40000EFF400
EFF40000EFF400
EFF40000EFF400
EFF40000EFF400
EFF40000EFF400
EFF40000EFF400
EFF40000EFF400
DFF70003FFF400
9FFE403DFFF400
2FFFFFFFFFF400
06FFFFFFFCF400
004CFFFC43F400
000013202ED100
00000000AF7400
00000000BFFFA0
000000004EFF91
00000000014200
ENDCHAR
STARTCHAR Wcircumflex
ENCODING 372
SWIDTH 819 0
DWIDTH 20 0
BBX 18 24 1 -1
BITMAP
000000006200000000
00000007FE30000000
0000008FFFE4000000
000002EF9CFC000000
0000005701A2000000
000000000000000000
7CCA000ACC6001CCC3
8FFC000DFF8002FFF4
8FFC000DFF8002FFF4
8FFC000DFF8002FFF4
8FFC000DFF8002FFF4
8FFC000DFF8002FFF4
8FFC000DFF8002FFF4
8FFC000DFF8002FFF4
8FFC000DFF8002FFF4
8FFC000DFF8002FFF4
8FFC000DFF8002FFF4
8FFC000DFF8002FFF4
8FFD000EFF9003FFF3
6FFF738FFFE53BFFF1
1EFFFFFFFFFFFFFFA0
05FFFFFFFFFFFFFD10
004CFFFC36EFFFA100
000023200002310000
ENDCHAR
STARTCHAR wcircumflex
ENCODING 373
SWIDTH 756 0
DWIDTH 18 0
BBX 17 19 1 -1
BITMAP
000000035000000000
0000004EF600000000
000005FFFF70000000
00000CFC9FE1000000
000002A10850000000
788200488500188800
DFF4008FFA002FFF10
DFF4008FFA002FFF10
DFF4008FFA002FFF10
DFF4008FFA002FFF10
DFF4008FFA002FFF10
DFF4008FFA002FFF10
DFF4008FFA002FFF10
DFF5008FFB002FFF10
BFFB12DFFE309FFE00
6FFFFFFFFFFFFFF900
0BFFFFFFFFFFFFD100
019FFFE65DFFFA1000
000133000023100000
ENDCHAR
STARTCHAR Ycircumflex
ENCODING 374
SWIDTH 620 0
DWIDTH 15 0
BBX 15 22 0 0
BITMAP
0000001700000000
000001CFA0000000
00002DFFFB100000
00008FE7FF600000
0000093049000000
3CCC1000002CCC20
4FFF1000003FFF20
4FFF1000003FFF20
4FFF1000003FFF20
4FFF1000003FFF20
4FFF2000003FFF20
2FFF5000007FFF00
0DFFE20003EFFB00
06FFFE869FFFF400
00AFFFFFFFFF9000
0009FFFFFFF80000
00004AFFFA300000
000004FFF2000000
000004FFF2000000
000004FFF2000000
000004FFF2000000
000004FFF2000000
ENDCHAR
STARTCHAR ycircumflex
ENCODING 375
SWIDTH 562 0
DWIDTH 14 0
BBX 12 23 1 -5
BITMAP
000006200000
00008FD20000
0009FFFE3000
003FF8DFB000
0006601A1000
888200008882
EFF40000EFF4
EFF40000EFF4
EFF40000EFF4
EFF40000EFF4
EFF40000EFF4
EFF40000EFF4
EFF40000EFF4
DFF70003FFF4
9FFE403DFFF4
2FFFFFFFFFF4
06FFFFFFFFF4
004CFFFDFFF3
0000132BFFE0
000567DFFF70
000BFFFFFB00
000BFFFFA100
0009CB930000
ENDCHAR
STARTCHAR Ydieresis
ENCODING 376
SWIDTH 620 0
DWIDTH 15 0
BBX 15 21 0 0
BITMAP
0000592029400000
0001FFB0CFE00000
0001DF90AFC00000
0000140004100000
3CCC1000002CCC20
4FFF1000003FFF20
4FFF1000003FFF20
4FFF1000003FFF20
4FFF1000003FFF20
4FFF2000003FFF20
2FFF5000007FFF00
0DFFE20003EFFB00
06FFFE869FFFF400
00AFFFFFFFFF9000
0009FFFFFFF80000
00004AFFFA300000
000004FFF2000000
000004FFF2000000
000004FFF2000000
000004FFF2000000
000004FFF2000000
ENDCHAR
STARTCHAR Zacute
ENCODING 377
SWIDTH 586 0
DWIDTH 14 0
BBX 14 23 0 0
BITMAP
00000000180000
00000001CF8000
0000001CFFF300
000000BFFD4000
0000003E800000
00000001000000
6CCCCCCCCCCCC4
7FFFFFFFFFFFD0
7FFFFFFFFFFF50
4888888BFFFC00
0000000CFFF400
0000005FFFB000
000000DFFF3000
000006FFFA0000
00000DFFF20000
00007FFF900000
0001EFFF200000
0008FFF8000000
001EFFE1000000
009FFFB5555553
02FFFFFFFFFFF8
0AFFFFFFFFFFF8
3FFFFFFFFFFFF8
ENDCHAR
STARTCHAR zacute
ENCODING 378
SWIDTH 481 0
DWIDTH 12 0
BBX 11 19 0 0
BITMAP
000000026000
0000003EF500
000003EFFE10
00001EFFB200
000006E50000
000000100000
488888888870
7FFFFFFFFF60
7FFFFFFFFD00
4AAAABFFF500
00000AFFB000
00003FFF3000
0000CFF90000
0005FFE10000
000DFF700000
007FFE333330
01EFFFFFFFF0
09FFFFFFFFF0
3FFFFFFFFFF0
ENDCHAR
STARTCHAR Zdotaccent
ENCODING 379
SWIDTH 586 0
DWIDTH 14 0
BBX 14 21 0 0
BITMAP
000001BB200000
000006FF700000
000002EE300000
00000011000000
6CCCCCCCCCCCC4
7FFFFFFFFFFFD0
7FFFFFFFFFFF50
4888888BFFFC00
0000000CFFF400
0000005FFFB000
000000DFFF3000
000006FFFA0000
00000DFFF20000
00007FFF900000
0001EFFF200000
0008FFF8000000
001EFFE1000000
009FFFB5555553
02FFFFFFFFFFF8
0AFFFFFFFFFFF8
3FFFFFFFFFFFF8
ENDCHAR
STARTCHAR zdotaccent
ENCODING 380
SWIDTH 481 0
DWIDTH 12 0
BBX 11 17 0 0
BITMAP
00003C900000
0000AFF30000
00005FD10000
000001000000
488888888870
7FFFFFFFFF60
7FFFFFFFFD00
4AAAABFFF500
00000AFFB000
00003FFF3000
0000CFF90000
0005FFE10000
000DFF700000
007FFE333330
01EFFFFFFFF0
09FFFFFFFFF0
3FFFFFFFFFF0
ENDCHAR
STARTCHAR Zcaron
ENCODING 381
SWIDTH 586 0
DWIDTH 14 0
BBX 14 22 0 0
BITMAP
00003900830000
0000DFBAFE1000
00005FFFF60000
000004EF600000
00000035000000
6CCCCCCCCCCCC4
7FFFFFFFFFFFD0
7FFFFFFFFFFF50
4888888BFFFC00
0000000CFFF400
0000005FFFB000
000000DFFF3000
000006FFFA0000
00000DFFF20000
00007FFF900000
0001EFFF200000
0008FFF8000000
001EFFE1000000
009FFFB5555553
02FFFFFFFFFFF8
0AFFFFFFFFFFF8
3FFFFFFFFFFFF8
ENDCHAR
STARTCHAR zcaron
ENCODING 382
SWIDTH 481 0
DWIDTH 12 0
BBX 11 18 0 0
BITMAP
000760191000
003FF8CFA000
0009FFFE3000
00007FE30000
000005200000
488888888870
7FFFFFFFFF60
7FFFFFFFFD00
4AAAABFFF500
00000AFFB000
00003FFF3000
0000CFF90000
0005FFE10000
000DFF700000
007FFE333330
01EFFFFFFFF0
09FFFFFFFFF0
3FFFFFFFFFF0
ENDCHAR
STARTCHAR AEacute
ENCODING 508
SWIDTH 988 0
DWIDTH 24 0
BBX 22 23 1 0
BITMAP
0000000000000270000000
0000000000002DF5000000
000000000003EFFE100000
00000000000EFFB2000000
000000000006E600000000
0000000000001000000000
000049BCCCCCCCCCCCCCCC
001BFFFFFFFFFFFFFFFFFE
01DFFFFFFFFFFFFFFFFFFE
0AFFFEA888CFFE88888888
2FFFC100009FFC00000000
7FFF2000009FFC00000000
9FFC0000009FFC11111000
9FFB0000009FFFFFFFF500
9FFB0000009FFFFFFFF500
9FFB0000009FFFFFFFF500
9FFEBBBBBBDFFD44444100
9FFFFFFFFFFFFC00000000
9FFFFFFFFFFFFC00000000
9FFEAAAAAADFFD55555555
9FFB0000009FFFFFFFFFFE
9FFB0000009FFFFFFFFFFE
9FFB0000009FFFFFFFFFFE
ENDCHAR
STARTCHAR aeacute
ENCODING 509
SWIDTH 976 0
DWIDTH 23 0
BBX 23 20 0 -1
BITMAP
000000000000006200000000
00000000000007FD10000000
0000000000008FFF80000000
000000000006FFF700000000
000000000000CB2000000000
000000000000100000000000
00018DFEB5005329DFEB6000
004EFFFFFFB5FBFFFFFFFC10
02EFFFFFFFFFFFFFFFFFFFC0
0BFFF944BFFFFFFF84AFFF60
2FFF70000AFFFFF503FFF800
5FFF000001FFFFC01DFFB000
6FFD000000DFFFA0BFFD1000
6FFE000000EFFFB7FFE20000
3FFF500007FFFFFFFF407200
0DFFE5117FFFFFFFF618FD20
05FFFFFFFFFFFFFFFFFFFFC0
008FFFFFFFD9FDFFFFFFFE30
0004CFFFE810B65CFFFE9100
000001320000000013200000
ENDCHAR
STARTCHAR Oslashacute
ENCODING 510
SWIDTH 777 0
DWIDTH 19 0
BBX 18 24 0 -1
BITMAP
000000000008000000
0000000001BF900000
000000001CFFF40000
00000000AFFD400000
000000002E81000000
000000000100000000
0000017CEFEB56CC90
00007FFFFFFFFFFE20
000AFFFFFFFFFFF900
008FFFFA657EFFFF40
04FFFD30004FFFFFD0
0AFFE20001EFF8FFF6
1FFF70000BFF70CFFB
4FFF20007FFB007FFE
5FFF0003FFE1005FFF
4FFF101DFF40006FFF
2FFF50AFF80000AFFC
0DFFD6FFC00003FFF7
06FFFFFE20002DFFF1
00CFFFFA1027EFFF70
002EFFFFFFFFFFFB00
005FFFFFFFFFFF9000
02EFF8DFFFFFA40000
000000024541000000
ENDCHAR
STARTCHAR oslashacute
ENCODING 511
SWIDTH 579 0
DWIDTH 14 0
BBX 14 20 0 -1
BITMAP
00000000170000
00000002DF6000
0000002DFFF200
000000DFFC3000
0000004E700000
00000001000000
00018DFEC7BBB1
004EFFFFFFFF70
02EFFFFFFFFF20
0BFFF948FFFF90
2FFF701EFFFFF1
5FFE00BFF8FFF4
7FFC07FFB0EFF5
6FFE4FFD11FFF4
3FFFEFF407FFF1
0CFFFF817FFFA0
04FFFFFFFFFE20
04FFFFFFFFE400
1EFFBFFFFA2000
00000133100000
ENDCHAR
STARTCHAR dotlessj
ENCODING 567
SWIDTH 237 0
DWIDTH 6 0
BBX 9 18 -4 -5
BITMAP
0000068840
00000BFF80
00000BFF80
00000BFF80
00000BFF80
00000BFF80
00000BFF80
00000BFF80
00000BFF80
00000BFF80
00000BFF80
00000CFF70
00001EFF50
00009FFF10
467CFFF900
8FFFFFD100
8FFFFB1000
6CB9400000
ENDCHAR
STARTCHAR circumflex
ENCODING 710
SWIDTH 267 0
DWIDTH 6 0
BBX 7 5 0 12
BITMAP
00260000
03EF7000
3EFFF800
BFD8FF30
1A106700
ENDCHAR
STARTCHAR caron
ENCODING 711
SWIDTH 267 0
DWIDTH 6 0
BBX 7 5 0 12
BITMAP
2A107500
BFC8FF20
3EFFF900
02DF8000
00260000
ENDCHAR
STARTCHAR breve
ENCODING 728
SWIDTH 220 0
DWIDTH 5 0
BBX 6 5 0 12
BITMAP
441440
FF3CF4
CFFFF2
2CFE70
001000
ENDCHAR
STARTCHAR dotaccent
ENCODING 729
SWIDTH 125 0
DWIDTH 3 0
BBX 3 4 0 12
BITMAP
6D60
EFE0
9FA0
0100
ENDCHAR
STARTCHAR ring
ENCODING 730
SWIDTH 192 0
DWIDTH 5 0
BBX 5 5 0 12
BITMAP
2BE900
CEBF60
EA1F90
AFFF40
079400
ENDCHAR
STARTCHAR ogonek
ENCODING 731
SWIDTH 212 0
DWIDTH 5 0
BBX 5 6 0 -5
BITMAP
03B400
4FB000
DF5400
EFFF80
6FFF70
014100
ENDCHAR
STARTCHAR tilde
ENCODING 732
SWIDTH 321 0
DWIDTH 8 0
BBX 8 5 0 12
BITMAP
06730475
AFFF6AFA
EFFFFFF9
EF65EFF3
57302520
ENDCHAR
STARTCHAR hungarumlaut
ENCODING 733
SWIDTH 384 0
DWIDTH 9 0
BBX 10 6 0 12
BITMAP
0077002100
04FF80CD20
1EFFB9FFD1
BFF95FFE50
5F70AFE300
0200192000
ENDCHAR
STARTCHAR uni0312
ENCODING 786
SWIDTH 192 0
DWIDTH 5 0
BBX 4 6 0 12
BITMAP
0380
0CC0
2FE6
4FFD
1DF9
0130
ENDCHAR
STARTCHAR uni0315
ENCODING 789
SWIDTH 132 0
DWIDTH 3 0
BBX 4 6 0 11
BITMAP
5C70
EFF2
CFF2
1DD0
1E50
0100
ENDCHAR
STARTCHAR uni0326
ENCODING 806
SWIDTH 193 0
DWIDTH 5 0
BBX 4 5 0 -6
BITMAP
08C4
3FFD
1EFD
03F9
04E2
ENDCHAR
STARTCHAR pi
ENCODING 960
SWIDTH 555 0
DWIDTH 13 0
BBX 13 13 0 0
BITMAP
58888888888880
8FFFFFFFFFFFE0
8FFFFFFFFFFFE0
6ADFFDABFFFA90
009FF904FFE000
009FF904FFE000
009FF904FFE000
009FF904FFE000
009FF904FFE000
009FF904FFE000
009FF904FFE000
009FF904FFE000
009FF904FFE000
ENDCHAR
STARTCHAR Wgrave
ENCODING 7808
SWIDTH 819 0
DWIDTH 20 0
BBX 18 24 1 -1
BITMAP
000001700000000000
00000BF90000000000
00006FFFA000000000
000006EFF700000000
0000001AD100000000
000000001000000000
7CCA000ACC6001CCC3
8FFC000DFF8002FFF4
8FFC000DFF8002FFF4
8FFC000DFF8002FFF4
8FFC000DFF8002FFF4
8FFC000DFF8002FFF4
8FFC000DFF8002FFF4
8FFC000DFF8002FFF4
8FFC000DFF8002FFF4
8FFC000DFF8002FFF4
8FFC000DFF8002FFF4
8FFC000DFF8002FFF4
8FFD000EFF9003FFF3
6FFF738FFFE53BFFF1
1EFFFFFFFFFFFFFFA0
05FFFFFFFFFFFFFD10
004CFFFC36EFFFA100
000023200002310000
ENDCHAR
STARTCHAR wgrave
ENCODING 7809
SWIDTH 756 0
DWIDTH 18 0
BBX 17 20 1 -1
BITMAP
000017000000000000
0000BF900000000000
0006FFFA0000000000
00006EFF8000000000
0000019D1000000000
000000010000000000
788200488500188800
DFF4008FFA002FFF10
DFF4008FFA002FFF10
DFF4008FFA002FFF10
DFF4008FFA002FFF10
DFF4008FFA002FFF10
DFF4008FFA002FFF10
DFF4008FFA002FFF10
DFF5008FFB002FFF10
BFFB12DFFE309FFE00
6FFFFFFFFFFFFFF900
0BFFFFFFFFFFFFD100
019FFFE65DFFFA1000
000133000023100000
ENDCHAR
STARTCHAR Wacute
ENCODING 7810
SWIDTH 819 0
DWIDTH 20 0
BBX 18 24 1 -1
BITMAP
000000000026000000
0000000003EF500000
000000003EFFE10000
00000001EFFB200000
000000006E50000000
000000000100000000
7CCA000ACC6001CCC3
8FFC000DFF8002FFF4
8FFC000DFF8002FFF4
8FFC000DFF8002FFF4
8FFC000DFF8002FFF4
8FFC000DFF8002FFF4
8FFC000DFF8002FFF4
8FFC000DFF8002FFF4
8FFC000DFF8002FFF4
8FFC000DFF8002FFF4
8FFC000DFF8002FFF4
8FFC000DFF8002FFF4
8FFD000EFF9003FFF3
6FFF738FFFE53BFFF1
1EFFFFFFFFFFFFFFA0
05FFFFFFFFFFFFFD10
004CFFFC36EFFFA100
000023200002310000
ENDCHAR
STARTCHAR wacute
ENCODING 7811
SWIDTH 756 0
DWIDTH 18 0
BBX 17 20 1 -1
BITMAP
000000000072000000
0000000008FC000000
000000009FFF700000
00000007FFE7000000
00000001DA20000000
000000001000000000
788200488500188800
DFF4008FFA002FFF10
DFF4008FFA002FFF10
DFF4008FFA002FFF10
DFF4008FFA002FFF10
DFF4008FFA002FFF10
DFF4008FFA002FFF10
DFF4008FFA002FFF10
DFF5008FFB002FFF10
BFFB12DFFE309FFE00
6FFFFFFFFFFFFFF900
0BFFFFFFFFFFFFD100
019FFFE65DFFFA1000
000133000023100000
ENDCHAR
STARTCHAR Wdieresis
ENCODING 7812
SWIDTH 819 0
DWIDTH 20 0
BBX 18 22 1 -1
BITMAP
000002960077000000
00000AFF26FF500000
000008FE14FF300000
000000410033000000
7CCA000ACC6001CCC3
8FFC000DFF8002FFF4
8FFC000DFF8002FFF4
8FFC000DFF8002FFF4
8FFC000DFF8002FFF4
8FFC000DFF8002FFF4
8FFC000DFF8002FFF4
8FFC000DFF8002FFF4
8FFC000DFF8002FFF4
8FFC000DFF8002FFF4
8FFC000DFF8002FFF4
8FFC000DFF8002FFF4
8FFD000EFF9003FFF3
6FFF738FFFE53BFFF1
1EFFFFFFFFFFFFFFA0
05FFFFFFFFFFFFFD10
004CFFFC36EFFFA100
000023200002310000
ENDCHAR
STARTCHAR wdieresis
ENCODING 7813
SWIDTH 756 0
DWIDTH 18 0
BBX 17 18 1 -1
BITMAP
000018800581000000
00007FF62FF9000000
00004FF41EF7000000
000003300240000000
788200488500188800
DFF4008FFA002FFF10
DFF4008FFA002FFF10
DFF4008FFA002FFF10
DFF4008FFA002FFF10
DFF4008FFA002FFF10
DFF4008FFA002FFF10
DFF4008FFA002FFF10
DFF5008FFB002FFF10
BFFB12DFFE309FFE00
6FFFFFFFFFFFFFF900
0BFFFFFFFFFFFFD100
019FFFE65DFFFA1000
000133000023100000
ENDCHAR
STARTCHAR Ygrave
ENCODING 7922
SWIDTH 620 0
DWIDTH 15 0
BBX 15 23 0 0
BITMAP
0000800000000000
0009FB1000000000
004FFFC100000000
0005DFFA00000000
000018E200000000
0000001000000000
3CCC1000002CCC20
4FFF1000003FFF20
4FFF1000003FFF20
4FFF1000003FFF20
4FFF1000003FFF20
4FFF2000003FFF20
2FFF5000007FFF00
0DFFE20003EFFB00
06FFFE869FFFF400
00AFFFFFFFFF9000
0009FFFFFFF80000
00004AFFFA300000
000004FFF2000000
000004FFF2000000
000004FFF2000000
000004FFF2000000
000004FFF2000000
ENDCHAR
STARTCHAR ygrave
ENCODING 7923
SWIDTH 562 0
DWIDTH 14 0
BBX 12 24 1 -5
BITMAP
007100000000
06FD20000000
1EFFD2000000
03CFFD000000
0006E5000000
000010000000
888200008882
EFF40000EFF4
EFF40000EFF4
EFF40000EFF4
EFF40000EFF4
EFF40000EFF4
EFF40000EFF4
EFF40000EFF4
DFF70003FFF4
9FFE403DFFF4
2FFFFFFFFFF4
06FFFFFFFFF4
004CFFFDFFF3
0000132BFFE0
000567DFFF70
000BFFFFFB00
000BFFFFA100
0009CB930000
ENDCHAR
STARTCHAR endash
ENCODING 8211
SWIDTH 418 0
DWIDTH 10 0
BBX 8 5 1 6
BITMAP
11111111
8FFFFFFA
8FFFFFFA
8FFFFFFA
12222221
ENDCHAR
STARTCHAR emdash
ENCODING 8212
SWIDTH 719 0
DWIDTH 17 0
BBX 15 5 1 6
BITMAP
1111111111111110
8FFFFFFFFFFFFFD0
8FFFFFFFFFFFFFD0
8FFFFFFFFFFFFFD0
1222222222222210
ENDCHAR
STARTCHAR quoteleft
ENCODING 8216
SWIDTH 246 0
DWIDTH 6 0
BBX 4 7 1 10
BITMAP
0750
3FC0
AFA1
DFFB
EFFF
9FFA
0550
ENDCHAR
STARTCHAR quoteright
ENCODING 8217
SWIDTH 245 0
DWIDTH 6 0
BBX 5 7 0 10
BITMAP
03BA20
0EFFB0
1FFFD0
08FFB0
009F60
01ED00
002200
ENDCHAR
STARTCHAR quotesinglbase
ENCODING 8218
SWIDTH 264 0
DWIDTH 6 0
BBX 5 7 1 -3
BITMAP
012000
5EF900
CFFF10
AFFF10
2BFD00
08F800
07C100
ENDCHAR
STARTCHAR quotedblleft
ENCODING 8220
SWIDTH 445 0
DWIDTH 11 0
BBX 9 7 1 10
BITMAP
0750008300
3FC006F900
AFA10DF800
DFFB1FFF80
EFFF2FFFC0
9FFA0CFF70
0550016400
ENDCHAR
STARTCHAR quotedblright
ENCODING 8221
SWIDTH 444 0
DWIDTH 11 0
BBX 10 7 0 10
BITMAP
03BA206C91
0EFFB2FFF8
1FFFD4FFFA
08FFB0BFF8
009F600CF3
01ED003FA0
0022000310
ENDCHAR
STARTCHAR quotedblbase
ENCODING 8222
SWIDTH 463 0
DWIDTH 11 0
BBX 9 7 1 -3
BITMAP
0120001100
5EF907FF60
CFFF1FFFD0
AFFF1DFFD0
2BFD03CFB0
08F800AF50
07C1009A00
ENDCHAR
STARTCHAR dagger
ENCODING 8224
SWIDTH 434 0
DWIDTH 10 0
BBX 10 23 0 -3
BITMAP
0001333000
0007FFE000
0007FFE000
0007FFE000
0007FFE000
3DDEFFFDD9
3FFFFFFFFA
3FFFFFFFFA
155AFFE553
0007FFE000
0007FFE000
0007FFE000
0007FFE000
0007FFE000
0007FFE000
0007FFE000
0007FFE000
0007FFE000
0007FFE000
0007FFE000
0007FFE000
0007FFE000
0003666000
ENDCHAR
STARTCHAR daggerdbl
ENCODING 8225
SWIDTH 452 0
DWIDTH 11 0
BBX 9 23 1 -3
BITMAP
0013330000
004FFF2000
004FFF2000
004FFF2000
004FFF2000
DDEFFFEDC0
FFFFFFFFD0
FFFFFFFFD0
557FFF6540
004FFF2000
004FFF2000
004FFF2000
004FFF2000
004FFF2000
447FFF6440
FFFFFFFFD0
FFFFFFFFD0
EEEFFFEEC0
004FFF2000
004FFF2000
004FFF2000
004FFF2000
0026661000
ENDCHAR
STARTCHAR bullet
ENCODING 8226
SWIDTH 354 0
DWIDTH 9 0
BBX 6 6 1 6
BITMAP
001200
06EFC1
1FFFF9
3FFFFB
0DFFF6
02AC70
ENDCHAR
STARTCHAR ellipsis
ENCODING 8230
SWIDTH 789 0
DWIDTH 19 0
BBX 17 5 1 -1
BITMAP
012000002000002100
5EF9001DFC1009FE40
CFFF107FFF602FFFB0
AFFE005FFF401FFF90
2AB40008C70004BA10
ENDCHAR
STARTCHAR perthousand
ENCODING 8240
SWIDTH 998 0
DWIDTH 24 0
BBX 24 19 0 -1
BITMAP
000010000000000000000000
009EFD500007CC1000000000
07FFFFF2001EF80000000000
0DFA3DF8009FE10000000000
0FF409FA02FF600000000000
1FF308FA0AFD000000000000
0EF70CF93FF5000000000000
09FFDFF4CFB0000000000000
02DFFF95FF30000000000000
0004530DFA02310000132000
0000006FF3CFFF6006FFFC10
000001EF99FFFFF22FFFFFA0
000008FE1EF71DF77FD17FE0
00002EF71FF309F99FA02FF2
00009FD01FF309F99FA02FF2
0003FF600EF81DF77FE27FE0
000BFC0009FFFFF22FFFFF90
004FF40001BFFE6006EFFC10
000000000002310000132000
ENDCHAR
STARTCHAR guilsinglleft
ENCODING 8249
SWIDTH 403 0
DWIDTH 10 0
BBX 9 13 0 0
BITMAP
0000001000
000003E500
00002EFF60
0002DFFD20
002DFFD200
02DFFE2000
1DFFE20000
1CFFF50000
01CFFF6000
001BFFF800
0000BFFF70
00000AFC10
0000008200
ENDCHAR
STARTCHAR guilsinglright
ENCODING 8250
SWIDTH 402 0
DWIDTH 10 0
BBX 8 13 1 0
BITMAP
00100000
0AB10000
AFFB0000
5FFFA000
05FFFA00
005FFF90
0006FFF9
0009FFF9
00AFFF80
1BFFF700
BFFF6000
4FF50000
05500000
ENDCHAR
STARTCHAR fraction
ENCODING 8260
SWIDTH 477 0
DWIDTH 11 0
BBX 12 17 0 0
BITMAP
000000002CC5
00000000AFD0
00000003FF50
0000000BFC00
0000004FF400
000000DFA000
000006FF2000
00001EF90000
00007FE10000
0001EF700000
0009FE100000
002FF6000000
00AFD0000000
04FF40000000
0CFB00000000
5FF300000000
DFA000000000
ENDCHAR
STARTCHAR Euro
ENCODING 8364
SWIDTH 806 0
DWIDTH 19 0
BBX 19 18 0 -1
BITMAP
0000000016BEFFC82000
00000005DFFFFFFFF800
0000006FFFFFFFFFFE10
000004FFFFC756AFF600
00001EFFF6000003A000
009CDFFFECCC10000000
00EFFFFFFFFD00000000
03FFFFFFFFFA00000000
0122FFF6222100000000
07BBFFFCBBB200000000
0CFFFFFFFFF000000000
1FFFFFFFFFC000000000
13334FFFE52000005000
000008FFFE72015CF300
000000AFFFFFFFFFFC00
00000008FFFFFFFFFC10
000000004BFFFFFD7000
00000000001454200000
ENDCHAR
STARTCHAR trademark
ENCODING 8482
SWIDTH 606 0
DWIDTH 15 0
BBX 12 7 1 10
BITMAP
8CCCC35DBBD5
36DA61E8CC8E
00C600F3993F
00C600F3993F
00C600F3993F
00C600F3993F
003100312213
ENDCHAR
STARTCHAR partialdiff
ENCODING 8706
SWIDTH 609 0
DWIDTH 15 0
BBX 14 20 0 -1
BITMAP
00000344410000
000005FFF90000
000000AFFF2000
0000002EFFA000
00000007FFF300
00000000DFFA00
00004ADDDFFF20
001AFFFFFFFF70
00BFFFFFFFFFD0
06FFFC548FFFF2
0CFFC00004FFF6
1FFF400000CFF8
2FFF2000009FFA
1FFF400000BFF8
0DFFA00002FFF5
08FFF9214DFFE1
01DFFFFFFFFF60
003DFFFFFFF800
00019EFFFC5000
00000023100000
ENDCHAR
STARTCHAR product
ENCODING 8719
SWIDTH 632 0
DWIDTH 15 0
BBX 15 17 0 0
BITMAP
1CCCCCCCCCCCCC40
2FFFFFFFFFFFFF50
2FFFFFFFFFFFFF50
188FFFB8AFFF9830
000EFF603FFF2000
000EFF603FFF2000
000EFF603FFF2000
000EFF603FFF2000
000EFF603FFF2000
000EFF603FFF2000
000EFF603FFF2000
000EFF603FFF2000
000EFF603FFF2000
000EFF603FFF2000
000EFF603FFF2000
000EFF603FFF2000
000EFF603FFF2000
ENDCHAR
STARTCHAR minus
ENCODING 8722
SWIDTH 543 0
DWIDTH 13 0
BBX 11 5 1 6
BITMAP
011111111110
6FFFFFFFFF70
6FFFFFFFFF70
6FFFFFFFFF70
122222222210
ENDCHAR
STARTCHAR infinity
ENCODING 8734
SWIDTH 771 0
DWIDTH 19 0
BBX 17 12 1 2
BITMAP
000254000014300000
01BFFFD419FFFE5000
0CFFFFFFCFFFFFF500
7FFFFFFFFFFFFFFE00
CFF905EFFF416FFF40
EFF3007FFB000BFF70
EFF4003FFE000AFF70
CFFB108FFF902EFF50
7FFFFFFFFFFEFFFE10
0CFFFFFFDFFFFFF600
01BFFFE61AFFFF7000
000254100026510000
ENDCHAR
STARTCHAR approxequal
ENCODING 8776
SWIDTH 476 0
DWIDTH 11 0
BBX 9 11 1 3
BITMAP
0012000120
0AFFB19FD0
6FFFFCDFE0
8FFAEFFFB0
5FF22DFD30
1431002000
08EE807EC0
5FFFFACFE0
8FFCFFFFC0
6FF14EFE40
1651014100
ENDCHAR
STARTCHAR notequal
ENCODING 8800
SWIDTH 512 0
DWIDTH 12 0
BBX 11 15 1 1
BITMAP
000000699300
000001EFE100
000005FF9000
67777CFFA700
CFFFFFFFFF10
CFFFFFFFFF10
8BBBFFFBBB00
0004FFB00000
8AADFFCAAA00
CFFFFFFFFF10
CFFFFFFFFF10
68EFF9888800
02FFD0000000
08FF70000000
0DFF20000000
ENDCHAR
STARTCHAR fi
ENCODING 64257
SWIDTH 650 0
DWIDTH 16 0
BBX 15 19 0 0
BITMAP
0000049BBB101000
0001AFFFFF29FE40
000BFFFFFF5FFFC0
005FFFC8774FFFD0
00BFFB00000AFE50
00DFF50000002100
48EFFA8888888830
7FFFFFFFFFFFFF60
7FFFFFFFFFFFFF60
4AFFFBAAAAAEFF60
00EFF400000CFF60
00EFF400000CFF60
00EFF400000CFF60
00EFF400000CFF60
00EFF400000CFF60
00EFF400000CFF60
00EFF400000CFF60
00EFF400000CFF60
00EFF400000CFF60
ENDCHAR
STARTCHAR fl
ENCODING 64258
SWIDTH 631 0
DWIDTH 15 0
BBX 14 19 0 0
BITMAP
0000049BBBBBBB
0001AFFFFFFFFF
000BFFFFFFFFFF
005FFFC8779FFF
00BFFB00004FFE
00DFF500004FFE
48EFFA88824FFE
7FFFFFFFF34FFE
7FFFFFFFF34FFE
4AFFFBAAA24FFE
00EFF400004FFE
00EFF400004FFE
00EFF400004FFE
00EFF400004FFE
00EFF400004FFE
00EFF400004FFE
00EFF400004FFE
00EFF400004FFE
00EFF400004FFE
ENDCHAR
STARTCHAR .notdef
ENCODING -1
SWIDTH 279 0
DWIDTH 7 0
BBX 1 1 0 0
BITMAP
00
ENDCHAR
STARTCHAR .null
ENCODING -1
SWIDTH 0 0
DWIDTH 0 0
BBX 1 1 0 0
BITMAP
00
ENDCHAR
STARTCHAR nonmarkingreturn
ENCODING -1
SWIDTH 279 0
DWIDTH 7 0
BBX 1 1 0 0
BITMAP
00
ENDCHAR
ENDFONT
